<svg width="26" height="26" viewBox="0 0 26 26" fill="none" xmlns="http://www.w3.org/2000/svg">
<path d="M18.5742 25.9989C22.6717 25.9989 25.9933 22.6586 25.9933 18.5382C26.0199 17.3616 25.5626 14.6073 23.5204 13.0028C24.3978 12.1471 26.1208 9.84205 25.9933 7.46746C25.9933 3.34703 22.6717 0.00675452 18.5742 0.00675452C17.4042 -0.0467272 14.6654 0.375779 13.0699 2.49366C12.3784 1.61121 10.3094 -0.1216 7.56528 0.00675452C5.91664 -0.0734673 2.15667 0.76085 0.624993 4.73989C-0.146257 6.21064 -0.827161 9.92227 2.61923 13.0028C1.7417 13.7516 0.0185646 15.9069 0.146205 18.5382C0.146205 22.6586 3.46784 25.9989 7.56528 25.9989C8.62899 26.0256 11.2191 25.5817 13.0699 23.5922C13.841 24.3944 16.0213 25.9989 18.5742 25.9989Z" fill="#1F8F5B"/>
<path d="M22.0159 15.0864L20.8031 13.867L19.0844 15.5953L20.2972 16.8147C21.2448 17.7678 21.2448 19.3187 20.2972 20.2716C19.3497 21.2244 17.8074 21.2244 16.8597 20.2716L10.4908 13.867L8.77214 15.5953L15.141 21.9999C17.0393 23.9089 20.1177 23.9089 22.016 21.9999C23.9142 20.0909 23.9142 16.9953 22.0159 15.0864Z" fill="#C8F469"/>
<path d="M9.27838 20.2716C8.33064 21.2244 6.78839 21.2244 5.84081 20.2716C4.89326 19.3187 4.89326 17.7678 5.84081 16.8147L12.2097 10.4101L10.491 8.68181L4.12214 15.0864C2.22381 16.9953 2.22381 20.091 4.12214 21.9999C6.02047 23.9088 9.09876 23.9089 10.9971 21.9999L12.2097 20.7803L10.491 19.052L9.27838 20.2716ZM16.8599 5.73381C17.8076 4.78094 19.3499 4.78094 20.2975 5.73381C21.245 6.68667 21.245 8.23761 20.2975 9.19067L13.9286 15.5953L15.6473 17.3236L22.0161 10.919C23.9145 9.01 23.9145 5.9144 22.0161 4.00545C20.1178 2.09651 17.0395 2.09647 15.1412 4.00545L13.9286 5.22503L15.6473 6.95338L16.8599 5.73381Z" fill="#C8F469"/>
<path d="M5.33489 12.1384L7.0536 10.4101L5.84079 9.19068C4.89325 8.23761 4.89325 6.68671 5.84079 5.73381C6.78834 4.78095 8.33062 4.78095 9.27837 5.73381L15.8989 12.3915L17.6175 10.6631L10.9971 4.0055C9.09874 2.09651 6.02042 2.09651 4.12212 4.0055C2.22383 5.91448 2.22379 9.01005 4.12212 10.919L5.33489 12.1384Z" fill="#C8F469"/>
</svg>
