<svg width="26" height="26" viewBox="0 0 26 26" fill="none" xmlns="http://www.w3.org/2000/svg">
<g clip-path="url(#clip0_787_474)">
<path fill-rule="evenodd" clip-rule="evenodd" d="M25.0304 9.45309C24.8284 8.80667 24.4532 8.22583 23.9441 7.77177C23.4351 7.31772 22.8111 7.00725 22.1379 6.87309C22.2523 6.21271 22.1794 5.53403 21.927 4.91186C21.6747 4.2897 21.2528 3.74821 20.7079 3.34709C20.1121 2.90556 19.4018 2.6387 18.6587 2.57728C17.9156 2.51585 17.17 2.66235 16.5078 2.99989C16.201 2.36453 15.7234 1.82397 15.1268 1.43678C14.5302 1.0496 13.8373 0.830565 13.1233 0.80341C12.4093 0.776255 11.7014 0.942017 11.0762 1.28273C10.4511 1.62345 9.93253 2.12613 9.57681 2.73629C8.94835 2.44615 8.25345 2.32379 7.56181 2.3815C6.87017 2.43921 6.2061 2.67496 5.63618 3.06509C5.07524 3.44509 4.63156 3.97002 4.35394 4.58217C4.07632 5.19432 3.97551 5.86999 4.06257 6.53489C3.38406 6.64386 2.74784 6.93064 2.22067 7.36513C1.6935 7.79963 1.29483 8.36582 1.06648 9.00429C0.846429 9.63683 0.808926 10.3171 0.958145 10.9693C1.10736 11.6216 1.43745 12.2203 1.91168 12.6989C1.42786 13.1682 1.08565 13.7604 0.923072 14.4097C0.760492 15.059 0.783906 15.7399 0.990714 16.3769C1.20592 17.0195 1.59303 17.5932 2.11132 18.0375C2.62962 18.4818 3.25996 18.7804 3.93603 18.9019C3.83527 19.5646 3.92217 20.2418 4.18716 20.8589C4.45215 21.4761 4.88496 22.0093 5.43793 22.3999C6.0001 22.8007 6.65947 23.049 7.34985 23.1196C8.04024 23.1903 8.73736 23.0809 9.37125 22.8025C9.70346 23.3971 10.189 23.895 10.779 24.246C11.369 24.5969 12.0425 24.7885 12.7317 24.8014C13.4208 24.8143 14.1012 24.648 14.7043 24.3194C15.3074 23.9908 15.8119 23.5115 16.1668 22.9297C16.7896 23.2315 17.4821 23.3668 18.1748 23.322C18.8674 23.2773 19.536 23.0542 20.1135 22.6749C20.682 22.3055 21.1361 21.789 21.4261 21.1822C21.7162 20.5754 21.8308 19.9017 21.7576 19.2349C22.4385 19.1386 23.0806 18.8639 23.6167 18.4394C24.1527 18.0149 24.563 17.4563 24.8045 16.8221C25.0375 16.1942 25.0889 15.515 24.953 14.8601C24.8172 14.2051 24.4994 13.6001 24.035 13.1125C24.5283 12.6526 24.8824 12.0671 25.0581 11.421C25.2338 10.7749 25.2242 10.0935 25.0304 9.45249" fill="#1F8F5B"/>
<path d="M25.0304 9.45309C24.8284 8.80667 24.4532 8.22583 23.9441 7.77177C23.4351 7.31772 22.8111 7.00725 22.1379 6.87309C22.2523 6.21271 22.1794 5.53403 21.927 4.91186C21.6747 4.2897 21.2528 3.74821 20.7079 3.34709C20.1121 2.90556 19.4018 2.6387 18.6587 2.57728C17.9156 2.51585 17.17 2.66235 16.5078 2.99989C16.201 2.36453 15.7234 1.82397 15.1268 1.43678C14.5302 1.0496 13.8373 0.830565 13.1233 0.80341C12.4093 0.776255 11.7014 0.942017 11.0762 1.28273C10.4511 1.62345 9.93253 2.12613 9.57681 2.73629C8.94835 2.44615 8.25345 2.32379 7.56181 2.3815C6.87017 2.43921 6.2061 2.67496 5.63618 3.06509C5.07524 3.44509 4.63156 3.97002 4.35394 4.58217C4.07632 5.19432 3.97551 5.86999 4.06257 6.53489C3.38406 6.64386 2.74784 6.93064 2.22067 7.36513C1.6935 7.79963 1.29483 8.36582 1.06648 9.00429C0.846429 9.63683 0.808926 10.3171 0.958145 10.9693C1.10736 11.6216 1.43745 12.2203 1.91168 12.6989C1.42786 13.1682 1.08565 13.7604 0.923072 14.4097C0.760492 15.059 0.783906 15.7399 0.990714 16.3769C1.20592 17.0195 1.59303 17.5932 2.11132 18.0375C2.62962 18.4818 3.25996 18.7804 3.93603 18.9019C3.83527 19.5646 3.92217 20.2418 4.18716 20.8589C4.45215 21.4761 4.88496 22.0093 5.43793 22.3999C6.0001 22.8007 6.65947 23.049 7.34985 23.1196C8.04024 23.1903 8.73736 23.0809 9.37125 22.8025C9.70346 23.3971 10.189 23.895 10.779 24.246C11.369 24.5969 12.0425 24.7885 12.7317 24.8014C13.4208 24.8143 14.1012 24.648 14.7043 24.3194C15.3074 23.9908 15.8119 23.5115 16.1668 22.9297C16.7896 23.2315 17.4821 23.3668 18.1748 23.322C18.8674 23.2773 19.536 23.0542 20.1135 22.6749C20.682 22.3055 21.1361 21.789 21.4261 21.1822C21.7162 20.5754 21.8308 19.9017 21.7576 19.2349C22.4385 19.1386 23.0806 18.8639 23.6167 18.4394C24.1527 18.0149 24.563 17.4563 24.8045 16.8221C25.0375 16.1942 25.0889 15.515 24.953 14.8601C24.8172 14.2051 24.4994 13.6001 24.035 13.1125C24.5283 12.6526 24.8824 12.0671 25.0581 11.421C25.2338 10.7749 25.2242 10.0935 25.0304 9.45249" stroke="#CEFC6C" stroke-width="1.5" stroke-linejoin="round"/>
<mask id="mask0_787_474" style="mask-type:alpha" maskUnits="userSpaceOnUse" x="0" y="0" width="26" height="25">
<path fill-rule="evenodd" clip-rule="evenodd" d="M25.0304 9.45309C24.8284 8.80667 24.4532 8.22583 23.9441 7.77177C23.4351 7.31772 22.8111 7.00725 22.1379 6.87309C22.2523 6.21271 22.1794 5.53403 21.927 4.91186C21.6747 4.2897 21.2528 3.74821 20.7079 3.34709C20.1121 2.90556 19.4018 2.6387 18.6587 2.57728C17.9156 2.51585 17.17 2.66235 16.5078 2.99989C16.201 2.36453 15.7234 1.82397 15.1268 1.43678C14.5302 1.0496 13.8373 0.830565 13.1233 0.80341C12.4093 0.776255 11.7014 0.942017 11.0762 1.28273C10.4511 1.62345 9.93253 2.12613 9.57681 2.73629C8.94835 2.44615 8.25345 2.32379 7.56181 2.3815C6.87017 2.43921 6.2061 2.67496 5.63618 3.06509C5.07524 3.44509 4.63156 3.97002 4.35394 4.58217C4.07632 5.19432 3.97551 5.86999 4.06257 6.53489C3.38406 6.64386 2.74784 6.93064 2.22067 7.36513C1.6935 7.79963 1.29483 8.36582 1.06648 9.00429C0.846429 9.63683 0.808926 10.3171 0.958145 10.9693C1.10736 11.6216 1.43745 12.2203 1.91168 12.6989C1.42786 13.1682 1.08565 13.7604 0.923072 14.4097C0.760492 15.059 0.783906 15.7399 0.990714 16.3769C1.20592 17.0195 1.59303 17.5932 2.11132 18.0375C2.62962 18.4818 3.25996 18.7804 3.93603 18.9019C3.83527 19.5646 3.92217 20.2418 4.18716 20.8589C4.45215 21.4761 4.88496 22.0093 5.43793 22.3999C6.0001 22.8007 6.65947 23.049 7.34985 23.1196C8.04024 23.1903 8.73736 23.0809 9.37125 22.8025C9.70346 23.3971 10.189 23.895 10.779 24.246C11.369 24.5969 12.0425 24.7885 12.7317 24.8014C13.4208 24.8143 14.1012 24.648 14.7043 24.3194C15.3074 23.9908 15.8119 23.5115 16.1668 22.9297C16.7896 23.2315 17.4821 23.3668 18.1748 23.322C18.8674 23.2773 19.536 23.0542 20.1135 22.6749C20.682 22.3055 21.1361 21.789 21.4261 21.1822C21.7162 20.5754 21.8308 19.9017 21.7576 19.2349C22.4385 19.1386 23.0806 18.8639 23.6167 18.4394C24.1527 18.0149 24.563 17.4563 24.8045 16.8221C25.0375 16.1942 25.0889 15.515 24.953 14.8601C24.8172 14.2051 24.4994 13.6001 24.035 13.1125C24.5283 12.6526 24.8824 12.0671 25.0581 11.421C25.2338 10.7749 25.2242 10.0935 25.0304 9.45249" fill="#E13F00"/>
</mask>
<g mask="url(#mask0_787_474)">
<path fill-rule="evenodd" clip-rule="evenodd" d="M21.0202 21.7687C20.8856 21.3378 20.6354 20.9506 20.2961 20.6479C19.9567 20.3451 19.5407 20.1382 19.0919 20.0487C19.1683 19.6085 19.1197 19.1562 18.9515 18.7414C18.7834 18.3267 18.5023 17.9657 18.1391 17.6983C17.7419 17.4039 17.2684 17.2259 16.773 17.1849C16.2776 17.1439 15.7805 17.2415 15.339 17.4665C15.1344 17.043 14.816 16.6826 14.4182 16.4246C14.0205 16.1665 13.5586 16.0205 13.0826 16.0024C12.6066 15.9843 12.1347 16.0948 11.7179 16.3219C11.3012 16.5491 10.9555 16.8842 10.7183 17.2909C10.2993 17.0976 9.83593 17.0161 9.3748 17.0547C8.91368 17.0933 8.47098 17.2506 8.09109 17.5109C7.71716 17.7643 7.42141 18.1142 7.23636 18.5223C7.0513 18.9304 6.98411 19.3808 7.04216 19.8241C6.58979 19.8967 6.16561 20.0879 5.81414 20.3775C5.46267 20.6672 5.19687 21.0446 5.04463 21.4703C4.89793 21.892 4.87293 22.3455 4.97241 22.7803C5.07189 23.2151 5.29195 23.6143 5.60809 23.9333C5.28554 24.2462 5.05739 24.641 4.949 25.0738C4.8406 25.5067 4.85619 25.9606 4.99405 26.3853C5.13755 26.8137 5.39564 27.1961 5.74119 27.4923C6.08673 27.7885 6.50695 27.9875 6.95766 28.0685C6.8906 28.5101 6.94854 28.9614 7.12511 29.3728C7.30167 29.7841 7.59003 30.1395 7.95845 30.3999C8.33326 30.6671 8.77283 30.8325 9.23307 30.8796C9.6933 30.9266 10.158 30.8537 10.5806 30.6681C10.802 31.0645 11.1257 31.3963 11.519 31.6302C11.9122 31.8642 12.3612 31.9918 12.8205 32.0004C13.2799 32.009 13.7334 31.8982 14.1354 31.6792C14.5374 31.4602 14.8737 31.1407 15.1103 30.7529C15.5255 30.9541 15.9871 31.0443 16.4489 31.0145C16.9107 30.9847 17.3564 30.8359 17.7414 30.5831C18.1205 30.3369 18.4234 29.9927 18.6169 29.5882C18.8104 29.1837 18.887 28.7345 18.8382 28.2899C19.2922 28.2258 19.7203 28.0426 20.0777 27.7596C20.435 27.4766 20.7085 27.1041 20.8695 26.6813C21.0248 26.2627 21.0591 25.8099 20.9686 25.3733C20.878 24.9367 20.6662 24.5334 20.3566 24.2083C20.6855 23.9017 20.9216 23.5114 21.0389 23.0807C21.1561 22.65 21.1498 22.1957 21.0206 21.7683" fill="#CEFC6C"/>
</g>
<path d="M13 14.8001C15.0193 14.8001 16.6562 13.1883 16.6562 11.2001C16.6562 9.21187 15.0193 7.6001 13 7.6001C10.9807 7.6001 9.34375 9.21187 9.34375 11.2001C9.34375 13.1883 10.9807 14.8001 13 14.8001Z" fill="#CEFC6C"/>
</g>
<defs>
<clipPath id="clip0_787_474">
<rect width="26" height="26" fill="white"/>
</clipPath>
</defs>
</svg>
