<svg width="30" height="30" viewBox="0 0 30 30" fill="none" xmlns="http://www.w3.org/2000/svg">
<path d="M11.25 21.25H8.75C7.0924 21.25 5.50269 20.5915 4.33058 19.4194C3.15848 18.2473 2.5 16.6576 2.5 15C2.5 13.3424 3.15848 11.7527 4.33058 10.5806C5.50269 9.40848 7.0924 8.75 8.75 8.75H11.25M18.75 8.75H21.25C22.9076 8.75 24.4973 9.40848 25.6694 10.5806C26.8415 11.7527 27.5 13.3424 27.5 15C27.5 16.6576 26.8415 18.2473 25.6694 19.4194C24.4973 20.5915 22.9076 21.25 21.25 21.25H18.75M10 15H20" stroke="black" stroke-width="2" stroke-linecap="round" stroke-linejoin="round"/>
</svg>
