<svg width="20" height="9" viewBox="0 0 20 9" fill="none" xmlns="http://www.w3.org/2000/svg">
<path d="M7.73699 0.5625H4.5C2.22183 0.5625 0.375 2.40933 0.375 4.6875C0.375 6.96567 2.22183 8.8125 4.5 8.8125H8.625C10.9032 8.8125 12.75 6.96567 12.75 4.6875C12.75 4.20538 12.6673 3.74257 12.5153 3.3125H11.375C11.2564 3.3125 11.1414 3.32751 11.0316 3.35573C11.2504 3.7503 11.375 4.20435 11.375 4.6875C11.375 6.20628 10.1438 7.4375 8.625 7.4375H4.5C2.98122 7.4375 1.75 6.20628 1.75 4.6875C1.75 3.16872 2.98122 1.9375 4.5 1.9375H6.6108C6.91019 1.41994 7.2915 0.9557 7.73699 0.5625Z" fill="#1F8F5B"/>
<path d="M11.375 0.5625C9.09683 0.5625 7.25 2.40933 7.25 4.6875C7.25 5.16962 7.33271 5.63243 7.48472 6.0625H8.9929C8.75892 5.65801 8.625 5.1884 8.625 4.6875C8.625 3.16872 9.85621 1.9375 11.375 1.9375H15.5C17.0188 1.9375 18.25 3.16872 18.25 4.6875C18.25 6.20628 17.0188 7.4375 15.5 7.4375H13.3892C13.0898 7.95506 12.7085 8.4193 12.263 8.8125H15.5C17.7782 8.8125 19.625 6.96567 19.625 4.6875C19.625 2.40933 17.7782 0.5625 15.5 0.5625H11.375Z" fill="#1F8F5B"/>
</svg>
