<svg width="344" height="195" viewBox="0 0 344 195" fill="none" xmlns="http://www.w3.org/2000/svg">
<rect y="28" width="244" height="61" rx="6" fill="#1F8F5B"/>
<path d="M51.25 64.75H48.75C47.0924 64.75 45.5027 64.0915 44.3306 62.9194C43.1585 61.7473 42.5 60.1576 42.5 58.5C42.5 56.8424 43.1585 55.2527 44.3306 54.0806C45.5027 52.9085 47.0924 52.25 48.75 52.25H51.25M58.75 52.25H61.25C62.9076 52.25 64.4973 52.9085 65.6694 54.0806C66.8415 55.2527 67.5 56.8424 67.5 58.5C67.5 60.1576 66.8415 61.7473 65.6694 62.9194C64.4973 64.0915 62.9076 64.75 61.25 64.75H58.75M50 58.5H60" stroke="white" stroke-width="2.5" stroke-linecap="round" stroke-linejoin="round"/>
<path d="M85.0348 64C84.3948 64 83.8561 63.888 83.4188 63.664C82.9814 63.44 82.6561 63.1093 82.4428 62.672C82.2294 62.224 82.1228 61.6693 82.1228 61.008V57.376H80.8588C80.7521 57.376 80.6614 57.3387 80.5868 57.264C80.5121 57.1893 80.4748 57.0987 80.4748 56.992V56.064C80.4748 55.9573 80.5121 55.8667 80.5868 55.792C80.6614 55.7173 80.7521 55.68 80.8588 55.68H82.1228V53.024C82.1228 52.9173 82.1548 52.8267 82.2188 52.752C82.2934 52.6773 82.3894 52.64 82.5068 52.64H83.8028C83.9094 52.64 84.0001 52.6773 84.0748 52.752C84.1494 52.8267 84.1868 52.9173 84.1868 53.024V55.68H86.1868C86.2934 55.68 86.3841 55.7173 86.4588 55.792C86.5334 55.8667 86.5708 55.9573 86.5708 56.064V56.992C86.5708 57.0987 86.5334 57.1893 86.4588 57.264C86.3841 57.3387 86.2934 57.376 86.1868 57.376H84.1868V60.848C84.1868 61.2853 84.2614 61.6267 84.4108 61.872C84.5708 62.1173 84.8428 62.24 85.2268 62.24H86.3308C86.4374 62.24 86.5281 62.2773 86.6028 62.352C86.6774 62.4267 86.7148 62.5173 86.7148 62.624V63.616C86.7148 63.7227 86.6774 63.8133 86.6028 63.888C86.5281 63.9627 86.4374 64 86.3308 64H85.0348ZM88.5181 64C88.4115 64 88.3208 63.9627 88.2461 63.888C88.1715 63.8133 88.1341 63.7227 88.1341 63.616V56.08C88.1341 55.9627 88.1715 55.8667 88.2461 55.792C88.3208 55.7173 88.4115 55.68 88.5181 55.68H89.8141C89.9208 55.68 90.0115 55.7173 90.0861 55.792C90.1715 55.8667 90.2141 55.9627 90.2141 56.08V56.736C90.4595 56.3947 90.7741 56.1333 91.1581 55.952C91.5528 55.7707 92.0061 55.68 92.5181 55.68H93.1741C93.2915 55.68 93.3821 55.7173 93.4461 55.792C93.5208 55.8667 93.5581 55.9573 93.5581 56.064V57.216C93.5581 57.3227 93.5208 57.4133 93.4461 57.488C93.3821 57.5627 93.2915 57.6 93.1741 57.6H91.9261C91.4141 57.6 91.0141 57.744 90.7261 58.032C90.4488 58.32 90.3101 58.7147 90.3101 59.216V63.616C90.3101 63.7227 90.2728 63.8133 90.1981 63.888C90.1235 63.9627 90.0275 64 89.9101 64H88.5181ZM95.19 64C95.0833 64 94.9927 63.9627 94.918 63.888C94.8433 63.8133 94.806 63.7227 94.806 63.616V56.064C94.806 55.9573 94.8433 55.8667 94.918 55.792C94.9927 55.7173 95.0833 55.68 95.19 55.68H96.518C96.6353 55.68 96.726 55.7173 96.79 55.792C96.8647 55.8667 96.902 55.9573 96.902 56.064V63.616C96.902 63.7227 96.8647 63.8133 96.79 63.888C96.726 63.9627 96.6353 64 96.518 64H95.19ZM95.126 54.304C95.0087 54.304 94.9127 54.272 94.838 54.208C94.774 54.1333 94.742 54.0373 94.742 53.92V52.768C94.742 52.6613 94.774 52.5707 94.838 52.496C94.9127 52.4213 95.0087 52.384 95.126 52.384H96.582C96.6993 52.384 96.7953 52.4213 96.87 52.496C96.9447 52.5707 96.982 52.6613 96.982 52.768V53.92C96.982 54.0373 96.9447 54.1333 96.87 54.208C96.7953 54.272 96.6993 54.304 96.582 54.304H95.126ZM99.4088 64C99.3021 64 99.2114 63.9627 99.1368 63.888C99.0621 63.8133 99.0247 63.7227 99.0247 63.616V56.064C99.0247 55.9573 99.0621 55.8667 99.1368 55.792C99.2114 55.7173 99.3021 55.68 99.4088 55.68H100.657C100.763 55.68 100.854 55.7173 100.929 55.792C101.003 55.8667 101.041 55.9573 101.041 56.064V56.608C101.265 56.3093 101.563 56.0587 101.937 55.856C102.321 55.6427 102.774 55.5307 103.297 55.52C104.513 55.4987 105.361 55.9733 105.841 56.944C106.086 56.5173 106.438 56.176 106.897 55.92C107.366 55.6533 107.883 55.52 108.449 55.52C109.003 55.52 109.505 55.648 109.953 55.904C110.411 56.16 110.769 56.5493 111.025 57.072C111.291 57.584 111.425 58.2347 111.425 59.024V63.616C111.425 63.7227 111.387 63.8133 111.313 63.888C111.238 63.9627 111.147 64 111.041 64H109.729C109.622 64 109.531 63.9627 109.457 63.888C109.382 63.8133 109.345 63.7227 109.345 63.616V59.152C109.345 58.672 109.275 58.2933 109.137 58.016C108.998 57.728 108.811 57.5253 108.577 57.408C108.342 57.2907 108.081 57.232 107.793 57.232C107.558 57.232 107.323 57.2907 107.089 57.408C106.854 57.5253 106.662 57.728 106.513 58.016C106.363 58.2933 106.289 58.672 106.289 59.152V63.616C106.289 63.7227 106.251 63.8133 106.177 63.888C106.102 63.9627 106.011 64 105.905 64H104.593C104.475 64 104.379 63.9627 104.305 63.888C104.241 63.8133 104.209 63.7227 104.209 63.616V59.152C104.209 58.672 104.134 58.2933 103.985 58.016C103.835 57.728 103.643 57.5253 103.409 57.408C103.174 57.2907 102.923 57.232 102.657 57.232C102.411 57.232 102.171 57.296 101.937 57.424C101.702 57.5413 101.51 57.7387 101.361 58.016C101.211 58.2933 101.137 58.672 101.137 59.152V63.616C101.137 63.7227 101.099 63.8133 101.025 63.888C100.95 63.9627 100.859 64 100.753 64H99.4088ZM113.846 64C113.74 64 113.649 63.9627 113.574 63.888C113.5 63.8133 113.462 63.7227 113.462 63.616V56.064C113.462 55.9573 113.5 55.8667 113.574 55.792C113.649 55.7173 113.74 55.68 113.846 55.68H115.094C115.201 55.68 115.292 55.7173 115.366 55.792C115.441 55.8667 115.478 55.9573 115.478 56.064V56.608C115.702 56.3093 116.001 56.0587 116.374 55.856C116.758 55.6427 117.212 55.5307 117.734 55.52C118.95 55.4987 119.798 55.9733 120.278 56.944C120.524 56.5173 120.876 56.176 121.334 55.92C121.804 55.6533 122.321 55.52 122.886 55.52C123.441 55.52 123.942 55.648 124.39 55.904C124.849 56.16 125.206 56.5493 125.462 57.072C125.729 57.584 125.862 58.2347 125.862 59.024V63.616C125.862 63.7227 125.825 63.8133 125.75 63.888C125.676 63.9627 125.585 64 125.478 64H124.166C124.06 64 123.969 63.9627 123.894 63.888C123.82 63.8133 123.782 63.7227 123.782 63.616V59.152C123.782 58.672 123.713 58.2933 123.574 58.016C123.436 57.728 123.249 57.5253 123.014 57.408C122.78 57.2907 122.518 57.232 122.23 57.232C121.996 57.232 121.761 57.2907 121.526 57.408C121.292 57.5253 121.1 57.728 120.95 58.016C120.801 58.2933 120.726 58.672 120.726 59.152V63.616C120.726 63.7227 120.689 63.8133 120.614 63.888C120.54 63.9627 120.449 64 120.342 64H119.03C118.913 64 118.817 63.9627 118.742 63.888C118.678 63.8133 118.646 63.7227 118.646 63.616V59.152C118.646 58.672 118.572 58.2933 118.422 58.016C118.273 57.728 118.081 57.5253 117.846 57.408C117.612 57.2907 117.361 57.232 117.094 57.232C116.849 57.232 116.609 57.296 116.374 57.424C116.14 57.5413 115.948 57.7387 115.798 58.016C115.649 58.2933 115.574 58.672 115.574 59.152V63.616C115.574 63.7227 115.537 63.8133 115.462 63.888C115.388 63.9627 115.297 64 115.19 64H113.846ZM131.58 64.16C130.726 64.16 130.006 64.0107 129.42 63.712C128.844 63.4133 128.401 62.992 128.092 62.448C127.793 61.904 127.622 61.2693 127.58 60.544C127.569 60.352 127.564 60.1173 127.564 59.84C127.564 59.5627 127.569 59.328 127.58 59.136C127.622 58.4 127.798 57.7653 128.108 57.232C128.428 56.688 128.876 56.2667 129.452 55.968C130.038 55.6693 130.748 55.52 131.58 55.52C132.412 55.52 133.116 55.6693 133.692 55.968C134.278 56.2667 134.726 56.688 135.036 57.232C135.356 57.7653 135.537 58.4 135.58 59.136C135.59 59.328 135.596 59.5627 135.596 59.84C135.596 60.1173 135.59 60.352 135.58 60.544C135.537 61.2693 135.361 61.904 135.052 62.448C134.753 62.992 134.31 63.4133 133.724 63.712C133.148 64.0107 132.433 64.16 131.58 64.16ZM131.58 62.576C132.145 62.576 132.582 62.4 132.892 62.048C133.201 61.6853 133.372 61.1573 133.404 60.464C133.414 60.304 133.42 60.096 133.42 59.84C133.42 59.584 133.414 59.376 133.404 59.216C133.372 58.5333 133.201 58.0107 132.892 57.648C132.582 57.2853 132.145 57.104 131.58 57.104C131.014 57.104 130.577 57.2853 130.268 57.648C129.958 58.0107 129.788 58.5333 129.756 59.216C129.745 59.376 129.74 59.584 129.74 59.84C129.74 60.096 129.745 60.304 129.756 60.464C129.788 61.1573 129.958 61.6853 130.268 62.048C130.577 62.4 131.014 62.576 131.58 62.576ZM137.547 64C137.44 64 137.35 63.9627 137.275 63.888C137.2 63.8133 137.163 63.7227 137.163 63.616V62.032C137.163 61.9147 137.2 61.8187 137.275 61.744C137.35 61.6693 137.44 61.632 137.547 61.632H139.147C139.254 61.632 139.344 61.6693 139.419 61.744C139.494 61.8187 139.531 61.9147 139.531 62.032V63.616C139.531 63.7227 139.494 63.8133 139.419 63.888C139.344 63.9627 139.254 64 139.147 64H137.547ZM141.94 64C141.834 64 141.743 63.9627 141.668 63.888C141.594 63.8133 141.556 63.7227 141.556 63.616V53.024C141.556 52.9173 141.594 52.8267 141.668 52.752C141.743 52.6773 141.834 52.64 141.94 52.64H143.268C143.375 52.64 143.466 52.6773 143.54 52.752C143.615 52.8267 143.652 52.9173 143.652 53.024V63.616C143.652 63.7227 143.615 63.8133 143.54 63.888C143.466 63.9627 143.375 64 143.268 64H141.94ZM146.159 64C146.052 64 145.961 63.9627 145.887 63.888C145.812 63.8133 145.775 63.7227 145.775 63.616V56.064C145.775 55.9573 145.812 55.8667 145.887 55.792C145.961 55.7173 146.052 55.68 146.159 55.68H147.487C147.604 55.68 147.695 55.7173 147.759 55.792C147.833 55.8667 147.871 55.9573 147.871 56.064V63.616C147.871 63.7227 147.833 63.8133 147.759 63.888C147.695 63.9627 147.604 64 147.487 64H146.159ZM146.095 54.304C145.977 54.304 145.881 54.272 145.807 54.208C145.743 54.1333 145.711 54.0373 145.711 53.92V52.768C145.711 52.6613 145.743 52.5707 145.807 52.496C145.881 52.4213 145.977 52.384 146.095 52.384H147.551C147.668 52.384 147.764 52.4213 147.839 52.496C147.913 52.5707 147.951 52.6613 147.951 52.768V53.92C147.951 54.0373 147.913 54.1333 147.839 54.208C147.764 54.272 147.668 54.304 147.551 54.304H146.095ZM150.378 64C150.271 64 150.18 63.9627 150.106 63.888C150.031 63.8133 149.993 63.7227 149.993 63.616V56.064C149.993 55.9573 150.031 55.8667 150.106 55.792C150.18 55.7173 150.271 55.68 150.378 55.68H151.69C151.796 55.68 151.887 55.7173 151.962 55.792C152.036 55.8667 152.074 55.9573 152.074 56.064V56.72C152.351 56.3787 152.703 56.096 153.13 55.872C153.567 55.6373 154.106 55.52 154.746 55.52C155.396 55.52 155.962 55.6693 156.442 55.968C156.922 56.256 157.29 56.6667 157.546 57.2C157.812 57.7333 157.946 58.3733 157.946 59.12V63.616C157.946 63.7227 157.908 63.8133 157.834 63.888C157.759 63.9627 157.668 64 157.562 64H156.154C156.047 64 155.956 63.9627 155.882 63.888C155.807 63.8133 155.77 63.7227 155.77 63.616V59.216C155.77 58.5973 155.615 58.112 155.306 57.76C155.007 57.408 154.57 57.232 153.994 57.232C153.439 57.232 152.996 57.408 152.666 57.76C152.335 58.112 152.17 58.5973 152.17 59.216V63.616C152.17 63.7227 152.132 63.8133 152.058 63.888C151.983 63.9627 151.892 64 151.786 64H150.378ZM160.378 64C160.271 64 160.181 63.9627 160.106 63.888C160.031 63.8133 159.994 63.7227 159.994 63.616V53.024C159.994 52.9173 160.031 52.8267 160.106 52.752C160.181 52.6773 160.271 52.64 160.378 52.64H161.674C161.791 52.64 161.882 52.6773 161.946 52.752C162.021 52.8267 162.058 52.9173 162.058 53.024V58.496L164.746 55.952C164.842 55.8667 164.927 55.8027 165.002 55.76C165.077 55.7067 165.189 55.68 165.338 55.68H166.826C166.933 55.68 167.018 55.712 167.082 55.776C167.146 55.84 167.178 55.9253 167.178 56.032C167.178 56.0747 167.167 56.1227 167.146 56.176C167.125 56.2293 167.082 56.2773 167.018 56.32L163.722 59.408L167.418 63.376C167.525 63.4827 167.578 63.5733 167.578 63.648C167.578 63.7547 167.541 63.84 167.466 63.904C167.402 63.968 167.322 64 167.226 64H165.706C165.546 64 165.429 63.9787 165.354 63.936C165.29 63.8827 165.21 63.8133 165.114 63.728L162.058 60.512V63.616C162.058 63.7227 162.021 63.8133 161.946 63.888C161.882 63.9627 161.791 64 161.674 64H160.378ZM168.439 65.344C168.353 65.344 168.279 65.312 168.215 65.248C168.151 65.184 168.119 65.104 168.119 65.008C168.119 64.9653 168.129 64.9067 168.151 64.832L173.591 51.76C173.633 51.6853 173.692 51.6107 173.767 51.536C173.841 51.4613 173.948 51.424 174.087 51.424H175.127C175.212 51.424 175.287 51.456 175.351 51.52C175.425 51.584 175.463 51.664 175.463 51.76C175.463 51.8027 175.447 51.8613 175.415 51.936L169.959 65.008C169.927 65.072 169.873 65.1413 169.799 65.216C169.724 65.3013 169.612 65.344 169.463 65.344H168.439ZM178.456 64.16C177.902 64.16 177.4 64.0533 176.952 63.84C176.504 63.616 176.147 63.3227 175.88 62.96C175.624 62.5867 175.496 62.1707 175.496 61.712C175.496 60.9653 175.795 60.3733 176.392 59.936C177 59.488 177.8 59.1893 178.792 59.04L180.984 58.72V58.384C180.984 57.936 180.872 57.5893 180.648 57.344C180.424 57.0987 180.04 56.976 179.496 56.976C179.112 56.976 178.798 57.056 178.552 57.216C178.318 57.3653 178.142 57.568 178.024 57.824C177.939 57.9627 177.816 58.032 177.656 58.032H176.392C176.275 58.032 176.184 58 176.12 57.936C176.067 57.872 176.04 57.7867 176.04 57.68C176.051 57.5093 176.12 57.3013 176.248 57.056C176.376 56.8107 176.579 56.576 176.856 56.352C177.134 56.1173 177.491 55.92 177.928 55.76C178.366 55.6 178.894 55.52 179.512 55.52C180.184 55.52 180.75 55.6053 181.208 55.776C181.678 55.936 182.051 56.1547 182.328 56.432C182.606 56.7093 182.808 57.0347 182.936 57.408C183.064 57.7813 183.128 58.176 183.128 58.592V63.616C183.128 63.7227 183.091 63.8133 183.016 63.888C182.942 63.9627 182.851 64 182.744 64H181.448C181.331 64 181.235 63.9627 181.16 63.888C181.096 63.8133 181.064 63.7227 181.064 63.616V62.992C180.926 63.1947 180.739 63.3867 180.504 63.568C180.27 63.7387 179.982 63.8827 179.64 64C179.31 64.1067 178.915 64.16 178.456 64.16ZM179 62.64C179.374 62.64 179.71 62.56 180.008 62.4C180.318 62.24 180.558 61.9947 180.728 61.664C180.91 61.3227 181 60.896 181 60.384V60.048L179.4 60.304C178.771 60.4 178.302 60.5547 177.992 60.768C177.683 60.9813 177.528 61.2427 177.528 61.552C177.528 61.7867 177.598 61.9893 177.736 62.16C177.886 62.32 178.072 62.4427 178.296 62.528C178.52 62.6027 178.755 62.64 179 62.64ZM185.581 67.04C185.474 67.04 185.384 67.0027 185.309 66.928C185.234 66.8533 185.197 66.7627 185.197 66.656V56.064C185.197 55.9573 185.234 55.8667 185.309 55.792C185.384 55.7173 185.474 55.68 185.581 55.68H186.845C186.962 55.68 187.053 55.7173 187.117 55.792C187.192 55.8667 187.229 55.9573 187.229 56.064V56.704C187.485 56.3627 187.821 56.08 188.237 55.856C188.653 55.632 189.17 55.52 189.789 55.52C190.354 55.52 190.845 55.6107 191.261 55.792C191.677 55.9733 192.024 56.2347 192.301 56.576C192.578 56.9067 192.792 57.3013 192.941 57.76C193.09 58.2187 193.176 58.7253 193.197 59.28C193.208 59.4613 193.213 59.648 193.213 59.84C193.213 60.032 193.208 60.224 193.197 60.416C193.186 60.9493 193.106 61.4453 192.957 61.904C192.808 62.352 192.589 62.7467 192.301 63.088C192.024 63.4187 191.677 63.68 191.261 63.872C190.845 64.064 190.354 64.16 189.789 64.16C189.213 64.16 188.722 64.0587 188.317 63.856C187.912 63.6427 187.581 63.3653 187.325 63.024V66.656C187.325 66.7627 187.288 66.8533 187.213 66.928C187.149 67.0027 187.058 67.04 186.941 67.04H185.581ZM189.197 62.448C189.656 62.448 190.013 62.352 190.269 62.16C190.525 61.9573 190.706 61.696 190.813 61.376C190.93 61.056 191 60.704 191.021 60.32C191.042 60 191.042 59.68 191.021 59.36C191 58.976 190.93 58.624 190.813 58.304C190.706 57.984 190.525 57.728 190.269 57.536C190.013 57.3333 189.656 57.232 189.197 57.232C188.76 57.232 188.402 57.3333 188.125 57.536C187.858 57.7387 187.661 58 187.533 58.32C187.416 58.6293 187.346 58.9493 187.325 59.28C187.314 59.472 187.309 59.6747 187.309 59.888C187.309 60.1013 187.314 60.3093 187.325 60.512C187.336 60.832 187.41 61.1413 187.549 61.44C187.688 61.728 187.89 61.968 188.157 62.16C188.424 62.352 188.77 62.448 189.197 62.448ZM195.409 67.04C195.302 67.04 195.212 67.0027 195.137 66.928C195.062 66.8533 195.025 66.7627 195.025 66.656V56.064C195.025 55.9573 195.062 55.8667 195.137 55.792C195.212 55.7173 195.302 55.68 195.409 55.68H196.673C196.79 55.68 196.881 55.7173 196.945 55.792C197.02 55.8667 197.057 55.9573 197.057 56.064V56.704C197.313 56.3627 197.649 56.08 198.065 55.856C198.481 55.632 198.998 55.52 199.617 55.52C200.182 55.52 200.673 55.6107 201.089 55.792C201.505 55.9733 201.852 56.2347 202.129 56.576C202.406 56.9067 202.62 57.3013 202.769 57.76C202.918 58.2187 203.004 58.7253 203.025 59.28C203.036 59.4613 203.041 59.648 203.041 59.84C203.041 60.032 203.036 60.224 203.025 60.416C203.014 60.9493 202.934 61.4453 202.785 61.904C202.636 62.352 202.417 62.7467 202.129 63.088C201.852 63.4187 201.505 63.68 201.089 63.872C200.673 64.064 200.182 64.16 199.617 64.16C199.041 64.16 198.55 64.0587 198.145 63.856C197.74 63.6427 197.409 63.3653 197.153 63.024V66.656C197.153 66.7627 197.116 66.8533 197.041 66.928C196.977 67.0027 196.886 67.04 196.769 67.04H195.409ZM199.025 62.448C199.484 62.448 199.841 62.352 200.097 62.16C200.353 61.9573 200.534 61.696 200.641 61.376C200.758 61.056 200.828 60.704 200.849 60.32C200.87 60 200.87 59.68 200.849 59.36C200.828 58.976 200.758 58.624 200.641 58.304C200.534 57.984 200.353 57.728 200.097 57.536C199.841 57.3333 199.484 57.232 199.025 57.232C198.588 57.232 198.23 57.3333 197.953 57.536C197.686 57.7387 197.489 58 197.361 58.32C197.244 58.6293 197.174 58.9493 197.153 59.28C197.142 59.472 197.137 59.6747 197.137 59.888C197.137 60.1013 197.142 60.3093 197.153 60.512C197.164 60.832 197.238 61.1413 197.377 61.44C197.516 61.728 197.718 61.968 197.985 62.16C198.252 62.352 198.598 62.448 199.025 62.448Z" fill="white"/>
<g filter="url(#filter0_d_365_75)">
<rect x="144" y="79" width="197" height="110" rx="6" fill="white"/>
</g>
<path d="M200.532 168.91C200.411 168.91 200.313 168.868 200.238 168.784C200.163 168.709 200.103 168.644 200.056 168.588L199.482 167.804C198.978 168.028 198.395 168.14 197.732 168.14C196.929 168.14 196.243 168.005 195.674 167.734C195.114 167.454 194.675 167.029 194.358 166.46C194.05 165.881 193.882 165.158 193.854 164.29C193.845 163.879 193.84 163.487 193.84 163.114C193.84 162.731 193.845 162.335 193.854 161.924C193.882 161.065 194.059 160.351 194.386 159.782C194.713 159.203 195.161 158.774 195.73 158.494C196.309 158.205 196.976 158.06 197.732 158.06C198.497 158.06 199.165 158.205 199.734 158.494C200.313 158.774 200.765 159.203 201.092 159.782C201.419 160.351 201.591 161.065 201.61 161.924C201.629 162.335 201.638 162.731 201.638 163.114C201.638 163.487 201.629 163.879 201.61 164.29C201.563 165.578 201.227 166.535 200.602 167.16L201.526 168.476C201.535 168.485 201.545 168.499 201.554 168.518C201.563 168.546 201.568 168.583 201.568 168.63C201.577 168.705 201.554 168.77 201.498 168.826C201.442 168.882 201.372 168.91 201.288 168.91H200.532ZM197.732 166.95C198.441 166.95 199.025 166.735 199.482 166.306C199.939 165.877 200.187 165.181 200.224 164.22C200.243 163.8 200.252 163.427 200.252 163.1C200.252 162.764 200.243 162.391 200.224 161.98C200.205 161.336 200.084 160.813 199.86 160.412C199.645 160.011 199.356 159.717 198.992 159.53C198.628 159.343 198.208 159.25 197.732 159.25C197.275 159.25 196.859 159.343 196.486 159.53C196.122 159.717 195.833 160.011 195.618 160.412C195.403 160.813 195.282 161.336 195.254 161.98C195.245 162.391 195.24 162.764 195.24 163.1C195.24 163.427 195.245 163.8 195.254 164.22C195.291 165.181 195.539 165.877 195.996 166.306C196.453 166.735 197.032 166.95 197.732 166.95ZM206.227 168.14C205.629 168.14 205.121 168.009 204.701 167.748C204.29 167.477 203.977 167.104 203.763 166.628C203.548 166.152 203.441 165.606 203.441 164.99V161.042C203.441 160.949 203.469 160.874 203.525 160.818C203.59 160.753 203.669 160.72 203.763 160.72H204.463C204.556 160.72 204.631 160.753 204.687 160.818C204.752 160.874 204.785 160.949 204.785 161.042V164.92C204.785 166.311 205.391 167.006 206.605 167.006C207.183 167.006 207.645 166.824 207.991 166.46C208.345 166.087 208.523 165.573 208.523 164.92V161.042C208.523 160.949 208.551 160.874 208.607 160.818C208.672 160.753 208.751 160.72 208.845 160.72H209.531C209.633 160.72 209.713 160.753 209.769 160.818C209.825 160.874 209.853 160.949 209.853 161.042V167.678C209.853 167.771 209.825 167.851 209.769 167.916C209.713 167.972 209.633 168 209.531 168H208.887C208.793 168 208.714 167.972 208.649 167.916C208.593 167.851 208.565 167.771 208.565 167.678V167.062C208.313 167.389 208.005 167.65 207.641 167.846C207.286 168.042 206.815 168.14 206.227 168.14ZM212.254 168C212.161 168 212.082 167.972 212.016 167.916C211.96 167.851 211.932 167.771 211.932 167.678V161.042C211.932 160.949 211.96 160.874 212.016 160.818C212.082 160.753 212.161 160.72 212.254 160.72H212.926C213.02 160.72 213.094 160.753 213.15 160.818C213.206 160.874 213.234 160.949 213.234 161.042V167.678C213.234 167.771 213.206 167.851 213.15 167.916C213.094 167.972 213.02 168 212.926 168H212.254ZM212.142 159.362C212.049 159.362 211.97 159.334 211.904 159.278C211.848 159.213 211.82 159.133 211.82 159.04V158.284C211.82 158.191 211.848 158.116 211.904 158.06C211.97 157.995 212.049 157.962 212.142 157.962H213.024C213.118 157.962 213.192 157.995 213.248 158.06C213.314 158.116 213.346 158.191 213.346 158.284V159.04C213.346 159.133 213.314 159.213 213.248 159.278C213.192 159.334 213.118 159.362 213.024 159.362H212.142ZM218.263 168.14C217.6 168.14 217.026 168.014 216.541 167.762C216.065 167.501 215.696 167.132 215.435 166.656C215.174 166.171 215.034 165.592 215.015 164.92C215.006 164.78 215.001 164.593 215.001 164.36C215.001 164.127 215.006 163.94 215.015 163.8C215.034 163.128 215.174 162.554 215.435 162.078C215.696 161.593 216.065 161.224 216.541 160.972C217.026 160.711 217.6 160.58 218.263 160.58C218.804 160.58 219.266 160.655 219.649 160.804C220.041 160.953 220.363 161.145 220.615 161.378C220.867 161.611 221.054 161.863 221.175 162.134C221.306 162.405 221.376 162.661 221.385 162.904C221.394 162.997 221.366 163.072 221.301 163.128C221.236 163.184 221.156 163.212 221.063 163.212H220.391C220.298 163.212 220.228 163.193 220.181 163.156C220.134 163.109 220.088 163.035 220.041 162.932C219.873 162.475 219.644 162.153 219.355 161.966C219.066 161.779 218.706 161.686 218.277 161.686C217.717 161.686 217.26 161.859 216.905 162.204C216.56 162.549 216.373 163.105 216.345 163.87C216.336 164.206 216.336 164.533 216.345 164.85C216.373 165.625 216.56 166.185 216.905 166.53C217.26 166.866 217.717 167.034 218.277 167.034C218.706 167.034 219.066 166.941 219.355 166.754C219.644 166.567 219.873 166.245 220.041 165.788C220.088 165.685 220.134 165.615 220.181 165.578C220.228 165.531 220.298 165.508 220.391 165.508H221.063C221.156 165.508 221.236 165.536 221.301 165.592C221.366 165.648 221.394 165.723 221.385 165.816C221.376 166.012 221.334 166.213 221.259 166.418C221.184 166.623 221.063 166.833 220.895 167.048C220.736 167.253 220.536 167.44 220.293 167.608C220.05 167.767 219.756 167.897 219.411 168C219.075 168.093 218.692 168.14 218.263 168.14ZM223.384 168C223.29 168 223.211 167.972 223.146 167.916C223.09 167.851 223.062 167.771 223.062 167.678V158.382C223.062 158.289 223.09 158.214 223.146 158.158C223.211 158.093 223.29 158.06 223.384 158.06H224.042C224.135 158.06 224.21 158.093 224.266 158.158C224.331 158.214 224.364 158.289 224.364 158.382V163.254L227.122 160.958C227.234 160.865 227.318 160.804 227.374 160.776C227.439 160.739 227.542 160.72 227.682 160.72H228.424C228.508 160.72 228.578 160.748 228.634 160.804C228.69 160.86 228.718 160.93 228.718 161.014C228.718 161.051 228.704 161.093 228.676 161.14C228.657 161.187 228.615 161.233 228.55 161.28L225.316 163.968L228.9 167.454C229.012 167.547 229.068 167.631 229.068 167.706C229.068 167.79 229.04 167.86 228.984 167.916C228.928 167.972 228.858 168 228.774 168H228.046C227.906 168 227.803 167.986 227.738 167.958C227.672 167.921 227.588 167.855 227.486 167.762L224.364 164.78V167.678C224.364 167.771 224.331 167.851 224.266 167.916C224.21 167.972 224.135 168 224.042 168H223.384ZM236.893 168.14C236.081 168.14 235.4 168.019 234.849 167.776C234.299 167.524 233.874 167.202 233.575 166.81C233.286 166.409 233.132 165.984 233.113 165.536C233.113 165.461 233.141 165.396 233.197 165.34C233.263 165.275 233.337 165.242 233.421 165.242H234.135C234.247 165.242 234.331 165.27 234.387 165.326C234.443 165.382 234.481 165.447 234.499 165.522C234.546 165.746 234.658 165.97 234.835 166.194C235.022 166.409 235.279 166.591 235.605 166.74C235.941 166.88 236.371 166.95 236.893 166.95C237.696 166.95 238.284 166.81 238.657 166.53C239.04 166.241 239.231 165.858 239.231 165.382C239.231 165.055 239.129 164.794 238.923 164.598C238.727 164.393 238.424 164.211 238.013 164.052C237.603 163.893 237.071 163.721 236.417 163.534C235.736 163.338 235.171 163.123 234.723 162.89C234.275 162.657 233.939 162.367 233.715 162.022C233.501 161.677 233.393 161.238 233.393 160.706C233.393 160.202 233.529 159.754 233.799 159.362C234.07 158.961 234.457 158.643 234.961 158.41C235.475 158.177 236.095 158.06 236.823 158.06C237.402 158.06 237.906 158.139 238.335 158.298C238.774 158.447 239.138 158.653 239.427 158.914C239.717 159.166 239.936 159.441 240.085 159.74C240.235 160.029 240.314 160.314 240.323 160.594C240.323 160.659 240.3 160.725 240.253 160.79C240.207 160.846 240.132 160.874 240.029 160.874H239.287C239.222 160.874 239.152 160.855 239.077 160.818C239.012 160.781 238.961 160.711 238.923 160.608C238.867 160.225 238.653 159.903 238.279 159.642C237.906 159.381 237.421 159.25 236.823 159.25C236.217 159.25 235.722 159.367 235.339 159.6C234.966 159.833 234.779 160.197 234.779 160.692C234.779 161.009 234.868 161.275 235.045 161.49C235.223 161.695 235.503 161.877 235.885 162.036C236.268 162.195 236.767 162.363 237.383 162.54C238.13 162.745 238.741 162.965 239.217 163.198C239.693 163.422 240.043 163.707 240.267 164.052C240.501 164.388 240.617 164.822 240.617 165.354C240.617 165.942 240.463 166.446 240.155 166.866C239.847 167.277 239.413 167.594 238.853 167.818C238.303 168.033 237.649 168.14 236.893 168.14ZM242.606 168C242.513 168 242.434 167.972 242.368 167.916C242.312 167.851 242.284 167.771 242.284 167.678V158.382C242.284 158.289 242.312 158.214 242.368 158.158C242.434 158.093 242.513 158.06 242.606 158.06H243.306C243.409 158.06 243.488 158.093 243.544 158.158C243.6 158.214 243.628 158.289 243.628 158.382V161.644C243.88 161.327 244.188 161.07 244.552 160.874C244.916 160.678 245.378 160.58 245.938 160.58C246.545 160.58 247.058 160.715 247.478 160.986C247.908 161.247 248.23 161.616 248.444 162.092C248.668 162.559 248.78 163.105 248.78 163.73V167.678C248.78 167.771 248.752 167.851 248.696 167.916C248.64 167.972 248.561 168 248.458 168H247.758C247.665 168 247.586 167.972 247.52 167.916C247.464 167.851 247.436 167.771 247.436 167.678V163.8C247.436 163.147 247.278 162.638 246.96 162.274C246.643 161.901 246.176 161.714 245.56 161.714C244.982 161.714 244.515 161.901 244.16 162.274C243.806 162.638 243.628 163.147 243.628 163.8V167.678C243.628 167.771 243.6 167.851 243.544 167.916C243.488 167.972 243.409 168 243.306 168H242.606ZM252.832 168.14C252.365 168.14 251.94 168.047 251.558 167.86C251.175 167.673 250.867 167.421 250.634 167.104C250.4 166.787 250.284 166.427 250.284 166.026C250.284 165.382 250.545 164.869 251.068 164.486C251.59 164.103 252.272 163.851 253.112 163.73L255.198 163.436V163.03C255.198 162.582 255.067 162.232 254.806 161.98C254.554 161.728 254.138 161.602 253.56 161.602C253.14 161.602 252.799 161.686 252.538 161.854C252.286 162.022 252.108 162.237 252.006 162.498C251.95 162.638 251.852 162.708 251.712 162.708H251.082C250.979 162.708 250.9 162.68 250.844 162.624C250.797 162.559 250.774 162.484 250.774 162.4C250.774 162.26 250.825 162.087 250.928 161.882C251.04 161.677 251.208 161.476 251.432 161.28C251.656 161.084 251.94 160.921 252.286 160.79C252.64 160.65 253.07 160.58 253.574 160.58C254.134 160.58 254.605 160.655 254.988 160.804C255.37 160.944 255.669 161.135 255.884 161.378C256.108 161.621 256.266 161.896 256.36 162.204C256.462 162.512 256.514 162.825 256.514 163.142V167.678C256.514 167.771 256.481 167.851 256.416 167.916C256.36 167.972 256.285 168 256.192 168H255.548C255.445 168 255.366 167.972 255.31 167.916C255.254 167.851 255.226 167.771 255.226 167.678V167.076C255.104 167.244 254.941 167.412 254.736 167.58C254.53 167.739 254.274 167.874 253.966 167.986C253.658 168.089 253.28 168.14 252.832 168.14ZM253.126 167.09C253.508 167.09 253.858 167.011 254.176 166.852C254.493 166.684 254.74 166.427 254.918 166.082C255.104 165.737 255.198 165.303 255.198 164.78V164.388L253.574 164.626C252.911 164.719 252.412 164.878 252.076 165.102C251.74 165.317 251.572 165.592 251.572 165.928C251.572 166.189 251.646 166.409 251.796 166.586C251.954 166.754 252.15 166.88 252.384 166.964C252.626 167.048 252.874 167.09 253.126 167.09ZM258.848 168C258.755 168 258.676 167.972 258.61 167.916C258.554 167.851 258.526 167.771 258.526 167.678V161.056C258.526 160.963 258.554 160.883 258.61 160.818C258.676 160.753 258.755 160.72 258.848 160.72H259.492C259.586 160.72 259.665 160.753 259.73 160.818C259.796 160.883 259.828 160.963 259.828 161.056V161.672C260.015 161.355 260.272 161.117 260.598 160.958C260.925 160.799 261.317 160.72 261.774 160.72H262.334C262.428 160.72 262.502 160.753 262.558 160.818C262.614 160.874 262.642 160.949 262.642 161.042V161.616C262.642 161.709 262.614 161.784 262.558 161.84C262.502 161.896 262.428 161.924 262.334 161.924H261.494C260.99 161.924 260.594 162.073 260.304 162.372C260.015 162.661 259.87 163.058 259.87 163.562V167.678C259.87 167.771 259.838 167.851 259.772 167.916C259.707 167.972 259.628 168 259.534 168H258.848ZM266.606 168.14C265.645 168.14 264.879 167.846 264.31 167.258C263.741 166.661 263.428 165.849 263.372 164.822C263.363 164.701 263.358 164.547 263.358 164.36C263.358 164.164 263.363 164.005 263.372 163.884C263.409 163.221 263.563 162.643 263.834 162.148C264.105 161.644 264.473 161.257 264.94 160.986C265.416 160.715 265.971 160.58 266.606 160.58C267.315 160.58 267.908 160.729 268.384 161.028C268.869 161.327 269.238 161.751 269.49 162.302C269.742 162.853 269.868 163.497 269.868 164.234V164.472C269.868 164.575 269.835 164.654 269.77 164.71C269.714 164.766 269.639 164.794 269.546 164.794H264.702C264.702 164.803 264.702 164.822 264.702 164.85C264.702 164.878 264.702 164.901 264.702 164.92C264.721 165.303 264.805 165.662 264.954 165.998C265.103 166.325 265.318 166.591 265.598 166.796C265.878 167.001 266.214 167.104 266.606 167.104C266.942 167.104 267.222 167.053 267.446 166.95C267.67 166.847 267.852 166.735 267.992 166.614C268.132 166.483 268.225 166.385 268.272 166.32C268.356 166.199 268.421 166.129 268.468 166.11C268.515 166.082 268.589 166.068 268.692 166.068H269.364C269.457 166.068 269.532 166.096 269.588 166.152C269.653 166.199 269.681 166.269 269.672 166.362C269.663 166.502 269.588 166.675 269.448 166.88C269.308 167.076 269.107 167.272 268.846 167.468C268.585 167.664 268.267 167.827 267.894 167.958C267.521 168.079 267.091 168.14 266.606 168.14ZM264.702 163.828H268.538V163.786C268.538 163.366 268.459 162.993 268.3 162.666C268.151 162.339 267.931 162.083 267.642 161.896C267.353 161.7 267.007 161.602 266.606 161.602C266.205 161.602 265.859 161.7 265.57 161.896C265.29 162.083 265.075 162.339 264.926 162.666C264.777 162.993 264.702 163.366 264.702 163.786V163.828Z" fill="#050505"/>
<path d="M168.438 168.14C167.794 168.14 167.248 168.042 166.8 167.846C166.361 167.641 166.002 167.361 165.722 167.006C165.442 166.651 165.237 166.245 165.106 165.788C164.985 165.331 164.915 164.845 164.896 164.332C164.887 164.08 164.877 163.814 164.868 163.534C164.868 163.254 164.868 162.974 164.868 162.694C164.877 162.405 164.887 162.129 164.896 161.868C164.905 161.355 164.975 160.869 165.106 160.412C165.246 159.945 165.451 159.539 165.722 159.194C166.002 158.839 166.366 158.564 166.814 158.368C167.262 158.163 167.803 158.06 168.438 158.06C169.082 158.06 169.623 158.163 170.062 158.368C170.51 158.564 170.874 158.839 171.154 159.194C171.434 159.539 171.639 159.945 171.77 160.412C171.91 160.869 171.985 161.355 171.994 161.868C172.003 162.129 172.008 162.405 172.008 162.694C172.017 162.974 172.017 163.254 172.008 163.534C172.008 163.814 172.003 164.08 171.994 164.332C171.985 164.845 171.91 165.331 171.77 165.788C171.639 166.245 171.434 166.651 171.154 167.006C170.883 167.361 170.524 167.641 170.076 167.846C169.637 168.042 169.091 168.14 168.438 168.14ZM168.438 166.95C169.166 166.95 169.703 166.712 170.048 166.236C170.403 165.751 170.585 165.093 170.594 164.262C170.613 163.991 170.622 163.73 170.622 163.478C170.622 163.217 170.622 162.96 170.622 162.708C170.622 162.447 170.613 162.19 170.594 161.938C170.585 161.126 170.403 160.477 170.048 159.992C169.703 159.497 169.166 159.25 168.438 159.25C167.719 159.25 167.183 159.497 166.828 159.992C166.483 160.477 166.301 161.126 166.282 161.938C166.282 162.19 166.277 162.447 166.268 162.708C166.268 162.96 166.268 163.217 166.268 163.478C166.277 163.73 166.282 163.991 166.282 164.262C166.301 165.093 166.487 165.751 166.842 166.236C167.197 166.712 167.729 166.95 168.438 166.95ZM173.895 168C173.801 168 173.722 167.972 173.657 167.916C173.601 167.851 173.573 167.771 173.573 167.678V167.23C173.573 167.146 173.596 167.053 173.643 166.95C173.689 166.847 173.783 166.735 173.923 166.614L176.891 163.646C177.367 163.245 177.74 162.904 178.011 162.624C178.291 162.335 178.487 162.059 178.599 161.798C178.72 161.537 178.781 161.266 178.781 160.986C178.781 160.454 178.631 160.034 178.333 159.726C178.034 159.409 177.591 159.25 177.003 159.25C176.629 159.25 176.307 159.329 176.037 159.488C175.766 159.637 175.551 159.847 175.393 160.118C175.243 160.379 175.145 160.678 175.099 161.014C175.08 161.135 175.029 161.219 174.945 161.266C174.87 161.313 174.8 161.336 174.735 161.336H174.007C173.923 161.336 173.853 161.313 173.797 161.266C173.741 161.21 173.713 161.145 173.713 161.07C173.722 160.715 173.797 160.361 173.937 160.006C174.077 159.642 174.282 159.315 174.553 159.026C174.833 158.737 175.173 158.503 175.575 158.326C175.985 158.139 176.461 158.046 177.003 158.046C177.74 158.046 178.342 158.181 178.809 158.452C179.285 158.713 179.635 159.063 179.859 159.502C180.083 159.941 180.195 160.421 180.195 160.944C180.195 161.355 180.125 161.733 179.985 162.078C179.845 162.414 179.639 162.745 179.369 163.072C179.107 163.389 178.781 163.716 178.389 164.052L175.701 166.782H180.069C180.171 166.782 180.251 166.81 180.307 166.866C180.372 166.922 180.405 167.001 180.405 167.104V167.678C180.405 167.771 180.372 167.851 180.307 167.916C180.251 167.972 180.171 168 180.069 168H173.895ZM182.364 168C182.27 168 182.191 167.972 182.126 167.916C182.07 167.851 182.042 167.771 182.042 167.678V166.67C182.042 166.577 182.07 166.502 182.126 166.446C182.191 166.381 182.27 166.348 182.364 166.348H183.372C183.465 166.348 183.54 166.381 183.596 166.446C183.661 166.502 183.694 166.577 183.694 166.67V167.678C183.694 167.771 183.661 167.851 183.596 167.916C183.54 167.972 183.465 168 183.372 168H182.364Z" fill="#050505"/>
<path d="M197.368 146.14C196.556 146.14 195.875 146.019 195.324 145.776C194.773 145.524 194.349 145.202 194.05 144.81C193.761 144.409 193.607 143.984 193.588 143.536C193.588 143.461 193.616 143.396 193.672 143.34C193.737 143.275 193.812 143.242 193.896 143.242H194.61C194.722 143.242 194.806 143.27 194.862 143.326C194.918 143.382 194.955 143.447 194.974 143.522C195.021 143.746 195.133 143.97 195.31 144.194C195.497 144.409 195.753 144.591 196.08 144.74C196.416 144.88 196.845 144.95 197.368 144.95C198.171 144.95 198.759 144.81 199.132 144.53C199.515 144.241 199.706 143.858 199.706 143.382C199.706 143.055 199.603 142.794 199.398 142.598C199.202 142.393 198.899 142.211 198.488 142.052C198.077 141.893 197.545 141.721 196.892 141.534C196.211 141.338 195.646 141.123 195.198 140.89C194.75 140.657 194.414 140.367 194.19 140.022C193.975 139.677 193.868 139.238 193.868 138.706C193.868 138.202 194.003 137.754 194.274 137.362C194.545 136.961 194.932 136.643 195.436 136.41C195.949 136.177 196.57 136.06 197.298 136.06C197.877 136.06 198.381 136.139 198.81 136.298C199.249 136.447 199.613 136.653 199.902 136.914C200.191 137.166 200.411 137.441 200.56 137.74C200.709 138.029 200.789 138.314 200.798 138.594C200.798 138.659 200.775 138.725 200.728 138.79C200.681 138.846 200.607 138.874 200.504 138.874H199.762C199.697 138.874 199.627 138.855 199.552 138.818C199.487 138.781 199.435 138.711 199.398 138.608C199.342 138.225 199.127 137.903 198.754 137.642C198.381 137.381 197.895 137.25 197.298 137.25C196.691 137.25 196.197 137.367 195.814 137.6C195.441 137.833 195.254 138.197 195.254 138.692C195.254 139.009 195.343 139.275 195.52 139.49C195.697 139.695 195.977 139.877 196.36 140.036C196.743 140.195 197.242 140.363 197.858 140.54C198.605 140.745 199.216 140.965 199.692 141.198C200.168 141.422 200.518 141.707 200.742 142.052C200.975 142.388 201.092 142.822 201.092 143.354C201.092 143.942 200.938 144.446 200.63 144.866C200.322 145.277 199.888 145.594 199.328 145.818C198.777 146.033 198.124 146.14 197.368 146.14ZM203.081 146C202.988 146 202.908 145.972 202.843 145.916C202.787 145.851 202.759 145.771 202.759 145.678V136.382C202.759 136.289 202.787 136.214 202.843 136.158C202.908 136.093 202.988 136.06 203.081 136.06H203.781C203.884 136.06 203.963 136.093 204.019 136.158C204.075 136.214 204.103 136.289 204.103 136.382V139.644C204.355 139.327 204.663 139.07 205.027 138.874C205.391 138.678 205.853 138.58 206.413 138.58C207.02 138.58 207.533 138.715 207.953 138.986C208.382 139.247 208.704 139.616 208.919 140.092C209.143 140.559 209.255 141.105 209.255 141.73V145.678C209.255 145.771 209.227 145.851 209.171 145.916C209.115 145.972 209.036 146 208.933 146H208.233C208.14 146 208.06 145.972 207.995 145.916C207.939 145.851 207.911 145.771 207.911 145.678V141.8C207.911 141.147 207.752 140.638 207.435 140.274C207.118 139.901 206.651 139.714 206.035 139.714C205.456 139.714 204.99 139.901 204.635 140.274C204.28 140.638 204.103 141.147 204.103 141.8V145.678C204.103 145.771 204.075 145.851 204.019 145.916C203.963 145.972 203.884 146 203.781 146H203.081ZM213.306 146.14C212.84 146.14 212.415 146.047 212.032 145.86C211.65 145.673 211.342 145.421 211.108 145.104C210.875 144.787 210.758 144.427 210.758 144.026C210.758 143.382 211.02 142.869 211.542 142.486C212.065 142.103 212.746 141.851 213.586 141.73L215.672 141.436V141.03C215.672 140.582 215.542 140.232 215.28 139.98C215.028 139.728 214.613 139.602 214.034 139.602C213.614 139.602 213.274 139.686 213.012 139.854C212.76 140.022 212.583 140.237 212.48 140.498C212.424 140.638 212.326 140.708 212.186 140.708H211.556C211.454 140.708 211.374 140.68 211.318 140.624C211.272 140.559 211.248 140.484 211.248 140.4C211.248 140.26 211.3 140.087 211.402 139.882C211.514 139.677 211.682 139.476 211.906 139.28C212.13 139.084 212.415 138.921 212.76 138.79C213.115 138.65 213.544 138.58 214.048 138.58C214.608 138.58 215.08 138.655 215.462 138.804C215.845 138.944 216.144 139.135 216.358 139.378C216.582 139.621 216.741 139.896 216.834 140.204C216.937 140.512 216.988 140.825 216.988 141.142V145.678C216.988 145.771 216.956 145.851 216.89 145.916C216.834 145.972 216.76 146 216.666 146H216.022C215.92 146 215.84 145.972 215.784 145.916C215.728 145.851 215.7 145.771 215.7 145.678V145.076C215.579 145.244 215.416 145.412 215.21 145.58C215.005 145.739 214.748 145.874 214.44 145.986C214.132 146.089 213.754 146.14 213.306 146.14ZM213.6 145.09C213.983 145.09 214.333 145.011 214.65 144.852C214.968 144.684 215.215 144.427 215.392 144.082C215.579 143.737 215.672 143.303 215.672 142.78V142.388L214.048 142.626C213.386 142.719 212.886 142.878 212.55 143.102C212.214 143.317 212.046 143.592 212.046 143.928C212.046 144.189 212.121 144.409 212.27 144.586C212.429 144.754 212.625 144.88 212.858 144.964C213.101 145.048 213.348 145.09 213.6 145.09ZM219.323 146C219.23 146 219.15 145.972 219.085 145.916C219.029 145.851 219.001 145.771 219.001 145.678V139.056C219.001 138.963 219.029 138.883 219.085 138.818C219.15 138.753 219.23 138.72 219.323 138.72H219.967C220.06 138.72 220.14 138.753 220.205 138.818C220.27 138.883 220.303 138.963 220.303 139.056V139.672C220.49 139.355 220.746 139.117 221.073 138.958C221.4 138.799 221.792 138.72 222.249 138.72H222.809C222.902 138.72 222.977 138.753 223.033 138.818C223.089 138.874 223.117 138.949 223.117 139.042V139.616C223.117 139.709 223.089 139.784 223.033 139.84C222.977 139.896 222.902 139.924 222.809 139.924H221.969C221.465 139.924 221.068 140.073 220.779 140.372C220.49 140.661 220.345 141.058 220.345 141.562V145.678C220.345 145.771 220.312 145.851 220.247 145.916C220.182 145.972 220.102 146 220.009 146H219.323ZM227.08 146.14C226.119 146.14 225.354 145.846 224.784 145.258C224.215 144.661 223.902 143.849 223.846 142.822C223.837 142.701 223.832 142.547 223.832 142.36C223.832 142.164 223.837 142.005 223.846 141.884C223.884 141.221 224.038 140.643 224.308 140.148C224.579 139.644 224.948 139.257 225.414 138.986C225.89 138.715 226.446 138.58 227.08 138.58C227.79 138.58 228.382 138.729 228.858 139.028C229.344 139.327 229.712 139.751 229.964 140.302C230.216 140.853 230.342 141.497 230.342 142.234V142.472C230.342 142.575 230.31 142.654 230.244 142.71C230.188 142.766 230.114 142.794 230.02 142.794H225.176C225.176 142.803 225.176 142.822 225.176 142.85C225.176 142.878 225.176 142.901 225.176 142.92C225.195 143.303 225.279 143.662 225.428 143.998C225.578 144.325 225.792 144.591 226.072 144.796C226.352 145.001 226.688 145.104 227.08 145.104C227.416 145.104 227.696 145.053 227.92 144.95C228.144 144.847 228.326 144.735 228.466 144.614C228.606 144.483 228.7 144.385 228.746 144.32C228.83 144.199 228.896 144.129 228.942 144.11C228.989 144.082 229.064 144.068 229.166 144.068H229.838C229.932 144.068 230.006 144.096 230.062 144.152C230.128 144.199 230.156 144.269 230.146 144.362C230.137 144.502 230.062 144.675 229.922 144.88C229.782 145.076 229.582 145.272 229.32 145.468C229.059 145.664 228.742 145.827 228.368 145.958C227.995 146.079 227.566 146.14 227.08 146.14ZM225.176 141.828H229.012V141.786C229.012 141.366 228.933 140.993 228.774 140.666C228.625 140.339 228.406 140.083 228.116 139.896C227.827 139.7 227.482 139.602 227.08 139.602C226.679 139.602 226.334 139.7 226.044 139.896C225.764 140.083 225.55 140.339 225.4 140.666C225.251 140.993 225.176 141.366 225.176 141.786V141.828ZM238.78 146.14C237.968 146.14 237.287 146.019 236.736 145.776C236.185 145.524 235.761 145.202 235.462 144.81C235.173 144.409 235.019 143.984 235 143.536C235 143.461 235.028 143.396 235.084 143.34C235.149 143.275 235.224 143.242 235.308 143.242H236.022C236.134 143.242 236.218 143.27 236.274 143.326C236.33 143.382 236.367 143.447 236.386 143.522C236.433 143.746 236.545 143.97 236.722 144.194C236.909 144.409 237.165 144.591 237.492 144.74C237.828 144.88 238.257 144.95 238.78 144.95C239.583 144.95 240.171 144.81 240.544 144.53C240.927 144.241 241.118 143.858 241.118 143.382C241.118 143.055 241.015 142.794 240.81 142.598C240.614 142.393 240.311 142.211 239.9 142.052C239.489 141.893 238.957 141.721 238.304 141.534C237.623 141.338 237.058 141.123 236.61 140.89C236.162 140.657 235.826 140.367 235.602 140.022C235.387 139.677 235.28 139.238 235.28 138.706C235.28 138.202 235.415 137.754 235.686 137.362C235.957 136.961 236.344 136.643 236.848 136.41C237.361 136.177 237.982 136.06 238.71 136.06C239.289 136.06 239.793 136.139 240.222 136.298C240.661 136.447 241.025 136.653 241.314 136.914C241.603 137.166 241.823 137.441 241.972 137.74C242.121 138.029 242.201 138.314 242.21 138.594C242.21 138.659 242.187 138.725 242.14 138.79C242.093 138.846 242.019 138.874 241.916 138.874H241.174C241.109 138.874 241.039 138.855 240.964 138.818C240.899 138.781 240.847 138.711 240.81 138.608C240.754 138.225 240.539 137.903 240.166 137.642C239.793 137.381 239.307 137.25 238.71 137.25C238.103 137.25 237.609 137.367 237.226 137.6C236.853 137.833 236.666 138.197 236.666 138.692C236.666 139.009 236.755 139.275 236.932 139.49C237.109 139.695 237.389 139.877 237.772 140.036C238.155 140.195 238.654 140.363 239.27 140.54C240.017 140.745 240.628 140.965 241.104 141.198C241.58 141.422 241.93 141.707 242.154 142.052C242.387 142.388 242.504 142.822 242.504 143.354C242.504 143.942 242.35 144.446 242.042 144.866C241.734 145.277 241.3 145.594 240.74 145.818C240.189 146.033 239.536 146.14 238.78 146.14ZM244.493 146C244.4 146 244.32 145.972 244.255 145.916C244.199 145.851 244.171 145.771 244.171 145.678V136.382C244.171 136.289 244.199 136.214 244.255 136.158C244.32 136.093 244.4 136.06 244.493 136.06H245.193C245.296 136.06 245.375 136.093 245.431 136.158C245.487 136.214 245.515 136.289 245.515 136.382V139.644C245.767 139.327 246.075 139.07 246.439 138.874C246.803 138.678 247.265 138.58 247.825 138.58C248.432 138.58 248.945 138.715 249.365 138.986C249.794 139.247 250.116 139.616 250.331 140.092C250.555 140.559 250.667 141.105 250.667 141.73V145.678C250.667 145.771 250.639 145.851 250.583 145.916C250.527 145.972 250.448 146 250.345 146H249.645C249.552 146 249.472 145.972 249.407 145.916C249.351 145.851 249.323 145.771 249.323 145.678V141.8C249.323 141.147 249.164 140.638 248.847 140.274C248.53 139.901 248.063 139.714 247.447 139.714C246.868 139.714 246.402 139.901 246.047 140.274C245.692 140.638 245.515 141.147 245.515 141.8V145.678C245.515 145.771 245.487 145.851 245.431 145.916C245.375 145.972 245.296 146 245.193 146H244.493ZM255.67 146.14C254.961 146.14 254.368 146.005 253.892 145.734C253.416 145.463 253.052 145.09 252.8 144.614C252.548 144.129 252.408 143.578 252.38 142.962C252.371 142.803 252.366 142.603 252.366 142.36C252.366 142.108 252.371 141.907 252.38 141.758C252.408 141.133 252.548 140.582 252.8 140.106C253.062 139.63 253.43 139.257 253.906 138.986C254.382 138.715 254.97 138.58 255.67 138.58C256.37 138.58 256.958 138.715 257.434 138.986C257.91 139.257 258.274 139.63 258.526 140.106C258.788 140.582 258.932 141.133 258.96 141.758C258.97 141.907 258.974 142.108 258.974 142.36C258.974 142.603 258.97 142.803 258.96 142.962C258.932 143.578 258.792 144.129 258.54 144.614C258.288 145.09 257.924 145.463 257.448 145.734C256.972 146.005 256.38 146.14 255.67 146.14ZM255.67 145.062C256.249 145.062 256.711 144.88 257.056 144.516C257.402 144.143 257.588 143.601 257.616 142.892C257.626 142.752 257.63 142.575 257.63 142.36C257.63 142.145 257.626 141.968 257.616 141.828C257.588 141.119 257.402 140.582 257.056 140.218C256.711 139.845 256.249 139.658 255.67 139.658C255.092 139.658 254.625 139.845 254.27 140.218C253.925 140.582 253.743 141.119 253.724 141.828C253.715 141.968 253.71 142.145 253.71 142.36C253.71 142.575 253.715 142.752 253.724 142.892C253.743 143.601 253.925 144.143 254.27 144.516C254.625 144.88 255.092 145.062 255.67 145.062ZM261.049 146C260.956 146 260.877 145.972 260.811 145.916C260.755 145.851 260.727 145.771 260.727 145.678V139.056C260.727 138.963 260.755 138.883 260.811 138.818C260.877 138.753 260.956 138.72 261.049 138.72H261.693C261.787 138.72 261.866 138.753 261.931 138.818C261.997 138.883 262.029 138.963 262.029 139.056V139.672C262.216 139.355 262.473 139.117 262.799 138.958C263.126 138.799 263.518 138.72 263.975 138.72H264.535C264.629 138.72 264.703 138.753 264.759 138.818C264.815 138.874 264.843 138.949 264.843 139.042V139.616C264.843 139.709 264.815 139.784 264.759 139.84C264.703 139.896 264.629 139.924 264.535 139.924H263.695C263.191 139.924 262.795 140.073 262.505 140.372C262.216 140.661 262.071 141.058 262.071 141.562V145.678C262.071 145.771 262.039 145.851 261.973 145.916C261.908 145.972 261.829 146 261.735 146H261.049ZM268.888 146C268.365 146 267.94 145.902 267.614 145.706C267.287 145.501 267.049 145.216 266.9 144.852C266.75 144.479 266.676 144.04 266.676 143.536V139.84H265.584C265.49 139.84 265.411 139.812 265.346 139.756C265.29 139.691 265.262 139.611 265.262 139.518V139.042C265.262 138.949 265.29 138.874 265.346 138.818C265.411 138.753 265.49 138.72 265.584 138.72H266.676V136.382C266.676 136.289 266.704 136.214 266.76 136.158C266.825 136.093 266.904 136.06 266.998 136.06H267.656C267.749 136.06 267.824 136.093 267.88 136.158C267.945 136.214 267.978 136.289 267.978 136.382V138.72H269.714C269.807 138.72 269.882 138.753 269.938 138.818C270.003 138.874 270.036 138.949 270.036 139.042V139.518C270.036 139.611 270.003 139.691 269.938 139.756C269.882 139.812 269.807 139.84 269.714 139.84H267.978V143.438C267.978 143.877 268.052 144.222 268.202 144.474C268.351 144.726 268.617 144.852 269 144.852H269.854C269.947 144.852 270.022 144.885 270.078 144.95C270.143 145.006 270.176 145.081 270.176 145.174V145.678C270.176 145.771 270.143 145.851 270.078 145.916C270.022 145.972 269.947 146 269.854 146H268.888ZM275.45 146C275.347 146 275.268 145.972 275.212 145.916C275.156 145.851 275.128 145.771 275.128 145.678V136.522C275.128 136.429 275.156 136.354 275.212 136.298C275.268 136.233 275.347 136.2 275.45 136.2H276.192C276.285 136.2 276.36 136.233 276.416 136.298C276.472 136.354 276.5 136.429 276.5 136.522V144.782H281.162C281.265 144.782 281.344 144.815 281.4 144.88C281.456 144.936 281.484 145.015 281.484 145.118V145.678C281.484 145.771 281.456 145.851 281.4 145.916C281.344 145.972 281.265 146 281.162 146H275.45ZM283.157 146C283.063 146 282.984 145.972 282.919 145.916C282.863 145.851 282.835 145.771 282.835 145.678V139.042C282.835 138.949 282.863 138.874 282.919 138.818C282.984 138.753 283.063 138.72 283.157 138.72H283.829C283.922 138.72 283.997 138.753 284.053 138.818C284.109 138.874 284.137 138.949 284.137 139.042V145.678C284.137 145.771 284.109 145.851 284.053 145.916C283.997 145.972 283.922 146 283.829 146H283.157ZM283.045 137.362C282.951 137.362 282.872 137.334 282.807 137.278C282.751 137.213 282.723 137.133 282.723 137.04V136.284C282.723 136.191 282.751 136.116 282.807 136.06C282.872 135.995 282.951 135.962 283.045 135.962H283.927C284.02 135.962 284.095 135.995 284.151 136.06C284.216 136.116 284.249 136.191 284.249 136.284V137.04C284.249 137.133 284.216 137.213 284.151 137.278C284.095 137.334 284.02 137.362 283.927 137.362H283.045ZM286.547 146C286.454 146 286.375 145.972 286.309 145.916C286.253 145.851 286.225 145.771 286.225 145.678V139.042C286.225 138.949 286.253 138.874 286.309 138.818C286.375 138.753 286.454 138.72 286.547 138.72H287.205C287.299 138.72 287.373 138.753 287.429 138.818C287.495 138.874 287.527 138.949 287.527 139.042V139.658C287.77 139.341 288.073 139.084 288.437 138.888C288.811 138.683 289.287 138.58 289.865 138.58C290.472 138.58 290.985 138.715 291.405 138.986C291.835 139.247 292.157 139.616 292.371 140.092C292.586 140.559 292.693 141.105 292.693 141.73V145.678C292.693 145.771 292.665 145.851 292.609 145.916C292.553 145.972 292.479 146 292.385 146H291.685C291.592 146 291.513 145.972 291.447 145.916C291.391 145.851 291.363 145.771 291.363 145.678V141.8C291.363 141.147 291.205 140.638 290.887 140.274C290.57 139.901 290.103 139.714 289.487 139.714C288.909 139.714 288.442 139.901 288.087 140.274C287.742 140.638 287.569 141.147 287.569 141.8V145.678C287.569 145.771 287.537 145.851 287.471 145.916C287.415 145.972 287.341 146 287.247 146H286.547ZM295.052 146C294.958 146 294.879 145.972 294.814 145.916C294.758 145.851 294.73 145.771 294.73 145.678V136.382C294.73 136.289 294.758 136.214 294.814 136.158C294.879 136.093 294.958 136.06 295.052 136.06H295.71C295.803 136.06 295.878 136.093 295.934 136.158C295.999 136.214 296.032 136.289 296.032 136.382V141.254L298.79 138.958C298.902 138.865 298.986 138.804 299.042 138.776C299.107 138.739 299.21 138.72 299.35 138.72H300.092C300.176 138.72 300.246 138.748 300.302 138.804C300.358 138.86 300.386 138.93 300.386 139.014C300.386 139.051 300.372 139.093 300.344 139.14C300.325 139.187 300.283 139.233 300.218 139.28L296.984 141.968L300.568 145.454C300.68 145.547 300.736 145.631 300.736 145.706C300.736 145.79 300.708 145.86 300.652 145.916C300.596 145.972 300.526 146 300.442 146H299.714C299.574 146 299.471 145.986 299.406 145.958C299.34 145.921 299.256 145.855 299.154 145.762L296.032 142.78V145.678C296.032 145.771 295.999 145.851 295.934 145.916C295.878 145.972 295.803 146 295.71 146H295.052Z" fill="#050505"/>
<path d="M168.438 146.14C167.794 146.14 167.248 146.042 166.8 145.846C166.361 145.641 166.002 145.361 165.722 145.006C165.442 144.651 165.237 144.245 165.106 143.788C164.985 143.331 164.915 142.845 164.896 142.332C164.887 142.08 164.877 141.814 164.868 141.534C164.868 141.254 164.868 140.974 164.868 140.694C164.877 140.405 164.887 140.129 164.896 139.868C164.905 139.355 164.975 138.869 165.106 138.412C165.246 137.945 165.451 137.539 165.722 137.194C166.002 136.839 166.366 136.564 166.814 136.368C167.262 136.163 167.803 136.06 168.438 136.06C169.082 136.06 169.623 136.163 170.062 136.368C170.51 136.564 170.874 136.839 171.154 137.194C171.434 137.539 171.639 137.945 171.77 138.412C171.91 138.869 171.985 139.355 171.994 139.868C172.003 140.129 172.008 140.405 172.008 140.694C172.017 140.974 172.017 141.254 172.008 141.534C172.008 141.814 172.003 142.08 171.994 142.332C171.985 142.845 171.91 143.331 171.77 143.788C171.639 144.245 171.434 144.651 171.154 145.006C170.883 145.361 170.524 145.641 170.076 145.846C169.637 146.042 169.091 146.14 168.438 146.14ZM168.438 144.95C169.166 144.95 169.703 144.712 170.048 144.236C170.403 143.751 170.585 143.093 170.594 142.262C170.613 141.991 170.622 141.73 170.622 141.478C170.622 141.217 170.622 140.96 170.622 140.708C170.622 140.447 170.613 140.19 170.594 139.938C170.585 139.126 170.403 138.477 170.048 137.992C169.703 137.497 169.166 137.25 168.438 137.25C167.719 137.25 167.183 137.497 166.828 137.992C166.483 138.477 166.301 139.126 166.282 139.938C166.282 140.19 166.277 140.447 166.268 140.708C166.268 140.96 166.268 141.217 166.268 141.478C166.277 141.73 166.282 141.991 166.282 142.262C166.301 143.093 166.487 143.751 166.842 144.236C167.197 144.712 167.729 144.95 168.438 144.95ZM176.751 146C176.657 146 176.578 145.972 176.513 145.916C176.457 145.851 176.429 145.771 176.429 145.678V137.838L174.105 139.63C174.03 139.686 173.951 139.709 173.867 139.7C173.783 139.691 173.713 139.649 173.657 139.574L173.293 139.112C173.237 139.028 173.213 138.944 173.223 138.86C173.241 138.776 173.288 138.706 173.363 138.65L176.415 136.298C176.48 136.251 176.541 136.223 176.597 136.214C176.653 136.205 176.713 136.2 176.779 136.2H177.493C177.586 136.2 177.661 136.233 177.717 136.298C177.773 136.354 177.801 136.429 177.801 136.522V145.678C177.801 145.771 177.773 145.851 177.717 145.916C177.661 145.972 177.586 146 177.493 146H176.751ZM180.135 146C180.042 146 179.962 145.972 179.897 145.916C179.841 145.851 179.813 145.771 179.813 145.678V144.67C179.813 144.577 179.841 144.502 179.897 144.446C179.962 144.381 180.042 144.348 180.135 144.348H181.143C181.236 144.348 181.311 144.381 181.367 144.446C181.432 144.502 181.465 144.577 181.465 144.67V145.678C181.465 145.771 181.432 145.851 181.367 145.916C181.311 145.972 181.236 146 181.143 146H180.135Z" fill="#050505"/>
<path d="M169.424 114.16C168.443 114.16 167.627 113.979 166.976 113.616C166.336 113.253 165.851 112.747 165.52 112.096C165.189 111.445 165.008 110.688 164.976 109.824C164.965 109.387 164.96 108.917 164.96 108.416C164.96 107.915 164.965 107.435 164.976 106.976C165.008 106.112 165.189 105.355 165.52 104.704C165.851 104.053 166.336 103.547 166.976 103.184C167.627 102.821 168.443 102.64 169.424 102.64C170.16 102.64 170.805 102.741 171.36 102.944C171.915 103.147 172.373 103.419 172.736 103.76C173.109 104.101 173.392 104.485 173.584 104.912C173.776 105.328 173.883 105.76 173.904 106.208C173.915 106.304 173.883 106.384 173.808 106.448C173.744 106.512 173.664 106.544 173.568 106.544H172.688C172.592 106.544 172.507 106.517 172.432 106.464C172.368 106.411 172.32 106.315 172.288 106.176C172.107 105.344 171.765 104.773 171.264 104.464C170.773 104.155 170.155 104 169.408 104C168.555 104 167.877 104.245 167.376 104.736C166.875 105.216 166.603 105.989 166.56 107.056C166.528 107.931 166.528 108.827 166.56 109.744C166.603 110.811 166.875 111.589 167.376 112.08C167.877 112.56 168.555 112.8 169.408 112.8C170.155 112.8 170.773 112.645 171.264 112.336C171.765 112.027 172.107 111.456 172.288 110.624C172.32 110.485 172.368 110.389 172.432 110.336C172.507 110.283 172.592 110.256 172.688 110.256H173.568C173.664 110.256 173.744 110.288 173.808 110.352C173.883 110.416 173.915 110.496 173.904 110.592C173.883 111.04 173.776 111.477 173.584 111.904C173.392 112.32 173.109 112.699 172.736 113.04C172.373 113.381 171.915 113.653 171.36 113.856C170.805 114.059 170.16 114.16 169.424 114.16ZM176.224 114C176.118 114 176.027 113.968 175.952 113.904C175.888 113.829 175.856 113.739 175.856 113.632V103.008C175.856 102.901 175.888 102.816 175.952 102.752C176.027 102.677 176.118 102.64 176.224 102.64H176.976C177.094 102.64 177.184 102.677 177.248 102.752C177.312 102.816 177.344 102.901 177.344 103.008V113.632C177.344 113.739 177.312 113.829 177.248 113.904C177.184 113.968 177.094 114 176.976 114H176.224ZM180.099 114C179.992 114 179.902 113.968 179.827 113.904C179.763 113.829 179.731 113.739 179.731 113.632V106.048C179.731 105.941 179.763 105.856 179.827 105.792C179.902 105.717 179.992 105.68 180.099 105.68H180.867C180.974 105.68 181.059 105.717 181.123 105.792C181.187 105.856 181.219 105.941 181.219 106.048V113.632C181.219 113.739 181.187 113.829 181.123 113.904C181.059 113.968 180.974 114 180.867 114H180.099ZM179.971 104.128C179.864 104.128 179.774 104.096 179.699 104.032C179.635 103.957 179.603 103.867 179.603 103.76V102.896C179.603 102.789 179.635 102.704 179.699 102.64C179.774 102.565 179.864 102.528 179.971 102.528H180.979C181.086 102.528 181.171 102.565 181.235 102.64C181.31 102.704 181.347 102.789 181.347 102.896V103.76C181.347 103.867 181.31 103.957 181.235 104.032C181.171 104.096 181.086 104.128 180.979 104.128H179.971ZM186.966 114.16C186.209 114.16 185.553 114.016 184.998 113.728C184.454 113.429 184.033 113.008 183.734 112.464C183.435 111.909 183.275 111.248 183.254 110.48C183.243 110.32 183.238 110.107 183.238 109.84C183.238 109.573 183.243 109.36 183.254 109.2C183.275 108.432 183.435 107.776 183.734 107.232C184.033 106.677 184.454 106.256 184.998 105.968C185.553 105.669 186.209 105.52 186.966 105.52C187.585 105.52 188.113 105.605 188.55 105.776C188.998 105.947 189.366 106.165 189.654 106.432C189.942 106.699 190.155 106.987 190.294 107.296C190.443 107.605 190.523 107.899 190.534 108.176C190.545 108.283 190.513 108.368 190.438 108.432C190.363 108.496 190.273 108.528 190.166 108.528H189.398C189.291 108.528 189.211 108.507 189.158 108.464C189.105 108.411 189.051 108.325 188.998 108.208C188.806 107.685 188.545 107.317 188.214 107.104C187.883 106.891 187.473 106.784 186.982 106.784C186.342 106.784 185.819 106.981 185.414 107.376C185.019 107.771 184.806 108.405 184.774 109.28C184.763 109.664 184.763 110.037 184.774 110.4C184.806 111.285 185.019 111.925 185.414 112.32C185.819 112.704 186.342 112.896 186.982 112.896C187.473 112.896 187.883 112.789 188.214 112.576C188.545 112.363 188.806 111.995 188.998 111.472C189.051 111.355 189.105 111.275 189.158 111.232C189.211 111.179 189.291 111.152 189.398 111.152H190.166C190.273 111.152 190.363 111.184 190.438 111.248C190.513 111.312 190.545 111.397 190.534 111.504C190.523 111.728 190.475 111.957 190.39 112.192C190.305 112.427 190.166 112.667 189.974 112.912C189.793 113.147 189.563 113.36 189.286 113.552C189.009 113.733 188.673 113.883 188.278 114C187.894 114.107 187.457 114.16 186.966 114.16ZM192.818 114C192.711 114 192.621 113.968 192.546 113.904C192.482 113.829 192.45 113.739 192.45 113.632V103.008C192.45 102.901 192.482 102.816 192.546 102.752C192.621 102.677 192.711 102.64 192.818 102.64H193.57C193.677 102.64 193.762 102.677 193.826 102.752C193.901 102.816 193.938 102.901 193.938 103.008V108.576L197.09 105.952C197.218 105.845 197.314 105.776 197.378 105.744C197.453 105.701 197.57 105.68 197.73 105.68H198.578C198.674 105.68 198.754 105.712 198.818 105.776C198.882 105.84 198.914 105.92 198.914 106.016C198.914 106.059 198.898 106.107 198.866 106.16C198.845 106.213 198.797 106.267 198.722 106.32L195.026 109.392L199.122 113.376C199.25 113.483 199.314 113.579 199.314 113.664C199.314 113.76 199.282 113.84 199.218 113.904C199.154 113.968 199.074 114 198.978 114H198.146C197.986 114 197.869 113.984 197.794 113.952C197.719 113.909 197.623 113.835 197.506 113.728L193.938 110.32V113.632C193.938 113.739 193.901 113.829 193.826 113.904C193.762 113.968 193.677 114 193.57 114H192.818ZM203.408 114.16C202.81 114.16 202.298 114.085 201.872 113.936C201.445 113.787 201.098 113.605 200.832 113.392C200.565 113.179 200.362 112.965 200.224 112.752C200.096 112.539 200.026 112.368 200.016 112.24C200.005 112.123 200.042 112.032 200.128 111.968C200.213 111.904 200.298 111.872 200.384 111.872H201.088C201.152 111.872 201.2 111.883 201.232 111.904C201.274 111.915 201.328 111.957 201.392 112.032C201.53 112.181 201.685 112.331 201.856 112.48C202.026 112.629 202.234 112.752 202.48 112.848C202.736 112.944 203.05 112.992 203.424 112.992C203.968 112.992 204.416 112.891 204.768 112.688C205.12 112.475 205.296 112.165 205.296 111.76C205.296 111.493 205.221 111.28 205.072 111.12C204.933 110.96 204.677 110.816 204.304 110.688C203.941 110.56 203.44 110.427 202.8 110.288C202.16 110.139 201.653 109.957 201.28 109.744C200.906 109.52 200.64 109.259 200.48 108.96C200.32 108.651 200.24 108.304 200.24 107.92C200.24 107.525 200.357 107.147 200.592 106.784C200.826 106.411 201.168 106.107 201.616 105.872C202.074 105.637 202.645 105.52 203.328 105.52C203.882 105.52 204.357 105.589 204.752 105.728C205.146 105.867 205.472 106.043 205.728 106.256C205.984 106.459 206.176 106.661 206.304 106.864C206.432 107.067 206.501 107.237 206.512 107.376C206.522 107.483 206.49 107.573 206.416 107.648C206.341 107.712 206.256 107.744 206.16 107.744H205.488C205.413 107.744 205.349 107.728 205.296 107.696C205.253 107.664 205.21 107.627 205.168 107.584C205.061 107.445 204.933 107.307 204.784 107.168C204.645 107.029 204.458 106.917 204.224 106.832C204 106.736 203.701 106.688 203.328 106.688C202.794 106.688 202.394 106.8 202.128 107.024C201.861 107.248 201.728 107.531 201.728 107.872C201.728 108.075 201.786 108.256 201.904 108.416C202.021 108.576 202.245 108.72 202.576 108.848C202.906 108.976 203.397 109.115 204.048 109.264C204.752 109.403 205.306 109.589 205.712 109.824C206.117 110.059 206.405 110.331 206.576 110.64C206.746 110.949 206.832 111.307 206.832 111.712C206.832 112.16 206.698 112.571 206.432 112.944C206.176 113.317 205.792 113.616 205.28 113.84C204.778 114.053 204.154 114.16 203.408 114.16ZM216.718 114.16C216.078 114.16 215.545 114.048 215.118 113.824C214.691 113.589 214.35 113.301 214.094 112.96V113.632C214.094 113.739 214.057 113.829 213.982 113.904C213.918 113.968 213.833 114 213.726 114H212.99C212.883 114 212.793 113.968 212.718 113.904C212.654 113.829 212.622 113.739 212.622 113.632V103.008C212.622 102.901 212.654 102.816 212.718 102.752C212.793 102.677 212.883 102.64 212.99 102.64H213.758C213.875 102.64 213.966 102.677 214.03 102.752C214.094 102.816 214.126 102.901 214.126 103.008V106.688C214.393 106.357 214.734 106.08 215.15 105.856C215.577 105.632 216.099 105.52 216.718 105.52C217.315 105.52 217.822 105.627 218.238 105.84C218.665 106.043 219.011 106.325 219.278 106.688C219.555 107.051 219.763 107.461 219.902 107.92C220.041 108.379 220.115 108.859 220.126 109.36C220.137 109.531 220.142 109.691 220.142 109.84C220.142 109.989 220.137 110.149 220.126 110.32C220.115 110.832 220.041 111.317 219.902 111.776C219.763 112.235 219.555 112.645 219.278 113.008C219.011 113.36 218.665 113.643 218.238 113.856C217.822 114.059 217.315 114.16 216.718 114.16ZM216.382 112.864C216.937 112.864 217.369 112.747 217.678 112.512C217.998 112.267 218.227 111.952 218.366 111.568C218.505 111.173 218.585 110.752 218.606 110.304C218.617 109.995 218.617 109.685 218.606 109.376C218.585 108.928 218.505 108.512 218.366 108.128C218.227 107.733 217.998 107.419 217.678 107.184C217.369 106.939 216.937 106.816 216.382 106.816C215.881 106.816 215.465 106.933 215.134 107.168C214.803 107.403 214.553 107.701 214.382 108.064C214.222 108.427 214.137 108.795 214.126 109.168C214.115 109.339 214.11 109.547 214.11 109.792C214.11 110.027 214.115 110.229 214.126 110.4C214.147 110.795 214.233 111.184 214.382 111.568C214.542 111.941 214.782 112.251 215.102 112.496C215.433 112.741 215.859 112.864 216.382 112.864ZM223.265 117.04C223.18 117.04 223.105 117.008 223.041 116.944C222.977 116.88 222.945 116.805 222.945 116.72C222.945 116.677 222.95 116.635 222.961 116.592C222.972 116.549 222.993 116.496 223.025 116.432L224.257 113.504L221.201 106.288C221.148 106.16 221.121 106.069 221.121 106.016C221.121 105.92 221.153 105.84 221.217 105.776C221.281 105.712 221.361 105.68 221.457 105.68H222.241C222.348 105.68 222.433 105.707 222.497 105.76C222.561 105.813 222.604 105.877 222.625 105.952L225.057 111.776L227.553 105.952C227.585 105.877 227.628 105.813 227.681 105.76C227.745 105.707 227.836 105.68 227.953 105.68H228.705C228.801 105.68 228.881 105.712 228.945 105.776C229.009 105.84 229.041 105.915 229.041 106C229.041 106.053 229.014 106.149 228.961 106.288L224.417 116.768C224.385 116.843 224.337 116.907 224.273 116.96C224.22 117.013 224.134 117.04 224.017 117.04H223.265ZM234.698 114C234.58 114 234.49 113.968 234.426 113.904C234.362 113.829 234.33 113.739 234.33 113.632V103.168C234.33 103.061 234.362 102.976 234.426 102.912C234.49 102.837 234.58 102.8 234.698 102.8H235.546C235.652 102.8 235.738 102.837 235.802 102.912C235.866 102.976 235.898 103.061 235.898 103.168V112.608H241.226C241.343 112.608 241.434 112.645 241.498 112.72C241.562 112.784 241.594 112.875 241.594 112.992V113.632C241.594 113.739 241.562 113.829 241.498 113.904C241.434 113.968 241.343 114 241.226 114H234.698ZM246.373 114.16C245.563 114.16 244.885 114.005 244.341 113.696C243.797 113.387 243.381 112.96 243.093 112.416C242.805 111.861 242.645 111.232 242.613 110.528C242.603 110.347 242.597 110.117 242.597 109.84C242.597 109.552 242.603 109.323 242.613 109.152C242.645 108.437 242.805 107.808 243.093 107.264C243.392 106.72 243.813 106.293 244.357 105.984C244.901 105.675 245.573 105.52 246.373 105.52C247.173 105.52 247.845 105.675 248.389 105.984C248.933 106.293 249.349 106.72 249.637 107.264C249.936 107.808 250.101 108.437 250.133 109.152C250.144 109.323 250.149 109.552 250.149 109.84C250.149 110.117 250.144 110.347 250.133 110.528C250.101 111.232 249.941 111.861 249.653 112.416C249.365 112.96 248.949 113.387 248.405 113.696C247.861 114.005 247.184 114.16 246.373 114.16ZM246.373 112.928C247.035 112.928 247.563 112.72 247.957 112.304C248.352 111.877 248.565 111.259 248.597 110.448C248.608 110.288 248.613 110.085 248.613 109.84C248.613 109.595 248.608 109.392 248.597 109.232C248.565 108.421 248.352 107.808 247.957 107.392C247.563 106.965 247.035 106.752 246.373 106.752C245.712 106.752 245.179 106.965 244.773 107.392C244.379 107.808 244.171 108.421 244.149 109.232C244.139 109.392 244.133 109.595 244.133 109.84C244.133 110.085 244.139 110.288 244.149 110.448C244.171 111.259 244.379 111.877 244.773 112.304C245.179 112.72 245.712 112.928 246.373 112.928ZM255.513 114.16C254.755 114.16 254.099 114.016 253.545 113.728C253.001 113.429 252.579 113.008 252.281 112.464C251.982 111.909 251.822 111.248 251.801 110.48C251.79 110.32 251.785 110.107 251.785 109.84C251.785 109.573 251.79 109.36 251.801 109.2C251.822 108.432 251.982 107.776 252.281 107.232C252.579 106.677 253.001 106.256 253.545 105.968C254.099 105.669 254.755 105.52 255.513 105.52C256.131 105.52 256.659 105.605 257.097 105.776C257.545 105.947 257.913 106.165 258.201 106.432C258.489 106.699 258.702 106.987 258.841 107.296C258.99 107.605 259.07 107.899 259.081 108.176C259.091 108.283 259.059 108.368 258.985 108.432C258.91 108.496 258.819 108.528 258.713 108.528H257.945C257.838 108.528 257.758 108.507 257.705 108.464C257.651 108.411 257.598 108.325 257.545 108.208C257.353 107.685 257.091 107.317 256.761 107.104C256.43 106.891 256.019 106.784 255.529 106.784C254.889 106.784 254.366 106.981 253.961 107.376C253.566 107.771 253.353 108.405 253.321 109.28C253.31 109.664 253.31 110.037 253.321 110.4C253.353 111.285 253.566 111.925 253.961 112.32C254.366 112.704 254.889 112.896 255.529 112.896C256.019 112.896 256.43 112.789 256.761 112.576C257.091 112.363 257.353 111.995 257.545 111.472C257.598 111.355 257.651 111.275 257.705 111.232C257.758 111.179 257.838 111.152 257.945 111.152H258.713C258.819 111.152 258.91 111.184 258.985 111.248C259.059 111.312 259.091 111.397 259.081 111.504C259.07 111.728 259.022 111.957 258.937 112.192C258.851 112.427 258.713 112.667 258.521 112.912C258.339 113.147 258.11 113.36 257.833 113.552C257.555 113.733 257.219 113.883 256.825 114C256.441 114.107 256.003 114.16 255.513 114.16ZM263.301 114.16C262.768 114.16 262.282 114.053 261.845 113.84C261.408 113.627 261.056 113.339 260.789 112.976C260.522 112.613 260.389 112.203 260.389 111.744C260.389 111.008 260.688 110.421 261.285 109.984C261.882 109.547 262.661 109.259 263.621 109.12L266.005 108.784V108.32C266.005 107.808 265.856 107.408 265.557 107.12C265.269 106.832 264.794 106.688 264.133 106.688C263.653 106.688 263.264 106.784 262.965 106.976C262.677 107.168 262.474 107.413 262.357 107.712C262.293 107.872 262.181 107.952 262.021 107.952H261.301C261.184 107.952 261.093 107.92 261.029 107.856C260.976 107.781 260.949 107.696 260.949 107.6C260.949 107.44 261.008 107.243 261.125 107.008C261.253 106.773 261.445 106.544 261.701 106.32C261.957 106.096 262.282 105.909 262.677 105.76C263.082 105.6 263.573 105.52 264.149 105.52C264.789 105.52 265.328 105.605 265.765 105.776C266.202 105.936 266.544 106.155 266.789 106.432C267.045 106.709 267.226 107.024 267.333 107.376C267.45 107.728 267.509 108.085 267.509 108.448V113.632C267.509 113.739 267.472 113.829 267.397 113.904C267.333 113.968 267.248 114 267.141 114H266.405C266.288 114 266.197 113.968 266.133 113.904C266.069 113.829 266.037 113.739 266.037 113.632V112.944C265.898 113.136 265.712 113.328 265.477 113.52C265.242 113.701 264.949 113.856 264.597 113.984C264.245 114.101 263.813 114.16 263.301 114.16ZM263.637 112.96C264.074 112.96 264.474 112.869 264.837 112.688C265.2 112.496 265.482 112.203 265.685 111.808C265.898 111.413 266.005 110.917 266.005 110.32V109.872L264.149 110.144C263.392 110.251 262.821 110.432 262.437 110.688C262.053 110.933 261.861 111.248 261.861 111.632C261.861 111.931 261.946 112.181 262.117 112.384C262.298 112.576 262.522 112.72 262.789 112.816C263.066 112.912 263.349 112.96 263.637 112.96ZM272.979 114C272.382 114 271.896 113.888 271.523 113.664C271.15 113.429 270.878 113.104 270.707 112.688C270.536 112.261 270.451 111.76 270.451 111.184V106.96H269.203C269.096 106.96 269.006 106.928 268.931 106.864C268.867 106.789 268.835 106.699 268.835 106.592V106.048C268.835 105.941 268.867 105.856 268.931 105.792C269.006 105.717 269.096 105.68 269.203 105.68H270.451V103.008C270.451 102.901 270.483 102.816 270.547 102.752C270.622 102.677 270.712 102.64 270.819 102.64H271.571C271.678 102.64 271.763 102.677 271.827 102.752C271.902 102.816 271.939 102.901 271.939 103.008V105.68H273.923C274.03 105.68 274.115 105.717 274.179 105.792C274.254 105.856 274.291 105.941 274.291 106.048V106.592C274.291 106.699 274.254 106.789 274.179 106.864C274.115 106.928 274.03 106.96 273.923 106.96H271.939V111.072C271.939 111.573 272.024 111.968 272.195 112.256C272.366 112.544 272.67 112.688 273.107 112.688H274.083C274.19 112.688 274.275 112.725 274.339 112.8C274.414 112.864 274.451 112.949 274.451 113.056V113.632C274.451 113.739 274.414 113.829 274.339 113.904C274.275 113.968 274.19 114 274.083 114H272.979ZM276.349 114C276.242 114 276.152 113.968 276.077 113.904C276.013 113.829 275.981 113.739 275.981 113.632V106.048C275.981 105.941 276.013 105.856 276.077 105.792C276.152 105.717 276.242 105.68 276.349 105.68H277.117C277.224 105.68 277.309 105.717 277.373 105.792C277.437 105.856 277.469 105.941 277.469 106.048V113.632C277.469 113.739 277.437 113.829 277.373 113.904C277.309 113.968 277.224 114 277.117 114H276.349ZM276.221 104.128C276.114 104.128 276.024 104.096 275.949 104.032C275.885 103.957 275.853 103.867 275.853 103.76V102.896C275.853 102.789 275.885 102.704 275.949 102.64C276.024 102.565 276.114 102.528 276.221 102.528H277.229C277.336 102.528 277.421 102.565 277.485 102.64C277.56 102.704 277.597 102.789 277.597 102.896V103.76C277.597 103.867 277.56 103.957 277.485 104.032C277.421 104.096 277.336 104.128 277.229 104.128H276.221ZM283.264 114.16C282.453 114.16 281.776 114.005 281.232 113.696C280.688 113.387 280.272 112.96 279.984 112.416C279.696 111.861 279.536 111.232 279.504 110.528C279.493 110.347 279.488 110.117 279.488 109.84C279.488 109.552 279.493 109.323 279.504 109.152C279.536 108.437 279.696 107.808 279.984 107.264C280.283 106.72 280.704 106.293 281.248 105.984C281.792 105.675 282.464 105.52 283.264 105.52C284.064 105.52 284.736 105.675 285.28 105.984C285.824 106.293 286.24 106.72 286.528 107.264C286.827 107.808 286.992 108.437 287.024 109.152C287.035 109.323 287.04 109.552 287.04 109.84C287.04 110.117 287.035 110.347 287.024 110.528C286.992 111.232 286.832 111.861 286.544 112.416C286.256 112.96 285.84 113.387 285.296 113.696C284.752 114.005 284.075 114.16 283.264 114.16ZM283.264 112.928C283.925 112.928 284.453 112.72 284.848 112.304C285.243 111.877 285.456 111.259 285.488 110.448C285.499 110.288 285.504 110.085 285.504 109.84C285.504 109.595 285.499 109.392 285.488 109.232C285.456 108.421 285.243 107.808 284.848 107.392C284.453 106.965 283.925 106.752 283.264 106.752C282.603 106.752 282.069 106.965 281.664 107.392C281.269 107.808 281.061 108.421 281.04 109.232C281.029 109.392 281.024 109.595 281.024 109.84C281.024 110.085 281.029 110.288 281.04 110.448C281.061 111.259 281.269 111.877 281.664 112.304C282.069 112.72 282.603 112.928 283.264 112.928ZM289.411 114C289.305 114 289.214 113.968 289.139 113.904C289.075 113.829 289.043 113.739 289.043 113.632V106.048C289.043 105.941 289.075 105.856 289.139 105.792C289.214 105.717 289.305 105.68 289.411 105.68H290.163C290.27 105.68 290.355 105.717 290.419 105.792C290.494 105.856 290.531 105.941 290.531 106.048V106.752C290.809 106.389 291.155 106.096 291.571 105.872C291.998 105.637 292.542 105.52 293.203 105.52C293.897 105.52 294.483 105.675 294.963 105.984C295.454 106.283 295.822 106.704 296.067 107.248C296.313 107.781 296.435 108.405 296.435 109.12V113.632C296.435 113.739 296.403 113.829 296.339 113.904C296.275 113.968 296.19 114 296.083 114H295.283C295.177 114 295.086 113.968 295.011 113.904C294.947 113.829 294.915 113.739 294.915 113.632V109.2C294.915 108.453 294.734 107.872 294.371 107.456C294.009 107.029 293.475 106.816 292.771 106.816C292.11 106.816 291.577 107.029 291.171 107.456C290.777 107.872 290.579 108.453 290.579 109.2V113.632C290.579 113.739 290.542 113.829 290.467 113.904C290.403 113.968 290.318 114 290.211 114H289.411ZM301.627 114.16C301.029 114.16 300.517 114.085 300.091 113.936C299.664 113.787 299.317 113.605 299.051 113.392C298.784 113.179 298.581 112.965 298.443 112.752C298.315 112.539 298.245 112.368 298.235 112.24C298.224 112.123 298.261 112.032 298.347 111.968C298.432 111.904 298.517 111.872 298.603 111.872H299.307C299.371 111.872 299.419 111.883 299.451 111.904C299.493 111.915 299.547 111.957 299.611 112.032C299.749 112.181 299.904 112.331 300.075 112.48C300.245 112.629 300.453 112.752 300.699 112.848C300.955 112.944 301.269 112.992 301.643 112.992C302.187 112.992 302.635 112.891 302.987 112.688C303.339 112.475 303.515 112.165 303.515 111.76C303.515 111.493 303.44 111.28 303.291 111.12C303.152 110.96 302.896 110.816 302.523 110.688C302.16 110.56 301.659 110.427 301.019 110.288C300.379 110.139 299.872 109.957 299.499 109.744C299.125 109.52 298.859 109.259 298.699 108.96C298.539 108.651 298.459 108.304 298.459 107.92C298.459 107.525 298.576 107.147 298.811 106.784C299.045 106.411 299.387 106.107 299.835 105.872C300.293 105.637 300.864 105.52 301.547 105.52C302.101 105.52 302.576 105.589 302.971 105.728C303.365 105.867 303.691 106.043 303.947 106.256C304.203 106.459 304.395 106.661 304.523 106.864C304.651 107.067 304.72 107.237 304.731 107.376C304.741 107.483 304.709 107.573 304.635 107.648C304.56 107.712 304.475 107.744 304.379 107.744H303.707C303.632 107.744 303.568 107.728 303.515 107.696C303.472 107.664 303.429 107.627 303.387 107.584C303.28 107.445 303.152 107.307 303.003 107.168C302.864 107.029 302.677 106.917 302.443 106.832C302.219 106.736 301.92 106.688 301.547 106.688C301.013 106.688 300.613 106.8 300.347 107.024C300.08 107.248 299.947 107.531 299.947 107.872C299.947 108.075 300.005 108.256 300.123 108.416C300.24 108.576 300.464 108.72 300.795 108.848C301.125 108.976 301.616 109.115 302.266 109.264C302.971 109.403 303.525 109.589 303.931 109.824C304.336 110.059 304.624 110.331 304.795 110.64C304.965 110.949 305.051 111.307 305.051 111.712C305.051 112.16 304.917 112.571 304.651 112.944C304.395 113.317 304.011 113.616 303.499 113.84C302.997 114.053 302.373 114.16 301.627 114.16Z" fill="#050505"/>
<g filter="url(#filter1_d_365_75)">
<rect x="20" width="100" height="40" rx="6" fill="white"/>
</g>
<path d="M57.416 26C57.3093 26 57.2187 25.968 57.144 25.904C57.08 25.8293 57.048 25.7387 57.048 25.632V16.672L54.392 18.72C54.3067 18.784 54.216 18.8107 54.12 18.8C54.024 18.7893 53.944 18.7413 53.88 18.656L53.464 18.128C53.4 18.032 53.3733 17.936 53.384 17.84C53.4053 17.744 53.4587 17.664 53.544 17.6L57.032 14.912C57.1067 14.8587 57.176 14.8267 57.24 14.816C57.304 14.8053 57.3733 14.8 57.448 14.8H58.264C58.3707 14.8 58.456 14.8373 58.52 14.912C58.584 14.976 58.616 15.0613 58.616 15.168V25.632C58.616 25.7387 58.584 25.8293 58.52 25.904C58.456 25.968 58.3707 26 58.264 26H57.416ZM61.4118 26C61.3051 26 61.2144 25.968 61.1398 25.904C61.0758 25.8293 61.0438 25.7387 61.0438 25.632V15.008C61.0438 14.9013 61.0758 14.816 61.1398 14.752C61.2144 14.6773 61.3051 14.64 61.4118 14.64H62.1638C62.2704 14.64 62.3558 14.6773 62.4198 14.752C62.4944 14.816 62.5318 14.9013 62.5318 15.008V20.576L65.6838 17.952C65.8118 17.8453 65.9078 17.776 65.9718 17.744C66.0464 17.7013 66.1638 17.68 66.3238 17.68H67.1718C67.2678 17.68 67.3478 17.712 67.4118 17.776C67.4758 17.84 67.5078 17.92 67.5078 18.016C67.5078 18.0587 67.4918 18.1067 67.4598 18.16C67.4384 18.2133 67.3904 18.2667 67.3158 18.32L63.6198 21.392L67.7158 25.376C67.8438 25.4827 67.9078 25.5787 67.9078 25.664C67.9078 25.76 67.8758 25.84 67.8118 25.904C67.7478 25.968 67.6678 26 67.5718 26H66.7398C66.5798 26 66.4624 25.984 66.3878 25.952C66.3131 25.9093 66.2171 25.8347 66.0998 25.728L62.5318 22.32V25.632C62.5318 25.7387 62.4944 25.8293 62.4198 25.904C62.3558 25.968 62.2704 26 62.1638 26H61.4118ZM77.4754 26.16C76.5794 26.16 75.806 26 75.1554 25.68C74.5154 25.36 74.0194 24.8747 73.6674 24.224C73.326 23.5627 73.1554 22.7147 73.1554 21.68V15.184C73.1554 15.0667 73.1874 14.976 73.2514 14.912C73.3154 14.8373 73.406 14.8 73.5234 14.8H74.3394C74.4567 14.8 74.5474 14.8373 74.6114 14.912C74.686 14.976 74.7234 15.0667 74.7234 15.184V21.712C74.7234 22.7573 74.9687 23.5307 75.4594 24.032C75.95 24.5333 76.622 24.784 77.4754 24.784C78.318 24.784 78.9847 24.5333 79.4754 24.032C79.9767 23.5307 80.2274 22.7573 80.2274 21.712V15.184C80.2274 15.0667 80.2594 14.976 80.3234 14.912C80.398 14.8373 80.4887 14.8 80.5954 14.8H81.4274C81.534 14.8 81.6194 14.8373 81.6834 14.912C81.758 14.976 81.7954 15.0667 81.7954 15.184V21.68C81.7954 22.7147 81.6194 23.5627 81.2674 24.224C80.926 24.8747 80.4354 25.36 79.7954 25.68C79.1554 26 78.382 26.16 77.4754 26.16ZM87.0796 26.16C86.4823 26.16 85.9703 26.0853 85.5436 25.936C85.117 25.7867 84.7703 25.6053 84.5036 25.392C84.237 25.1787 84.0343 24.9653 83.8956 24.752C83.7676 24.5387 83.6983 24.368 83.6876 24.24C83.677 24.1227 83.7143 24.032 83.7996 23.968C83.885 23.904 83.9703 23.872 84.0556 23.872H84.7596C84.8236 23.872 84.8716 23.8827 84.9036 23.904C84.9463 23.9147 84.9996 23.9573 85.0636 24.032C85.2023 24.1813 85.357 24.3307 85.5276 24.48C85.6983 24.6293 85.9063 24.752 86.1516 24.848C86.4076 24.944 86.7223 24.992 87.0956 24.992C87.6396 24.992 88.0876 24.8907 88.4396 24.688C88.7916 24.4747 88.9676 24.1653 88.9676 23.76C88.9676 23.4933 88.893 23.28 88.7436 23.12C88.605 22.96 88.349 22.816 87.9756 22.688C87.613 22.56 87.1116 22.4267 86.4716 22.288C85.8316 22.1387 85.325 21.9573 84.9516 21.744C84.5783 21.52 84.3116 21.2587 84.1516 20.96C83.9916 20.6507 83.9116 20.304 83.9116 19.92C83.9116 19.5253 84.029 19.1467 84.2636 18.784C84.4983 18.4107 84.8396 18.1067 85.2876 17.872C85.7463 17.6373 86.317 17.52 86.9996 17.52C87.5543 17.52 88.029 17.5893 88.4236 17.728C88.8183 17.8667 89.1436 18.0427 89.3996 18.256C89.6556 18.4587 89.8476 18.6613 89.9756 18.864C90.1036 19.0667 90.173 19.2373 90.1836 19.376C90.1943 19.4827 90.1623 19.5733 90.0876 19.648C90.013 19.712 89.9276 19.744 89.8316 19.744H89.1596C89.085 19.744 89.021 19.728 88.9676 19.696C88.925 19.664 88.8823 19.6267 88.8396 19.584C88.733 19.4453 88.605 19.3067 88.4556 19.168C88.317 19.0293 88.1303 18.9173 87.8956 18.832C87.6716 18.736 87.373 18.688 86.9996 18.688C86.4663 18.688 86.0663 18.8 85.7996 19.024C85.533 19.248 85.3996 19.5307 85.3996 19.872C85.3996 20.0747 85.4583 20.256 85.5756 20.416C85.693 20.576 85.917 20.72 86.2476 20.848C86.5783 20.976 87.069 21.1147 87.7196 21.264C88.4236 21.4027 88.9783 21.5893 89.3836 21.824C89.789 22.0587 90.077 22.3307 90.2476 22.64C90.4183 22.9493 90.5036 23.3067 90.5036 23.712C90.5036 24.16 90.3703 24.5707 90.1036 24.944C89.8476 25.3173 89.4636 25.616 88.9516 25.84C88.4503 26.0533 87.8263 26.16 87.0796 26.16ZM95.6679 26.16C94.5692 26.16 93.6945 25.824 93.0439 25.152C92.3932 24.4693 92.0359 23.5413 91.9719 22.368C91.9612 22.2293 91.9559 22.0533 91.9559 21.84C91.9559 21.616 91.9612 21.4347 91.9719 21.296C92.0145 20.5387 92.1905 19.8773 92.4999 19.312C92.8092 18.736 93.2305 18.2933 93.7639 17.984C94.3079 17.6747 94.9425 17.52 95.6679 17.52C96.4785 17.52 97.1559 17.6907 97.6999 18.032C98.2545 18.3733 98.6759 18.8587 98.9639 19.488C99.2519 20.1173 99.3959 20.8533 99.3959 21.696V21.968C99.3959 22.0853 99.3585 22.176 99.2839 22.24C99.2199 22.304 99.1345 22.336 99.0279 22.336H93.4919C93.4919 22.3467 93.4919 22.368 93.4919 22.4C93.4919 22.432 93.4919 22.4587 93.4919 22.48C93.5132 22.9173 93.6092 23.328 93.7799 23.712C93.9505 24.0853 94.1959 24.3893 94.5159 24.624C94.8359 24.8587 95.2199 24.976 95.6679 24.976C96.0519 24.976 96.3719 24.9173 96.6279 24.8C96.8839 24.6827 97.0919 24.5547 97.2519 24.416C97.4119 24.2667 97.5185 24.1547 97.5719 24.08C97.6679 23.9413 97.7425 23.8613 97.7959 23.84C97.8492 23.808 97.9345 23.792 98.0519 23.792H98.8199C98.9265 23.792 99.0119 23.824 99.0759 23.888C99.1505 23.9413 99.1825 24.0213 99.1719 24.128C99.1612 24.288 99.0759 24.4853 98.9159 24.72C98.7559 24.944 98.5265 25.168 98.2279 25.392C97.9292 25.616 97.5665 25.8027 97.1399 25.952C96.7132 26.0907 96.2225 26.16 95.6679 26.16ZM93.4919 21.232H97.8759V21.184C97.8759 20.704 97.7852 20.2773 97.6039 19.904C97.4332 19.5307 97.1825 19.2373 96.8519 19.024C96.5212 18.8 96.1265 18.688 95.6679 18.688C95.2092 18.688 94.8145 18.8 94.4839 19.024C94.1639 19.2373 93.9185 19.5307 93.7479 19.904C93.5772 20.2773 93.4919 20.704 93.4919 21.184V21.232ZM101.677 26C101.57 26 101.48 25.968 101.405 25.904C101.341 25.8293 101.309 25.7387 101.309 25.632V18.064C101.309 17.9573 101.341 17.8667 101.405 17.792C101.48 17.7173 101.57 17.68 101.677 17.68H102.413C102.52 17.68 102.61 17.7173 102.685 17.792C102.76 17.8667 102.797 17.9573 102.797 18.064V18.768C103.01 18.4053 103.304 18.1333 103.677 17.952C104.05 17.7707 104.498 17.68 105.021 17.68H105.661C105.768 17.68 105.853 17.7173 105.917 17.792C105.981 17.856 106.013 17.9413 106.013 18.048V18.704C106.013 18.8107 105.981 18.896 105.917 18.96C105.853 19.024 105.768 19.056 105.661 19.056H104.701C104.125 19.056 103.672 19.2267 103.341 19.568C103.01 19.8987 102.845 20.352 102.845 20.928V25.632C102.845 25.7387 102.808 25.8293 102.733 25.904C102.658 25.968 102.568 26 102.461 26H101.677Z" fill="#050505"/>
<path d="M42 26C42 24.5855 41.4381 23.229 40.4379 22.2288C39.4377 21.2286 38.0811 20.6667 36.6667 20.6667M36.6667 20.6667C35.2522 20.6667 33.8956 21.2286 32.8954 22.2288C31.8952 23.229 31.3333 24.5855 31.3333 26M36.6667 20.6667C38.5076 20.6667 40 19.1743 40 17.3333C40 15.4924 38.5076 14 36.6667 14C34.8257 14 33.3333 15.4924 33.3333 17.3333C33.3333 19.1743 34.8257 20.6667 36.6667 20.6667ZM44.6667 25.3333C44.6667 23.0867 43.3333 21 42 20C42.4383 19.6712 42.7887 19.2394 43.0204 18.7428C43.252 18.2463 43.3577 17.7003 43.328 17.1532C43.2983 16.6061 43.1343 16.0747 42.8503 15.6061C42.5664 15.1375 42.1713 14.7462 41.7 14.4667" stroke="black" stroke-width="1.5" stroke-linecap="round" stroke-linejoin="round"/>
<defs>
<filter id="filter0_d_365_75" x="141" y="79" width="203" height="116" filterUnits="userSpaceOnUse" color-interpolation-filters="sRGB">
<feFlood flood-opacity="0" result="BackgroundImageFix"/>
<feColorMatrix in="SourceAlpha" type="matrix" values="0 0 0 0 0 0 0 0 0 0 0 0 0 0 0 0 0 0 127 0" result="hardAlpha"/>
<feOffset dy="3"/>
<feGaussianBlur stdDeviation="1.5"/>
<feComposite in2="hardAlpha" operator="out"/>
<feColorMatrix type="matrix" values="0 0 0 0 0 0 0 0 0 0 0 0 0 0 0 0 0 0 0.25 0"/>
<feBlend mode="normal" in2="BackgroundImageFix" result="effect1_dropShadow_365_75"/>
<feBlend mode="normal" in="SourceGraphic" in2="effect1_dropShadow_365_75" result="shape"/>
</filter>
<filter id="filter1_d_365_75" x="17" y="0" width="106" height="46" filterUnits="userSpaceOnUse" color-interpolation-filters="sRGB">
<feFlood flood-opacity="0" result="BackgroundImageFix"/>
<feColorMatrix in="SourceAlpha" type="matrix" values="0 0 0 0 0 0 0 0 0 0 0 0 0 0 0 0 0 0 127 0" result="hardAlpha"/>
<feOffset dy="3"/>
<feGaussianBlur stdDeviation="1.5"/>
<feComposite in2="hardAlpha" operator="out"/>
<feColorMatrix type="matrix" values="0 0 0 0 0 0 0 0 0 0 0 0 0 0 0 0 0 0 0.25 0"/>
<feBlend mode="normal" in2="BackgroundImageFix" result="effect1_dropShadow_365_75"/>
<feBlend mode="normal" in="SourceGraphic" in2="effect1_dropShadow_365_75" result="shape"/>
</filter>
</defs>
</svg>
