<svg width="70" height="70" viewBox="0 0 70 70" fill="none" xmlns="http://www.w3.org/2000/svg">
<path d="M0 8C0 3.58172 3.58172 0 8 0H62C66.4183 0 70 3.58172 70 8V62C70 66.4183 66.4183 70 62 70H8C3.58172 70 0 66.4183 0 62V8Z" fill="#FFFC00"/>
<path d="M51.8792 42.8673C51.6433 42.2136 51.1928 41.8641 50.6807 41.575C50.5968 41.5229 50.5095 41.4767 50.4193 41.4369L49.9539 41.1974C48.356 40.3366 47.1086 39.2513 46.2437 37.9655C45.9978 37.6038 45.7845 37.2203 45.6062 36.8198C45.534 36.6041 45.5382 36.4833 45.5892 36.3732C45.6403 36.2859 45.7109 36.212 45.7953 36.1575C46.0695 35.972 46.3521 35.7843 46.5433 35.6591C46.8876 35.4347 47.1575 35.2557 47.3317 35.1305C47.9883 34.6645 48.4473 34.1683 48.7342 33.616C48.9337 33.2338 49.05 32.8126 49.0753 32.3808C49.1006 31.949 49.0343 31.5168 48.8808 31.1133C48.4452 29.9525 47.3657 29.2319 46.0567 29.2319C45.7071 29.2304 45.3589 29.2776 45.0218 29.3722C45.0346 28.5782 45.0176 27.7389 44.9475 26.9148C44.701 24.0151 43.7001 22.4962 42.6589 21.2837C41.9911 20.5249 41.205 19.8827 40.332 19.383C38.7489 18.466 36.9554 18 34.9983 18C33.0411 18 31.2583 18.466 29.6752 19.383C28.7997 19.8835 28.0134 20.5264 27.344 21.288C26.3028 22.5005 25.304 24.0216 25.0554 26.9191C24.9853 27.7433 24.9704 28.5847 24.9789 29.3743C24.6419 29.2798 24.2937 29.2326 23.9441 29.2341C22.6372 29.2341 21.5556 29.9569 21.1221 31.1176C20.9676 31.5211 20.9004 31.9536 20.925 32.3857C20.9495 32.8179 21.0653 33.2397 21.2644 33.6224C21.5534 34.1748 22.0124 34.671 22.6669 35.1348C22.8412 35.26 23.1132 35.4369 23.4553 35.6656L24.1757 36.1424C24.2674 36.2054 24.3461 36.286 24.4073 36.3797C24.4626 36.4941 24.4647 36.617 24.3818 36.8479C24.2057 37.2398 23.9959 37.6152 23.7549 37.9698C22.9092 39.2276 21.6979 40.2934 20.1509 41.1456C19.3328 41.5858 18.4807 41.8792 18.1216 42.8716C17.8496 43.6224 18.0281 44.4746 18.7166 45.1909C18.9716 45.4628 19.2613 45.6857 19.5857 45.8598C20.2565 46.2347 20.9702 46.5245 21.7107 46.7228C21.863 46.764 22.0079 46.8295 22.1399 46.9169C22.3907 47.1413 22.3567 47.4779 22.6903 47.9698C22.8603 48.2258 23.07 48.4416 23.3193 48.617C24.0206 49.1111 24.8089 49.1413 25.6462 49.1737C26.4005 49.2039 27.2569 49.2384 28.2323 49.562C28.636 49.7001 29.0589 49.9633 29.5455 50.2697C30.7143 50.9989 32.3186 52 34.9983 52C37.68 52 39.2907 50.9946 40.4722 50.2611C40.9546 49.959 41.3732 49.7001 41.7664 49.5685C42.7439 49.2406 43.6002 49.206 44.3546 49.178C45.1897 49.1456 45.9781 49.1133 46.6815 48.6214C46.9742 48.4134 47.218 48.1423 47.3955 47.8274C47.6377 47.4132 47.6292 47.1219 47.8566 46.9213C47.9793 46.8352 48.116 46.7717 48.2603 46.7335C49.0107 46.5329 49.7343 46.2402 50.4151 45.8619C50.7551 45.6742 51.0653 45.4304 51.3267 45.137L51.3352 45.1262C51.9812 44.425 52.1427 43.5965 51.8792 42.8673ZM49.4971 44.1661C48.0436 44.9817 47.0767 44.8932 46.3245 45.3851C45.687 45.8015 46.0652 46.7012 45.602 47.0248C45.0303 47.4261 43.3473 46.9989 41.1714 47.7282C39.3757 48.3301 38.2304 50.0626 35.0025 50.0626C31.7746 50.0626 30.6569 48.3344 28.8315 47.7238C26.6598 46.9946 24.9726 47.4218 24.4031 47.0227C23.9398 46.699 24.3159 45.7972 23.6784 45.3808C22.9262 44.8889 21.9593 44.9773 20.5079 44.1661C19.5814 43.6483 20.1063 43.3247 20.4144 43.1737C25.6802 40.5868 26.5195 36.5933 26.5557 36.2956C26.6024 35.9374 26.6513 35.6548 26.2624 35.2902C25.8863 34.9364 24.2182 33.8878 23.7549 33.5599C22.9899 33.0162 22.6499 32.4747 22.9007 31.808C23.0749 31.3463 23.4978 31.1715 23.9419 31.1715C24.0827 31.1732 24.2229 31.1891 24.3606 31.219C25.2021 31.4045 26.018 31.8339 26.4898 31.9482C26.5465 31.9626 26.6045 31.9705 26.664 31.972C26.9148 31.972 27.004 31.8425 26.987 31.5512C26.9318 30.617 26.8022 28.7961 26.9467 27.0939C27.1464 24.7551 27.8902 23.5944 28.772 22.5696C29.197 22.0755 31.1882 19.9374 34.9983 19.9374C38.8062 19.9374 40.8037 22.0669 41.2266 22.5588C42.1106 23.5836 42.8544 24.7443 43.052 27.0852C43.1965 28.7853 43.0711 30.6063 43.0116 31.5405C42.9904 31.8468 43.0839 31.9612 43.3346 31.9612C43.3933 31.9601 43.4517 31.9529 43.5088 31.9396C43.9806 31.8231 44.7987 31.3937 45.6381 31.2104C45.7757 31.1798 45.9159 31.1631 46.0567 31.1607C46.503 31.1607 46.9258 31.3376 47.098 31.7972C47.3466 32.4639 47.013 33.0054 46.2458 33.5491C45.7826 33.877 44.1145 34.9256 43.7383 35.2794C43.3474 35.644 43.3983 35.9266 43.443 36.2848C43.4812 36.5868 44.3206 40.5804 49.5842 43.165C49.8966 43.3225 50.4214 43.644 49.4971 44.1661Z" fill="black"/>
</svg>
