<svg width="70" height="70" viewBox="0 0 70 70" fill="none" xmlns="http://www.w3.org/2000/svg">
<path d="M0 8C0 3.58172 3.58172 0 8 0H62C66.4183 0 70 3.58172 70 8V62C70 66.4183 66.4183 70 62 70H8C3.58172 70 0 66.4183 0 62V8Z" fill="#0077B5"/>
<path d="M18 20.4353C18 19.0901 19.1177 18 20.4969 18H49.5031C50.8822 18 52 19.0901 52 20.4353V49.5648C52 50.9099 50.8822 52 49.5031 52H20.4969C19.1177 52 18 50.9099 18 49.5648V20.4353ZM28.5039 46.4622V31.1091H23.4018V46.4622H28.5039ZM25.9539 29.0118C27.7325 29.0118 28.8396 27.8345 28.8396 26.3597C28.8077 24.8531 27.7346 23.7078 25.9879 23.7078C24.2411 23.7078 23.1 24.8552 23.1 26.3597C23.1 27.8345 24.2071 29.0118 25.9199 29.0118H25.9539ZM36.3834 46.4622V37.8879C36.3834 37.4289 36.4174 36.9699 36.5534 36.6426C36.921 35.7267 37.7604 34.7769 39.1714 34.7769C41.018 34.7769 41.7554 36.1836 41.7554 38.2491V46.4622H46.8575V37.6562C46.8575 32.9388 44.3415 30.7458 40.984 30.7458C38.2768 30.7458 37.0634 32.2332 36.3834 33.2809V33.334H36.3494L36.3834 33.2809V31.1091H31.2834C31.3471 32.5499 31.2834 46.4622 31.2834 46.4622H36.3834Z" fill="white"/>
</svg>
