<svg width="70" height="70" viewBox="0 0 70 70" fill="none" xmlns="http://www.w3.org/2000/svg">
<path d="M0 8C0 3.58172 3.58172 0 8 0H62C66.4183 0 70 3.58172 70 8V62C70 66.4183 66.4183 70 62 70H8C3.58172 70 0 66.4183 0 62V8Z" fill="#E60023"/>
<path d="M35.0116 18C31.0477 17.9975 27.2074 19.3801 24.1549 21.9089C21.1024 24.4376 19.0295 27.9535 18.2947 31.8486C17.5599 35.7436 18.2093 39.773 20.1306 43.24C22.052 46.707 25.1245 49.3937 28.8169 50.8355C28.6682 49.4904 28.5322 47.4228 28.8743 45.9544C29.1846 44.6263 30.8677 37.5033 30.8677 37.5033C30.8677 37.5033 30.3598 36.4854 30.3598 34.9809C30.3598 32.6158 31.7305 30.852 33.4369 30.852C34.8862 30.852 35.5875 31.94 35.5875 33.2469C35.5875 34.7046 34.6588 36.8849 34.1786 38.9058C33.7791 40.5973 35.0286 41.9785 36.6968 41.9785C39.7187 41.9785 42.0414 38.791 42.0414 34.1925C42.0414 30.1231 39.1152 27.2778 34.9394 27.2778C30.1026 27.2778 27.2635 30.9051 27.2635 34.6536C27.2635 36.1156 27.8266 37.6818 28.5279 38.5339C28.5883 38.5981 28.631 38.6769 28.6519 38.7626C28.6727 38.8482 28.671 38.9378 28.6469 39.0226C28.5173 39.5581 28.2304 40.7141 28.1752 40.95C28.1008 41.2603 27.9287 41.3261 27.6056 41.1774C25.4805 40.1893 24.1545 37.0846 24.1545 34.5899C24.1545 29.2285 28.0519 24.3049 35.3878 24.3049C41.2849 24.3049 45.8687 28.506 45.8687 34.1224C45.8687 39.981 42.1732 44.6964 37.0475 44.6964C35.324 44.6964 33.7047 43.8018 33.15 42.7435L32.0917 46.7853C31.7071 48.2621 30.67 50.113 29.9773 51.2414C32.3148 51.9641 34.7808 52.1738 37.2068 51.8561C39.6329 51.5384 41.9617 50.7008 44.0343 49.4005C46.1069 48.1002 47.8744 46.3679 49.2161 44.322C50.5578 42.276 51.442 39.9645 51.8083 37.5455C52.1747 35.1264 52.0146 32.6568 51.3389 30.3054C50.6632 27.9539 49.4879 25.7759 47.8933 23.9203C46.2986 22.0647 44.3222 20.5752 42.099 19.5534C39.8759 18.5317 37.4583 18.0018 35.0116 18Z" fill="white"/>
</svg>
