<svg width="18" height="18" viewBox="0 0 18 18" fill="none" xmlns="http://www.w3.org/2000/svg">
<path d="M8.99707 0.9375C9.78405 0.9375 10.4039 1.5319 10.7996 2.33393L12.1212 4.99887C12.1612 5.08135 12.2563 5.19749 12.3991 5.30373C12.5417 5.40986 12.6814 5.46841 12.7733 5.48385L15.1655 5.8846C16.0297 6.0298 16.7539 6.45337 16.9891 7.19093C17.224 7.92788 16.8798 8.6937 16.2583 9.3162L16.2577 9.31688L14.3993 11.1907C14.3257 11.2649 14.2432 11.4048 14.1914 11.5871C14.14 11.7681 14.1355 11.933 14.1588 12.0395L14.1591 12.041L14.6908 14.3591C14.9113 15.3238 14.8382 16.2805 14.1578 16.7807C13.475 17.2825 12.542 17.06 11.6944 16.5552L9.45195 15.2168C9.35775 15.1605 9.19605 15.1149 9.00082 15.1149C8.80702 15.1149 8.64195 15.1599 8.5416 15.2183L8.54017 15.2191L6.30216 16.5549C5.45553 17.0615 4.52365 17.28 3.84083 16.7777C3.16087 16.2774 3.0841 15.3225 3.30533 14.3585L3.83692 12.041L3.83725 12.0395C3.86056 11.933 3.856 11.7681 3.8046 11.5871C3.75285 11.4048 3.67034 11.2649 3.59668 11.1907L1.73689 9.31545C1.11949 8.69295 0.776405 7.9278 1.00946 7.19194C1.24319 6.45394 1.96607 6.02985 2.83075 5.88455L5.22099 5.48414L5.22175 5.48402C5.30938 5.46881 5.44702 5.41092 5.58936 5.30451C5.73196 5.19791 5.82719 5.08151 5.86734 4.99887L5.86936 4.99475L7.18921 2.33323L7.18974 2.33218C7.58925 1.53081 8.211 0.9375 8.99707 0.9375Z" fill="black"/>
</svg>
