<svg width="52" height="52" viewBox="0 0 52 52" fill="none" xmlns="http://www.w3.org/2000/svg">
<mask id="path-1-inside-1_1_3529" fill="white">
<path d="M34.0566 12.1597L43.3486 5.11284L50.7177 14.8298L41.3273 21.9513L52 23.4178L50.3399 35.4993L39.8403 34.0566L46.8609 43.3139L37.144 50.6831L30.0487 41.3274L28.5822 52L16.5007 50.3399L17.9672 39.6673L8.61146 46.7625L1.24231 37.0456L10.4996 30.025L-9.72208e-06 28.5823L1.66009 16.5007L12.3327 17.9672L5.21123 8.57682L14.9281 1.20766L21.975 10.4996L23.4177 1.39622e-05L35.4993 1.66011L34.0566 12.1597ZM31.7542 21.8149C29.38 18.6848 24.9178 18.0715 21.7875 20.4454C18.6572 22.8194 18.0442 27.2817 20.418 30.4121C22.792 33.5426 27.2542 34.1557 30.3847 31.7816C33.5151 29.4076 34.1282 24.9453 31.7542 21.8149Z"/>
</mask>
<path d="M34.0566 12.1597L43.3486 5.11284L50.7177 14.8298L41.3273 21.9513L52 23.4178L50.3399 35.4993L39.8403 34.0566L46.8609 43.3139L37.144 50.6831L30.0487 41.3274L28.5822 52L16.5007 50.3399L17.9672 39.6673L8.61146 46.7625L1.24231 37.0456L10.4996 30.025L-9.72208e-06 28.5823L1.66009 16.5007L12.3327 17.9672L5.21123 8.57682L14.9281 1.20766L21.975 10.4996L23.4177 1.39622e-05L35.4993 1.66011L34.0566 12.1597ZM31.7542 21.8149C29.38 18.6848 24.9178 18.0715 21.7875 20.4454C18.6572 22.8194 18.0442 27.2817 20.418 30.4121C22.792 33.5426 27.2542 34.1557 30.3847 31.7816C33.5151 29.4076 34.1282 24.9453 31.7542 21.8149Z" fill="black"/>
<path d="M34.0566 12.1597L33.0498 12.0214L32.7158 14.452L34.6707 12.9695L34.0566 12.1597ZM43.3486 5.11284L44.1583 4.49875L43.5442 3.68901L42.7345 4.3031L43.3486 5.11284ZM50.7177 14.8298L51.3318 15.6395L52.1415 15.0254L51.5275 14.2157L50.7177 14.8298ZM41.3273 21.9513L40.7133 21.1415L38.7584 22.6241L41.189 22.9581L41.3273 21.9513ZM52 23.4178L53.0068 23.5561L53.1451 22.5493L52.1383 22.411L52 23.4178ZM50.3399 35.4993L50.2016 36.5061L51.2084 36.6445L51.3467 35.6377L50.3399 35.4993ZM39.8403 34.0566L39.9786 33.0498L37.548 32.7158L39.0306 34.6707L39.8403 34.0566ZM46.8609 43.3139L47.475 44.1237L48.2847 43.5096L47.6706 42.6998L46.8609 43.3139ZM37.144 50.6831L36.3342 51.2972L36.9483 52.1069L37.7581 51.4928L37.144 50.6831ZM30.0487 41.3274L30.8585 40.7133L29.3759 38.7584L29.0419 41.189L30.0487 41.3274ZM28.5822 52L28.4439 53.0068L29.4507 53.1452L29.589 52.1384L28.5822 52ZM16.5007 50.3399L15.4939 50.2016L15.3555 51.2084L16.3623 51.3467L16.5007 50.3399ZM17.9672 39.6673L18.974 39.8056L19.308 37.375L17.3531 38.8575L17.9672 39.6673ZM8.61146 46.7625L7.80173 47.3766L8.41582 48.1863L9.22556 47.5722L8.61146 46.7625ZM1.24231 37.0456L0.628214 36.2358L-0.181522 36.8499L0.432569 37.6597L1.24231 37.0456ZM10.4996 30.025L11.1137 30.8347L13.0686 29.3522L10.6379 29.0182L10.4996 30.025ZM-9.72208e-06 28.5823L-1.00681 28.4439L-1.14515 29.4507L-0.138351 29.5891L-9.72208e-06 28.5823ZM1.66009 16.5007L1.79843 15.4939L0.791633 15.3555L0.653292 16.3623L1.66009 16.5007ZM12.3327 17.9672L12.1944 18.974L14.625 19.308L13.1425 17.3531L12.3327 17.9672ZM5.21123 8.57682L4.59714 7.76709L3.7874 8.38118L4.40149 9.19091L5.21123 8.57682ZM14.9281 1.20766L15.7379 0.59357L15.1238 -0.216166L14.314 0.397925L14.9281 1.20766ZM21.975 10.4996L21.1653 11.1137L22.6478 13.0686L22.9818 10.638L21.975 10.4996ZM23.4177 1.39622e-05L23.5561 -1.00678L22.5493 -1.14513L22.4109 -0.138328L23.4177 1.39622e-05ZM35.4993 1.66011L36.5061 1.79846L36.6445 0.791657L35.6377 0.653315L35.4993 1.66011ZM31.7542 21.8149L32.5639 21.2008L32.5639 21.2008L31.7542 21.8149ZM21.7875 20.4454L21.1734 19.6357L21.1734 19.6357L21.7875 20.4454ZM20.418 30.4121L19.6082 31.0262L19.6082 31.0262L20.418 30.4121ZM30.3847 31.7816L30.9988 32.5914L30.9988 32.5914L30.3847 31.7816ZM34.0566 12.1597L34.6707 12.9695L43.9627 5.92258L43.3486 5.11284L42.7345 4.3031L33.4425 11.35L34.0566 12.1597ZM43.3486 5.11284L42.5388 5.72693L49.908 15.4438L50.7177 14.8298L51.5275 14.2157L44.1583 4.49875L43.3486 5.11284ZM50.7177 14.8298L50.1036 14.02L40.7133 21.1415L41.3273 21.9513L41.9414 22.761L51.3318 15.6395L50.7177 14.8298ZM41.3273 21.9513L41.189 22.9581L51.8617 24.4246L52 23.4178L52.1383 22.411L41.4657 20.9445L41.3273 21.9513ZM52 23.4178L50.9932 23.2794L49.3331 35.361L50.3399 35.4993L51.3467 35.6377L53.0068 23.5561L52 23.4178ZM50.3399 35.4993L50.4782 34.4926L39.9786 33.0498L39.8403 34.0566L39.702 35.0634L50.2016 36.5061L50.3399 35.4993ZM39.8403 34.0566L39.0306 34.6707L46.0511 43.928L46.8609 43.3139L47.6706 42.6998L40.65 33.4425L39.8403 34.0566ZM46.8609 43.3139L46.2468 42.5042L36.5299 49.8733L37.144 50.6831L37.7581 51.4928L47.475 44.1237L46.8609 43.3139ZM37.144 50.6831L37.9537 50.069L30.8585 40.7133L30.0487 41.3274L29.239 41.9415L36.3342 51.2972L37.144 50.6831ZM30.0487 41.3274L29.0419 41.189L27.5754 51.8617L28.5822 52L29.589 52.1384L31.0555 41.4657L30.0487 41.3274ZM28.5822 52L28.7206 50.9932L16.639 49.3331L16.5007 50.3399L16.3623 51.3467L28.4439 53.0068L28.5822 52ZM16.5007 50.3399L17.5075 50.4783L18.974 39.8056L17.9672 39.6673L16.9604 39.5289L15.4939 50.2016L16.5007 50.3399ZM17.9672 39.6673L17.3531 38.8575L7.99737 45.9528L8.61146 46.7625L9.22556 47.5722L18.5813 40.477L17.9672 39.6673ZM8.61146 46.7625L9.4212 46.1484L2.05204 36.4315L1.24231 37.0456L0.432569 37.6597L7.80173 47.3766L8.61146 46.7625ZM1.24231 37.0456L1.8564 37.8553L11.1137 30.8347L10.4996 30.025L9.88551 29.2153L0.628214 36.2358L1.24231 37.0456ZM10.4996 30.025L10.6379 29.0182L0.138332 27.5755L-9.72208e-06 28.5823L-0.138351 29.5891L10.3613 31.0318L10.4996 30.025ZM-9.72208e-06 28.5823L1.00679 28.7206L2.66689 16.639L1.66009 16.5007L0.653292 16.3623L-1.00681 28.4439L-9.72208e-06 28.5823ZM1.66009 16.5007L1.52175 17.5075L12.1944 18.974L12.3327 17.9672L12.4711 16.9604L1.79843 15.4939L1.66009 16.5007ZM12.3327 17.9672L13.1425 17.3531L6.02096 7.96273L5.21123 8.57682L4.40149 9.19091L11.523 18.5813L12.3327 17.9672ZM5.21123 8.57682L5.82532 9.38656L15.5422 2.0174L14.9281 1.20766L14.314 0.397925L4.59714 7.76709L5.21123 8.57682ZM14.9281 1.20766L14.1184 1.82175L21.1653 11.1137L21.975 10.4996L22.7848 9.88553L15.7379 0.59357L14.9281 1.20766ZM21.975 10.4996L22.9818 10.638L24.4245 0.138356L23.4177 1.39622e-05L22.4109 -0.138328L20.9682 10.3613L21.975 10.4996ZM23.4177 1.39622e-05L23.2794 1.00681L35.361 2.66691L35.4993 1.66011L35.6377 0.653315L23.5561 -1.00678L23.4177 1.39622e-05ZM35.4993 1.66011L34.4925 1.52177L33.0498 12.0214L34.0566 12.1597L35.0634 12.2981L36.5061 1.79846L35.4993 1.66011ZM31.7542 21.8149L32.5639 21.2008C29.8506 17.6236 24.7509 16.9226 21.1734 19.6357L21.7875 20.4454L22.4016 21.2552C25.0846 19.2204 28.9095 19.7461 30.9445 22.4291L31.7542 21.8149ZM21.7875 20.4454L21.1734 19.6357C17.5958 22.3489 16.8954 27.4486 19.6082 31.0262L20.418 30.4121L21.2277 29.7981C19.1931 27.1148 19.7185 23.2899 22.4016 21.2552L21.7875 20.4454ZM20.418 30.4121L19.6082 31.0262C22.3215 34.6039 27.4211 35.3046 30.9988 32.5914L30.3847 31.7816L29.7706 30.9719C27.0874 33.0068 23.2626 32.4813 21.2277 29.798L20.418 30.4121ZM30.3847 31.7816L30.9988 32.5914C34.5764 29.8781 35.2771 24.7785 32.5639 21.2008L31.7542 21.8149L30.9444 22.429C32.9794 25.1122 32.4538 28.937 29.7706 30.9719L30.3847 31.7816Z" fill="black" mask="url(#path-1-inside-1_1_3529)"/>
</svg>
