<svg width="60" height="60" viewBox="0 0 60 60" fill="none" xmlns="http://www.w3.org/2000/svg">
<path d="M29.9911 5.21346e-06C24.699 -0.00236883 19.5005 1.39665 14.9241 4.05491C10.3476 6.71316 6.55618 10.5359 3.9351 15.1347C1.31401 19.7334 -0.0433106 24.9443 0.00105366 30.2377C0.0454179 35.5312 1.48989 40.7186 4.18768 45.2727L0.166127 56.34C0.0162817 56.7518 -0.0321313 57.1937 0.0249889 57.6283C0.0821091 58.0628 0.24308 58.4772 0.494268 58.8363C0.745455 59.1954 1.07946 59.4886 1.46799 59.6912C1.85653 59.8938 2.28815 59.9997 2.72629 60C3.04418 59.9992 3.35957 59.9439 3.65875 59.8364L14.7228 55.8109C18.6936 58.1639 23.1537 59.5684 27.7559 59.9152C32.3581 60.262 36.9782 59.5417 41.2565 57.8103C45.5349 56.0789 49.3561 53.3832 52.4226 49.933C55.4891 46.4828 57.7183 42.3713 58.9364 37.9184C60.1546 33.4655 60.329 28.7915 59.446 24.2602C58.563 19.7289 56.6464 15.4626 53.8455 11.7934C51.0445 8.12421 47.4348 5.15111 43.2974 3.10558C39.1599 1.06006 34.6063 -0.00271624 29.9911 5.21346e-06Z" fill="#1F8F5B"/>
</svg>
