<svg width="70" height="70" viewBox="0 0 70 70" fill="none" xmlns="http://www.w3.org/2000/svg">
<path d="M0 8C0 3.58172 3.58172 0 8 0H62C66.4183 0 70 3.58172 70 8V62C70 66.4183 66.4183 70 62 70H8C3.58172 70 0 66.4183 0 62V8Z" fill="#1877F2"/>
<path d="M52 35.1041C52 25.6575 44.3892 18 35.0021 18C25.6108 18.0021 18 25.6575 18 35.1062C18 43.6413 24.217 50.7167 32.342 52V40.0484H28.0287V35.1062H32.3462V31.3348C32.3462 27.0492 34.8853 24.6823 38.7672 24.6823C40.6284 24.6823 42.5726 25.0159 42.5726 25.0159V29.2228H40.4287C38.3188 29.2228 37.6602 30.5423 37.6602 31.8958V35.1041H42.3728L41.6207 40.0462H37.658V51.9979C45.783 50.7145 52 43.6392 52 35.1041Z" fill="white"/>
</svg>
