<svg width="1530" height="550" viewBox="0 0 1530 550" fill="none" xmlns="http://www.w3.org/2000/svg">
<rect width="1530" height="550" rx="30" fill="#D9D9D9"/>
<path opacity="0.4" d="M733.646 275C733.646 257.684 747.684 243.646 765 243.646C782.317 243.646 796.354 257.684 796.354 275C796.354 292.317 782.317 306.354 765 306.354C747.684 306.354 733.646 292.317 733.646 275Z" fill="black"/>
<path d="M777.943 276.316C777.354 278.405 774.57 279.882 769.001 282.834C763.618 285.688 760.927 287.115 758.758 286.542C757.861 286.305 757.044 285.854 756.385 285.234C754.792 283.733 754.792 280.822 754.792 275C754.792 269.178 754.792 266.267 756.385 264.767C757.044 264.146 757.861 263.696 758.758 263.459C760.927 262.885 763.618 264.312 769.001 267.166C774.57 270.119 777.354 271.595 777.943 273.684C778.186 274.547 778.186 275.454 777.943 276.316Z" fill="black"/>
</svg>
