<svg width="221" height="43" viewBox="0 0 221 43" fill="none" xmlns="http://www.w3.org/2000/svg">
<g filter="url(#filter0_d_1_3785)">
<path d="M213.799 0.000557375H7.20072C6.25933 -0.0112467 5.32497 0.164547 4.45184 0.517747C3.5787 0.870948 2.78418 1.39453 2.11434 2.05811C1.4445 2.72169 0.912682 3.51206 0.549733 4.38339C0.186784 5.25472 -7.35332e-05 6.18967 2.17073e-08 7.134V35.6678C2.17073e-08 37.5597 0.749281 39.3741 2.08301 40.7119C3.41673 42.0497 5.22565 42.8012 7.11183 42.8012H213.799C214.741 42.813 215.675 42.6372 216.548 42.284C217.421 41.9308 218.216 41.4072 218.886 40.7437C219.556 40.0801 220.087 39.2897 220.45 38.4184C220.813 37.547 221 36.6121 221 35.6678V7.134C221 5.24209 220.251 3.42767 218.917 2.08989C217.583 0.752109 215.774 0.000557375 213.888 0.000557375H213.799Z" fill="white"/>
<path d="M7.19574 0.422473H213.888C215.662 0.422473 217.364 1.1297 218.618 2.38815C219.873 3.64662 220.578 5.35388 220.578 7.13413V35.6677C220.578 36.5563 220.402 37.4365 220.061 38.2563C219.719 39.0761 219.219 39.8198 218.589 40.444C217.959 41.0682 217.211 41.5601 216.389 41.8923C215.568 42.2244 214.69 42.3904 213.805 42.3794H7.11163C5.33798 42.3793 3.63686 41.672 2.38228 40.4137C1.1276 39.1552 0.422473 37.448 0.422473 35.6677V7.13413C0.422404 6.24552 0.598304 5.36535 0.939808 4.5455C1.28131 3.72578 1.78157 2.98199 2.41162 2.35783C3.04165 1.73374 3.78902 1.24165 4.61004 0.909491C5.43124 0.577302 6.31042 0.411372 7.19574 0.422473Z" stroke="black" stroke-width="0.843333"/>
</g>
<defs>
<filter id="filter0_d_1_3785" x="0" y="0" width="222.689" height="44.4908" filterUnits="userSpaceOnUse" color-interpolation-filters="sRGB">
<feFlood flood-opacity="0" result="BackgroundImageFix"/>
<feColorMatrix in="SourceAlpha" type="matrix" values="0 0 0 0 0 0 0 0 0 0 0 0 0 0 0 0 0 0 127 0" result="hardAlpha"/>
<feOffset dx="1.68667" dy="1.68667"/>
<feComposite in2="hardAlpha" operator="out"/>
<feColorMatrix type="matrix" values="0 0 0 0 0 0 0 0 0 0 0 0 0 0 0 0 0 0 1 0"/>
<feBlend mode="normal" in2="BackgroundImageFix" result="effect1_dropShadow_1_3785"/>
<feBlend mode="normal" in="SourceGraphic" in2="effect1_dropShadow_1_3785" result="shape"/>
</filter>
</defs>
</svg>
