<svg width="44" height="24" viewBox="0 0 44 24" fill="none" xmlns="http://www.w3.org/2000/svg">
<mask id="mask0_1_3201" style="mask-type:alpha" maskUnits="userSpaceOnUse" x="-12" y="-42" width="67" height="66">
<path fill-rule="evenodd" clip-rule="evenodd" d="M54.5852 -17.7342C54.0383 -19.4851 53.0219 -21.0583 51.6431 -22.2882C50.2643 -23.518 48.5741 -24.359 46.7506 -24.7223C47.0606 -26.5111 46.863 -28.3493 46.1796 -30.0345C45.4961 -31.7197 44.3534 -33.1864 42.8773 -34.2729C41.2636 -35.4688 39.3396 -36.1916 37.3269 -36.358C35.3143 -36.5244 33.2948 -36.1276 31.5011 -35.2133C30.67 -36.9342 29.3763 -38.3984 27.7604 -39.4471C26.1444 -40.4958 24.2678 -41.0891 22.3338 -41.1627C20.3999 -41.2362 18.4824 -40.7872 16.7891 -39.8644C15.0958 -38.9415 13.6913 -37.58 12.7278 -35.9273C11.0255 -36.7132 9.14333 -37.0446 7.26995 -36.8883C5.39658 -36.7319 3.59787 -36.0934 2.0542 -35.0367C0.534823 -34.0074 -0.666906 -32.5856 -1.41887 -30.9275C-2.17083 -29.2695 -2.44391 -27.4394 -2.20807 -25.6384C-4.0459 -25.3432 -5.76917 -24.5665 -7.19705 -23.3896C-8.62493 -22.2127 -9.70478 -20.6792 -10.3233 -18.9498C-10.9193 -17.2365 -11.0209 -15.394 -10.6167 -13.6272C-10.2125 -11.8605 -9.31847 -10.2388 -8.03397 -8.9426C-9.34445 -7.67141 -10.2714 -6.06739 -10.7117 -4.30875C-11.1521 -2.5501 -11.0887 -0.705671 -10.5285 1.01962C-9.94561 2.76024 -8.89709 4.31402 -7.49322 5.51754C-6.08936 6.72107 -4.38204 7.52985 -2.55084 7.85883C-2.82374 9.65375 -2.58837 11.488 -1.87061 13.1597C-1.15286 14.8314 0.0194383 16.2756 1.51722 17.3335C3.03992 18.4193 4.82587 19.0916 6.69585 19.283C8.56582 19.4744 10.454 19.1781 12.171 18.424C13.0708 20.0346 14.386 21.3832 15.984 22.3338C17.582 23.2843 19.4063 23.8032 21.273 23.8381C23.1396 23.8731 24.9826 23.4228 26.6162 22.5328C28.2497 21.6427 29.616 20.3443 30.5774 18.7685C32.2644 19.5859 34.14 19.9524 36.0162 19.8312C37.8924 19.7101 39.7033 19.1056 41.2675 18.0784C42.8072 17.0777 44.0373 15.6789 44.8228 14.0353C45.6084 12.3916 45.919 10.5668 45.7206 8.76079C47.565 8.50003 49.3042 7.75579 50.7561 6.60602C52.208 5.45626 53.3192 3.94327 53.9734 2.22549C54.6044 0.524835 54.7437 -1.31489 54.3758 -3.08887C54.0078 -4.86285 53.1471 -6.50148 51.8893 -7.82232C53.2252 -9.06804 54.1844 -10.6539 54.6603 -12.4039C55.1362 -14.1539 55.1102 -15.9995 54.5852 -17.7358" fill="#E13F00"/>
</mask>
<g mask="url(#mask0_1_3201)">
<path fill-rule="evenodd" clip-rule="evenodd" d="M43.7233 15.6238C43.3587 14.4565 42.6811 13.4077 41.762 12.5878C40.8428 11.7679 39.716 11.2073 38.5004 10.965C38.7071 9.77272 38.5755 8.54743 38.1201 7.42411C37.6648 6.3008 36.9032 5.32308 35.9195 4.59869C34.8438 3.80123 33.5611 3.3192 32.2193 3.20812C30.8775 3.09704 29.5311 3.36143 28.3352 3.97084C27.781 2.82366 26.9185 1.84768 25.8412 1.14864C24.7639 0.449609 23.5128 0.0541758 22.2236 0.00518036C20.9343 -0.043815 19.656 0.255497 18.5272 0.870691C17.3984 1.48588 16.462 2.3935 15.8197 3.49521C14.6846 2.9715 13.4296 2.75088 12.1806 2.85547C10.9316 2.96006 9.73253 3.38618 8.70358 4.0911C7.69075 4.77732 6.88968 5.72522 6.38844 6.8306C5.8872 7.93597 5.70519 9.15602 5.86243 10.3566C4.63716 10.5533 3.48823 11.0711 2.53624 11.8556C1.58424 12.6402 0.864287 13.6626 0.451926 14.8155C0.0545895 15.9577 -0.0131213 17.186 0.256327 18.3638C0.525776 19.5416 1.12182 20.6227 1.97814 21.4868C1.10447 22.3342 0.486512 23.4036 0.192904 24.576C-0.100704 25.7484 -0.0584638 26.9781 0.314931 28.1283C0.703616 29.2886 1.40269 30.3244 2.33862 31.1267C3.27456 31.929 4.41277 32.4681 5.63356 32.6874C5.45193 33.8836 5.60887 35.106 6.08711 36.2201C6.56536 37.3342 7.34639 38.2969 8.34431 39.0022C9.3595 39.7259 10.5501 40.1739 11.7967 40.3014C13.0433 40.4289 14.3021 40.2314 15.4466 39.7287C16.0465 40.8022 16.9232 41.7011 17.9883 42.3347C19.0535 42.9683 20.2695 43.3141 21.5137 43.3374C22.7579 43.3607 23.9864 43.0606 25.0753 42.4674C26.1641 41.8741 27.0749 41.0087 27.7157 39.9583C28.8404 40.5032 30.0907 40.7476 31.3415 40.6669C32.5922 40.5861 33.7995 40.1832 34.8423 39.4984C35.8692 38.8317 36.6897 37.8993 37.2138 36.8036C37.7379 35.7079 37.9453 34.4912 37.8133 33.2871C39.0429 33.1133 40.2024 32.6172 41.1704 31.8506C42.1383 31.0841 42.8791 30.0753 43.3151 28.93C43.7359 27.7963 43.8288 26.5698 43.5835 25.3872C43.3383 24.2046 42.7644 23.1122 41.9259 22.2317C42.8167 21.4013 43.4564 20.3441 43.7739 19.1775C44.0913 18.0108 44.0742 16.7803 43.7244 15.6227" fill="#CEFC6C"/>
</g>
</svg>
