<svg width="29" height="29" viewBox="0 0 29 29" fill="none" xmlns="http://www.w3.org/2000/svg">
<path fill-rule="evenodd" clip-rule="evenodd" d="M14.4953 0C14.9646 2.19079e-05 15.42 0.159506 15.7869 0.452319C16.1537 0.745131 16.4103 1.15391 16.5145 1.61165L17.6607 6.65274C17.9205 7.79501 18.4976 8.8406 19.3258 9.66894C20.1539 10.4973 21.1992 11.0746 22.3411 11.3344L27.3808 12.481C27.8383 12.5853 28.2469 12.842 28.5396 13.2089C28.8322 13.5759 28.9916 14.0313 28.9916 14.5008C28.9916 14.9702 28.8322 15.4256 28.5396 15.7926C28.2469 16.1595 27.8383 16.4162 27.3808 16.5205L22.3411 17.6671C21.1992 17.9269 20.1539 18.5042 19.3258 19.3326C18.4976 20.1609 17.9205 21.2065 17.6607 22.3488L16.5145 27.3888C16.4102 27.8465 16.1536 28.2552 15.7868 28.5479C15.4199 28.8406 14.9646 29 14.4953 29C14.026 29 13.5706 28.8406 13.2038 28.5479C12.8369 28.2552 12.5804 27.8465 12.4761 27.3888L11.3298 22.3488C11.0701 21.2065 10.4929 20.1609 9.6648 19.3326C8.83669 18.5042 7.79139 17.9269 6.64944 17.6671L1.61078 16.5205C1.15324 16.4162 0.744676 16.1595 0.452028 15.7926C0.159379 15.4256 0 14.9702 0 14.5008C0 14.0313 0.159379 13.5759 0.452028 13.2089C0.744676 12.842 1.15324 12.5853 1.61078 12.481L6.64944 11.3344C7.79139 11.0746 8.83669 10.4973 9.6648 9.66894C10.4929 8.8406 11.0701 7.79501 11.3298 6.65274L12.4761 1.61269C12.5801 1.15475 12.8365 0.74574 13.2034 0.452724C13.5703 0.159708 14.0258 7.53127e-05 14.4953 0Z" fill="#CEFC6C"/>
</svg>
