<svg width="17" height="17" viewBox="0 0 17 17" fill="none" xmlns="http://www.w3.org/2000/svg">
<g clip-path="url(#clip0_1_3807)">
<path d="M9.9316 14.3359L10.1473 13.1349C10.2616 12.4978 10.1183 11.8414 9.74869 11.3101C9.37911 10.7787 8.81358 10.4159 8.17652 10.3015L4.57347 9.65458C3.93642 9.54019 3.28001 9.68356 2.74866 10.0531C2.2173 10.4227 1.85453 10.9883 1.74014 11.6253L1.52449 12.8263M13.5346 14.9828L13.7503 13.7818C13.8455 13.2495 13.7612 12.7007 13.5106 12.2215C13.2601 11.7424 12.8575 11.36 12.3661 11.1344M11.8584 3.60481C12.3514 3.82988 12.7554 4.2126 13.0068 4.69265C13.2582 5.17269 13.3426 5.72275 13.2469 6.2561C13.1511 6.78945 12.8805 7.27576 12.4778 7.63836C12.0752 8.00096 11.5632 8.21923 11.0228 8.25875M9.63963 5.6053C9.40143 6.9319 8.13291 7.81423 6.8063 7.57603C5.4797 7.33783 4.59737 6.0693 4.83557 4.74269C5.07377 3.41609 6.3423 2.53376 7.66891 2.77196C8.99551 3.01017 9.87784 4.27869 9.63963 5.6053Z" stroke="white" stroke-linecap="round" stroke-linejoin="round"/>
</g>
<defs>
<clipPath id="clip0_1_3807">
<rect width="14" height="14" fill="white" transform="translate(2.58782) scale(1.04591) rotate(10.1794)"/>
</clipPath>
</defs>
</svg>
