<svg width="69" height="68" viewBox="0 0 69 68" fill="none" xmlns="http://www.w3.org/2000/svg">
<path fill-rule="evenodd" clip-rule="evenodd" d="M67.0674 24.935C66.5207 23.1848 65.5048 21.6122 64.1265 20.3829C62.7483 19.1535 61.0588 18.313 59.2361 17.9497C59.5459 16.1617 59.3484 14.3242 58.6653 12.6397C57.9821 10.9553 56.8398 9.4892 55.3644 8.40318C53.7513 7.20773 51.8281 6.48524 49.8163 6.31892C47.8045 6.15261 45.7858 6.54925 43.9929 7.46315C43.1621 5.74291 41.869 4.27935 40.2537 3.23107C38.6385 2.18278 36.7626 1.58975 34.8295 1.51623C32.8963 1.44271 30.9796 1.8915 29.287 2.81398C27.5944 3.73646 26.1905 5.09745 25.2274 6.74946C23.5258 5.96389 21.6444 5.63262 19.7718 5.78887C17.8992 5.94512 16.1013 6.58339 14.5582 7.63967C13.0395 8.6685 11.8383 10.0897 11.0866 11.7471C10.335 13.4045 10.062 15.2338 10.2977 17.0341C8.46066 17.3291 6.73811 18.1055 5.31082 19.2819C3.88354 20.4583 2.80414 21.9912 2.18589 23.7199C1.59011 25.4325 1.48857 27.2742 1.89257 29.0402C2.29658 30.8062 3.19028 32.4272 4.47425 33.7229C3.16432 34.9936 2.2378 36.5969 1.79762 38.3548C1.35743 40.1128 1.42083 41.9564 1.98075 43.681C2.56341 45.4209 3.61149 46.974 5.01478 48.177C6.41806 49.3801 8.12467 50.1885 9.95511 50.5174C9.68231 52.3115 9.91759 54.145 10.635 55.816C11.3525 57.487 12.5243 58.9307 14.0215 59.9881C15.5435 61.0734 17.3287 61.7454 19.1979 61.9368C21.0671 62.1281 22.9546 61.832 24.6708 61.0781C25.5703 62.6881 26.8849 64.0361 28.4823 64.9863C30.0796 65.9364 31.9032 66.4551 33.769 66.49C35.6349 66.525 37.4771 66.0749 39.11 65.1852C40.7428 64.2955 42.1086 62.9977 43.0696 61.4225C44.7559 62.2395 46.6307 62.6059 48.5061 62.4848C50.3815 62.3637 52.1917 61.7595 53.7552 60.7326C55.2943 59.7324 56.5239 58.3341 57.3091 56.6912C58.0943 55.0483 58.4048 53.2242 58.2065 51.4189C60.0501 51.1583 61.7886 50.4144 63.2399 49.2651C64.6912 48.1158 65.802 46.6034 66.4559 44.8864C67.0866 43.1864 67.2259 41.3475 66.8581 39.5742C66.4903 37.801 65.6299 36.163 64.3726 34.8427C65.708 33.5975 66.6667 32.0123 67.1424 30.2631C67.6181 28.5138 67.5922 26.669 67.0674 24.9334" fill="#1F8F5B"/>
<path d="M67.0674 24.935C66.5207 23.1848 65.5048 21.6122 64.1265 20.3829C62.7483 19.1535 61.0588 18.313 59.2361 17.9497C59.5459 16.1617 59.3484 14.3242 58.6653 12.6397C57.9821 10.9553 56.8398 9.4892 55.3644 8.40318C53.7513 7.20773 51.8281 6.48524 49.8163 6.31892C47.8045 6.15261 45.7858 6.54925 43.9929 7.46315C43.1621 5.74291 41.869 4.27935 40.2537 3.23107C38.6385 2.18278 36.7626 1.58975 34.8295 1.51623C32.8963 1.44271 30.9796 1.8915 29.287 2.81398C27.5944 3.73646 26.1905 5.09745 25.2274 6.74946C23.5258 5.96389 21.6444 5.63262 19.7718 5.78887C17.8992 5.94512 16.1013 6.58339 14.5582 7.63967C13.0395 8.6685 11.8383 10.0897 11.0866 11.7471C10.335 13.4045 10.062 15.2338 10.2977 17.0341C8.46066 17.3291 6.73811 18.1055 5.31082 19.2819C3.88354 20.4583 2.80414 21.9912 2.18589 23.7199C1.59011 25.4325 1.48857 27.2742 1.89257 29.0402C2.29658 30.8062 3.19028 32.4272 4.47425 33.7229C3.16432 34.9936 2.2378 36.5969 1.79762 38.3548C1.35743 40.1128 1.42083 41.9564 1.98075 43.681C2.56341 45.4209 3.61149 46.974 5.01478 48.177C6.41806 49.3801 8.12467 50.1885 9.95511 50.5174C9.68231 52.3115 9.91759 54.145 10.635 55.816C11.3525 57.487 12.5243 58.9307 14.0215 59.9881C15.5435 61.0734 17.3287 61.7454 19.1979 61.9368C21.0671 62.1281 22.9546 61.832 24.6708 61.0781C25.5703 62.6881 26.8849 64.0361 28.4823 64.9863C30.0796 65.9364 31.9032 66.4551 33.769 66.49C35.6349 66.525 37.4771 66.0749 39.11 65.1852C40.7428 64.2955 42.1086 62.9977 43.0696 61.4225C44.7559 62.2395 46.6307 62.6059 48.5061 62.4848C50.3815 62.3637 52.1917 61.7595 53.7552 60.7326C55.2943 59.7324 56.5239 58.3341 57.3091 56.6912C58.0943 55.0483 58.4048 53.2242 58.2065 51.4189C60.0501 51.1583 61.7886 50.4144 63.2399 49.2651C64.6912 48.1158 65.802 46.6034 66.4559 44.8864C67.0866 43.1864 67.2259 41.3475 66.8581 39.5742C66.4903 37.801 65.6299 36.163 64.3726 34.8427C65.708 33.5975 66.6667 32.0123 67.1424 30.2631C67.6181 28.5138 67.5922 26.669 67.0674 24.9334" stroke="#CEFC6C" stroke-width="3" stroke-linejoin="round"/>
</svg>
