<svg width="70" height="70" viewBox="0 0 70 70" fill="none" xmlns="http://www.w3.org/2000/svg">
<path d="M0 8C0 3.58172 3.58172 0 8 0H62C66.4183 0 70 3.58172 70 8V62C70 66.4183 66.4183 70 62 70H8C3.58172 70 0 66.4183 0 62V8Z" fill="#25D366"/>
<path d="M47.0328 22.9429C45.4673 21.3693 43.6027 20.1218 41.5477 19.2732C39.4928 18.4246 37.2887 17.9918 35.064 18.0001C25.7422 18.0001 18.1452 25.5608 18.1366 34.8428C18.1366 37.8157 18.9179 40.7078 20.3929 43.2684L18 52L26.9739 49.6583C29.4553 51.006 32.2373 51.7111 35.064 51.7089H35.0726C44.3965 51.7089 51.9915 44.1482 52 34.8577C52.0019 32.6436 51.5638 30.451 50.7109 28.4061C49.8581 26.3612 48.6094 24.5045 47.0328 22.9429ZM35.064 48.8571C32.5434 48.8552 30.0695 48.18 27.9003 46.9021L27.388 46.5961L22.0643 47.9859L23.4859 42.8158L23.1529 42.2824C21.7437 40.0519 20.9984 37.4694 21.0034 34.8343C21.0034 27.1291 27.3154 20.8434 35.0726 20.8434C36.9206 20.8401 38.751 21.2009 40.4582 21.9052C42.1655 22.6095 43.7158 23.6432 45.0198 24.9467C46.3281 26.2454 47.3653 27.789 48.0717 29.4885C48.778 31.1881 49.1395 33.0099 49.1354 34.8492C49.1268 42.582 42.8148 48.8571 35.064 48.8571ZM42.7806 38.3724C42.3601 38.162 40.2831 37.1442 39.8925 36.9997C39.504 36.8616 39.2201 36.7893 38.9426 37.2101C38.6587 37.6287 37.8476 38.5828 37.6042 38.8569C37.3609 39.1395 37.109 39.1714 36.6863 38.9632C36.2658 38.7507 34.9018 38.3087 33.288 36.8701C32.0286 35.7544 31.1855 34.3732 30.9336 33.9546C30.6902 33.5338 30.9101 33.3086 31.1214 33.0982C31.3071 32.9112 31.5419 32.6052 31.7533 32.3629C31.9667 32.1207 32.0372 31.9422 32.1759 31.6617C32.3147 31.3769 32.2485 31.1347 32.1439 30.9243C32.0372 30.7139 31.194 28.6378 30.8375 27.8006C30.496 26.974 30.148 27.0887 29.8876 27.0781C29.6443 27.0632 29.3604 27.0632 29.0765 27.0632C28.8621 27.0686 28.6512 27.1181 28.4569 27.2084C28.2626 27.2987 28.0891 27.428 27.9473 27.5881C27.5588 28.0088 26.4722 29.0267 26.4722 31.1028C26.4722 33.1789 27.9878 35.1743 28.2013 35.4569C28.4105 35.7396 31.1769 39.9874 35.4226 41.8149C36.4259 42.2505 37.2157 42.5077 37.8326 42.7032C38.8466 43.0262 39.7623 42.9773 40.4923 42.8732C41.3035 42.7499 42.992 41.8532 43.3484 40.8693C43.6985 39.8833 43.6985 39.0418 43.5918 38.8654C43.4872 38.6869 43.2033 38.5828 42.7806 38.3724Z" fill="white"/>
</svg>
