<svg width="253" height="335" viewBox="0 0 253 335" fill="none" xmlns="http://www.w3.org/2000/svg">
<path d="M224.682 0H28.3182C20.8078 0 13.6049 2.99259 8.29422 8.31943C2.98352 13.6463 0 20.871 0 28.4043L0 306.393C0 313.926 2.98352 321.151 8.29422 326.478C13.6049 331.804 20.8078 334.797 28.3182 334.797H224.682C228.401 334.797 232.083 334.062 235.519 332.635C238.954 331.207 242.076 329.115 244.706 326.478C247.335 323.84 249.421 320.709 250.844 317.263C252.268 313.816 253 310.123 253 306.393V28.4043C253 24.6742 252.268 20.9806 250.844 17.5345C249.421 14.0883 247.335 10.957 244.706 8.31943C242.076 5.68185 238.954 3.5896 235.519 2.16215C232.083 0.734699 228.401 0 224.682 0Z" fill="#F9F8F6"/>
</svg>
