<svg width="70" height="70" viewBox="0 0 70 70" fill="none" xmlns="http://www.w3.org/2000/svg">
<path d="M0 8C0 3.58172 3.58172 0 8 0H62C66.4183 0 70 3.58172 70 8V62C70 66.4183 66.4183 70 62 70H8C3.58172 70 0 66.4183 0 62V8Z" fill="#24A1DE"/>
<path d="M52 35C52 39.5087 50.2089 43.8327 47.0208 47.0208C43.8327 50.2089 39.5087 52 35 52C30.4913 52 26.1673 50.2089 22.9792 47.0208C19.7911 43.8327 18 39.5087 18 35C18 30.4913 19.7911 26.1673 22.9792 22.9792C26.1673 19.7911 30.4913 18 35 18C39.5087 18 43.8327 19.7911 47.0208 22.9792C50.2089 26.1673 52 30.4913 52 35ZM35.6099 30.5503C33.9552 31.2388 30.6501 32.6625 25.6946 34.8215C24.8914 35.1402 24.4699 35.4533 24.4303 35.7607C24.3665 36.2771 25.0146 36.4811 25.8965 36.7595L26.2684 36.8764C27.1354 37.159 28.3041 37.4884 28.9097 37.5011C29.4622 37.5153 30.0771 37.2886 30.7542 36.8211C35.3853 33.696 37.7753 32.1164 37.924 32.0824C38.0303 32.0569 38.179 32.0271 38.2767 32.1164C38.3745 32.2056 38.366 32.3714 38.3554 32.416C38.2916 32.6901 35.748 35.0531 34.4326 36.2771C34.0225 36.6596 33.7314 36.9295 33.6719 36.9911C33.5409 37.1251 33.4077 37.2568 33.2724 37.3864C32.4649 38.1641 31.8614 38.7464 33.3043 39.6984C33.9991 40.1574 34.5559 40.5335 35.1105 40.9117C35.714 41.324 36.3175 41.7341 37.0995 42.2484C37.2978 42.3787 37.4891 42.5112 37.6733 42.6457C38.3766 43.1472 39.012 43.5977 39.7919 43.5255C40.2466 43.483 40.7162 43.058 40.9543 41.783C41.5174 38.7719 42.6245 32.2502 42.8795 29.5621C42.8955 29.3387 42.8863 29.1141 42.8519 28.8927C42.8313 28.7143 42.7449 28.5499 42.6096 28.4316C42.416 28.2987 42.1857 28.2296 41.9509 28.234C41.3134 28.2446 40.3295 28.5868 35.6099 30.5503Z" fill="white"/>
</svg>
