<svg width="20" height="20" viewBox="0 0 20 20" fill="none" xmlns="http://www.w3.org/2000/svg">
<path d="M18.3333 10C18.3333 14.6024 14.6023 18.3333 9.99996 18.3333M18.3333 10C18.3333 5.39763 14.6023 1.66667 9.99996 1.66667M18.3333 10H1.66663M9.99996 18.3333C5.39759 18.3333 1.66663 14.6024 1.66663 10M9.99996 18.3333C7.86016 16.0865 6.66663 13.1027 6.66663 10C6.66663 6.89729 7.86016 3.91346 9.99996 1.66667M9.99996 18.3333C12.1398 16.0865 13.3333 13.1027 13.3333 10C13.3333 6.89729 12.1398 3.91346 9.99996 1.66667M1.66663 10C1.66663 5.39763 5.39759 1.66667 9.99996 1.66667" stroke="white" stroke-width="1.5" stroke-linecap="round" stroke-linejoin="round"/>
</svg>
