<svg width="162" height="36" viewBox="0 0 162 36" fill="none" xmlns="http://www.w3.org/2000/svg">
<path d="M14.6832 15.0706V10.3161H10.3482V4.0932H3.63584V10.3161H0V15.0706H3.63584V28.6118C3.63584 30.3831 3.93105 31.8126 4.52149 32.9002C5.11192 33.9879 5.95096 34.7803 7.03861 35.2775C8.14179 35.7592 9.43142 36 10.9075 36C11.7155 36 12.4535 35.9456 13.1216 35.8369C13.7898 35.7281 14.4113 35.5805 14.9862 35.394L14.9629 30.453C14.7298 30.4996 14.4424 30.5462 14.1005 30.5929C13.7742 30.6239 13.4013 30.6395 12.9818 30.6395C12.3914 30.6395 11.9019 30.5696 11.5135 30.4297C11.125 30.2743 10.8298 30.0024 10.6278 29.614C10.4414 29.2255 10.3482 28.6662 10.3482 27.9359V15.0706H14.6832Z" fill="white"/>
<path d="M15.5133 9.85404V35.5339H22.9595V23.4099C22.9595 20.9597 23.58 19.1618 24.821 18.0162C26.0939 16.8388 27.7486 16.2501 29.7851 16.2501C30.0715 16.2501 30.342 16.266 30.5966 16.2979C30.8512 16.2979 31.1376 16.3138 31.4558 16.3456V9.47219C29.0373 9.47219 26.9849 9.94951 25.2983 10.9041C24.218 11.4953 23.327 12.2692 22.6253 13.2259V9.85404H15.5133Z" fill="white"/>
<path d="M32.1113 35.5339V9.85404H39.5575V35.5339H32.1113Z" fill="white"/>
<path d="M80.9307 10.7132C79.3715 9.88587 77.5736 9.47219 75.537 9.47219C73.0868 9.47219 70.907 10.0609 68.9977 11.2383C67.928 11.9091 67.0236 12.7142 66.2845 13.6536C65.6834 12.6906 64.9172 11.9014 63.9859 11.286C62.2357 10.0768 60.1832 9.47219 57.8284 9.47219C55.7282 9.47219 53.8508 9.9336 52.1961 10.8564C51.2639 11.3682 50.4524 12.0217 49.7617 12.817V9.85404H42.6497V35.5339H50.0959V22.6462C50.0959 21.1188 50.3345 19.8619 50.8118 18.8754C51.2892 17.8889 51.9574 17.157 52.8166 16.6797C53.6758 16.1706 54.6463 15.916 55.7282 15.916C57.2875 15.916 58.4808 16.4092 59.3081 17.3957C60.1673 18.3822 60.5969 19.9096 60.5969 21.978V35.5339H68.0431V22.6462C68.0431 21.1188 68.2818 19.8619 68.7591 18.8754C69.2364 17.8889 69.9046 17.157 70.7638 16.6797C71.623 16.1706 72.5935 15.916 73.6755 15.916C75.2347 15.916 76.4439 16.4092 77.3031 17.3957C78.1623 18.3822 78.5919 19.9096 78.5919 21.978V35.5339H86.0381V24.9115L83.408 25.8841L85.0248 15.1832C84.9108 14.9243 84.7871 14.6753 84.6538 14.4363C83.7628 12.7498 82.5218 11.5088 80.9307 10.7132Z" fill="white"/>
<path d="M89.0835 35.5339L94.0151 16.5484L89.7178 19.1435L91.2313 9.85404H96.0058V12.817C96.6966 12.0217 97.508 11.3682 98.4402 10.8564C100.095 9.9336 101.972 9.47219 104.073 9.47219C106.427 9.47219 108.48 10.0768 110.23 11.286C111.161 11.9014 111.928 12.6906 112.529 13.6536C113.268 12.7142 114.172 11.9091 115.242 11.2383C117.151 10.0609 119.331 9.47219 121.781 9.47219C123.818 9.47219 125.616 9.88587 127.175 10.7132C128.766 11.5088 130.007 12.7498 130.898 14.4363C131.821 16.091 132.282 18.2231 132.282 20.8324V35.5339H124.836V21.978C124.836 19.9096 124.406 18.3822 123.547 17.3957C122.688 16.4092 121.479 15.916 119.92 15.916C118.838 15.916 117.867 16.1706 117.008 16.6797C116.149 17.157 115.481 17.8889 115.003 18.8754C114.526 19.8619 114.287 21.1188 114.287 22.6462V35.5339H106.841V21.978C106.841 19.9096 106.411 18.3822 105.552 17.3957C104.725 16.4092 103.532 15.916 101.972 15.916C100.89 15.916 99.9199 16.1706 99.0607 16.6797C98.2015 17.157 97.5333 17.8889 97.0559 18.8754C96.5786 19.8619 96.34 21.1188 96.34 22.6462V35.5339H89.0835Z" fill="white"/>
<path fill-rule="evenodd" clip-rule="evenodd" d="M140.241 34.1974C142.373 35.3429 144.807 35.9157 147.544 35.9157C150.249 35.9157 152.667 35.3429 154.799 34.1974C156.931 33.0518 158.602 31.4926 159.811 29.5196C161.02 27.5149 161.625 25.2397 161.625 22.694C161.625 20.0846 161.02 17.7935 159.811 15.8205C158.602 13.8476 156.931 12.3043 154.799 11.1905C152.667 10.045 150.249 9.47219 147.544 9.47219C144.807 9.47219 142.373 10.045 140.241 11.1905C138.141 12.3043 136.47 13.8635 135.229 15.8683C134.02 17.8412 133.415 20.1164 133.415 22.694C133.415 25.2397 134.02 27.5149 135.229 29.5196C136.47 31.4926 138.141 33.0518 140.241 34.1974ZM150.885 28.9468C149.899 29.5196 148.785 29.806 147.544 29.806C146.303 29.806 145.189 29.5196 144.202 28.9468C143.216 28.3741 142.42 27.5626 141.816 26.5125C141.243 25.4306 140.957 24.1577 140.957 22.694C140.957 21.1984 141.243 19.9255 141.816 18.8754C142.42 17.8253 143.216 17.0138 144.202 16.4411C145.189 15.8683 146.303 15.5819 147.544 15.5819C148.785 15.5819 149.899 15.8683 150.885 16.4411C151.871 17.0138 152.651 17.8253 153.224 18.8754C153.797 19.9255 154.083 21.1984 154.083 22.694C154.083 24.1577 153.797 25.4306 153.224 26.5125C152.651 27.5626 151.871 28.3741 150.885 28.9468Z" fill="white"/>
<path fill-rule="evenodd" clip-rule="evenodd" d="M39.6031 2.86808C39.5372 2.65395 39.4149 2.46151 39.2489 2.31103C39.0829 2.16055 38.8793 2.05759 38.6597 2.01299C38.6971 1.79415 38.6733 1.56925 38.5909 1.36308C38.5086 1.1569 38.3709 0.977452 38.193 0.844499C37.9986 0.698145 37.7667 0.609671 37.5242 0.589266C37.2816 0.568861 37.0382 0.617354 36.822 0.72916C36.7219 0.518537 36.566 0.339329 36.3712 0.210962C36.1765 0.0825962 35.9503 0.0099694 35.7172 0.000955005C35.4841 -0.00805939 35.253 0.0468825 35.0489 0.159825C34.8448 0.272767 34.6755 0.439401 34.5594 0.641663C34.3542 0.545436 34.1273 0.50485 33.9015 0.523978C33.6756 0.543105 33.4588 0.621273 33.2727 0.750637C33.0896 0.876566 32.9448 1.05051 32.8542 1.25336C32.7636 1.45621 32.7307 1.6801 32.7591 1.90044C32.5376 1.93659 32.3299 2.03167 32.1579 2.17568C31.9858 2.31969 31.8557 2.50734 31.7811 2.71894C31.7093 2.92861 31.6971 3.15409 31.7458 3.37029C31.7946 3.58649 31.9024 3.78492 32.0573 3.94351C31.8993 4.09904 31.7875 4.2953 31.7344 4.5105C31.6813 4.72569 31.689 4.95139 31.7565 5.16251C31.827 5.3752 31.9535 5.56499 32.1227 5.71194C32.2919 5.8589 32.4976 5.95762 32.7181 5.99772C32.6849 6.21772 32.7132 6.44261 32.7998 6.64755C32.8865 6.85249 33.0281 7.02951 33.2091 7.15905C33.3926 7.29185 33.6078 7.37407 33.8332 7.39745C34.0585 7.42084 34.286 7.38457 34.4929 7.29229C34.6013 7.48945 34.7598 7.65455 34.9524 7.77093C35.1451 7.8873 35.365 7.95083 35.59 7.9551C35.815 7.95938 36.0372 7.90425 36.2341 7.79528C36.4309 7.68631 36.5956 7.52735 36.7114 7.33444C36.9147 7.43449 37.1407 7.47937 37.3668 7.46457C37.5929 7.44977 37.8112 7.37582 37.9997 7.25013C38.1853 7.1277 38.3336 6.95652 38.4283 6.75537C38.523 6.55422 38.5604 6.33088 38.5364 6.10987C38.7587 6.07795 38.9683 5.98686 39.1433 5.84615C39.3183 5.70544 39.4522 5.52028 39.5311 5.31007C39.6071 5.102 39.6239 4.87692 39.5795 4.65988C39.5352 4.44284 39.4315 4.24235 39.28 4.08072C39.441 3.9283 39.5566 3.73425 39.614 3.52012C39.6714 3.30599 39.6663 3.08056 39.6031 2.86808Z" fill="white"/>
</svg>
