<svg width="1819" height="1080" viewBox="0 0 1819 1080" fill="none" xmlns="http://www.w3.org/2000/svg">
<rect opacity="0.1" width="1" height="1080" fill="url(#paint0_linear_194_38)"/>
<rect opacity="0.1" x="101" width="1" height="1080" fill="url(#paint1_linear_194_38)"/>
<rect opacity="0.1" x="202" width="1" height="1080" fill="url(#paint2_linear_194_38)"/>
<rect opacity="0.1" x="303" width="1" height="1080" fill="url(#paint3_linear_194_38)"/>
<rect opacity="0.1" x="404" width="1" height="1080" fill="url(#paint4_linear_194_38)"/>
<rect opacity="0.1" x="505" width="1" height="1080" fill="url(#paint5_linear_194_38)"/>
<rect opacity="0.1" x="606" width="1" height="1080" fill="url(#paint6_linear_194_38)"/>
<rect opacity="0.1" x="707" width="1" height="1080" fill="url(#paint7_linear_194_38)"/>
<rect opacity="0.1" x="808" width="1" height="1080" fill="url(#paint8_linear_194_38)"/>
<rect opacity="0.1" x="909" width="1" height="1080" fill="url(#paint9_linear_194_38)"/>
<rect opacity="0.1" x="1010" width="1" height="1080" fill="url(#paint10_linear_194_38)"/>
<rect opacity="0.1" x="1212" width="1" height="1080" fill="url(#paint11_linear_194_38)"/>
<rect opacity="0.1" x="1313" width="1" height="1080" fill="url(#paint12_linear_194_38)"/>
<rect opacity="0.1" x="1414" width="1" height="1080" fill="url(#paint13_linear_194_38)"/>
<rect opacity="0.1" x="1111" width="1" height="1080" fill="url(#paint14_linear_194_38)"/>
<rect opacity="0.1" x="1515" width="1" height="1080" fill="url(#paint15_linear_194_38)"/>
<rect opacity="0.1" x="1818" width="1" height="1080" fill="url(#paint16_linear_194_38)"/>
<rect opacity="0.1" x="1616" width="1" height="1080" fill="url(#paint17_linear_194_38)"/>
<rect opacity="0.1" x="1717" width="1" height="1080" fill="url(#paint18_linear_194_38)"/>
<defs>
<linearGradient id="paint0_linear_194_38" x1="0.499985" y1="-9.55537e-06" x2="0.499985" y2="1080" gradientUnits="userSpaceOnUse">
<stop stop-color="#F9F8F6"/>
<stop offset="1" stop-color="#02634C"/>
</linearGradient>
<linearGradient id="paint1_linear_194_38" x1="101.5" y1="-9.55537e-06" x2="101.5" y2="1080" gradientUnits="userSpaceOnUse">
<stop stop-color="#F9F8F6"/>
<stop offset="1" stop-color="#02634C"/>
</linearGradient>
<linearGradient id="paint2_linear_194_38" x1="202.5" y1="-9.55537e-06" x2="202.5" y2="1080" gradientUnits="userSpaceOnUse">
<stop stop-color="#F9F8F6"/>
<stop offset="1" stop-color="#02634C"/>
</linearGradient>
<linearGradient id="paint3_linear_194_38" x1="303.5" y1="-9.55537e-06" x2="303.5" y2="1080" gradientUnits="userSpaceOnUse">
<stop stop-color="#F9F8F6"/>
<stop offset="1" stop-color="#02634C"/>
</linearGradient>
<linearGradient id="paint4_linear_194_38" x1="404.5" y1="-9.55537e-06" x2="404.5" y2="1080" gradientUnits="userSpaceOnUse">
<stop stop-color="#F9F8F6"/>
<stop offset="1" stop-color="#02634C"/>
</linearGradient>
<linearGradient id="paint5_linear_194_38" x1="505.5" y1="-9.55537e-06" x2="505.5" y2="1080" gradientUnits="userSpaceOnUse">
<stop stop-color="#F9F8F6"/>
<stop offset="1" stop-color="#02634C"/>
</linearGradient>
<linearGradient id="paint6_linear_194_38" x1="606.5" y1="-9.55537e-06" x2="606.5" y2="1080" gradientUnits="userSpaceOnUse">
<stop stop-color="#F9F8F6"/>
<stop offset="1" stop-color="#02634C"/>
</linearGradient>
<linearGradient id="paint7_linear_194_38" x1="707.5" y1="-9.55537e-06" x2="707.5" y2="1080" gradientUnits="userSpaceOnUse">
<stop stop-color="#F9F8F6"/>
<stop offset="1" stop-color="#02634C"/>
</linearGradient>
<linearGradient id="paint8_linear_194_38" x1="808.5" y1="-9.55537e-06" x2="808.5" y2="1080" gradientUnits="userSpaceOnUse">
<stop stop-color="#F9F8F6"/>
<stop offset="1" stop-color="#02634C"/>
</linearGradient>
<linearGradient id="paint9_linear_194_38" x1="909.5" y1="-9.55537e-06" x2="909.5" y2="1080" gradientUnits="userSpaceOnUse">
<stop stop-color="#F9F8F6"/>
<stop offset="1" stop-color="#02634C"/>
</linearGradient>
<linearGradient id="paint10_linear_194_38" x1="1010.5" y1="-9.55537e-06" x2="1010.5" y2="1080" gradientUnits="userSpaceOnUse">
<stop stop-color="#F9F8F6"/>
<stop offset="1" stop-color="#02634C"/>
</linearGradient>
<linearGradient id="paint11_linear_194_38" x1="1212.5" y1="-9.55537e-06" x2="1212.5" y2="1080" gradientUnits="userSpaceOnUse">
<stop stop-color="#F9F8F6"/>
<stop offset="1" stop-color="#02634C"/>
</linearGradient>
<linearGradient id="paint12_linear_194_38" x1="1313.5" y1="-9.55537e-06" x2="1313.5" y2="1080" gradientUnits="userSpaceOnUse">
<stop stop-color="#F9F8F6"/>
<stop offset="1" stop-color="#02634C"/>
</linearGradient>
<linearGradient id="paint13_linear_194_38" x1="1414.5" y1="-9.55537e-06" x2="1414.5" y2="1080" gradientUnits="userSpaceOnUse">
<stop stop-color="#F9F8F6"/>
<stop offset="1" stop-color="#02634C"/>
</linearGradient>
<linearGradient id="paint14_linear_194_38" x1="1111.5" y1="-9.55537e-06" x2="1111.5" y2="1080" gradientUnits="userSpaceOnUse">
<stop stop-color="#F9F8F6"/>
<stop offset="1" stop-color="#02634C"/>
</linearGradient>
<linearGradient id="paint15_linear_194_38" x1="1515.5" y1="-9.55537e-06" x2="1515.5" y2="1080" gradientUnits="userSpaceOnUse">
<stop stop-color="#F9F8F6"/>
<stop offset="1" stop-color="#02634C"/>
</linearGradient>
<linearGradient id="paint16_linear_194_38" x1="1818.5" y1="-9.55537e-06" x2="1818.5" y2="1080" gradientUnits="userSpaceOnUse">
<stop stop-color="#F9F8F6"/>
<stop offset="1" stop-color="#02634C"/>
</linearGradient>
<linearGradient id="paint17_linear_194_38" x1="1616.5" y1="-9.55537e-06" x2="1616.5" y2="1080" gradientUnits="userSpaceOnUse">
<stop stop-color="#F9F8F6"/>
<stop offset="1" stop-color="#02634C"/>
</linearGradient>
<linearGradient id="paint18_linear_194_38" x1="1717.5" y1="-9.55537e-06" x2="1717.5" y2="1080" gradientUnits="userSpaceOnUse">
<stop stop-color="#F9F8F6"/>
<stop offset="1" stop-color="#02634C"/>
</linearGradient>
</defs>
</svg>
