<svg width="40" height="22" viewBox="0 0 40 22" fill="none" xmlns="http://www.w3.org/2000/svg">
<path d="M14.5 20.1667H10.8333C8.40218 20.1667 6.0706 19.2009 4.35152 17.4819C2.63244 15.7628 1.66667 13.4312 1.66667 11C1.66667 8.56889 2.63244 6.23731 4.35152 4.51823C6.0706 2.79915 8.40218 1.83337 10.8333 1.83337H14.5M25.5 1.83337H29.1667C31.5978 1.83337 33.9294 2.79915 35.6485 4.51823C37.3676 6.23731 38.3333 8.56889 38.3333 11C38.3333 13.4312 37.3676 15.7628 35.6485 17.4819C33.9294 19.2009 31.5978 20.1667 29.1667 20.1667H25.5M12.6667 11H27.3333" stroke="black" stroke-width="3" stroke-linecap="round" stroke-linejoin="round"/>
</svg>
