<svg width="185" height="42" viewBox="0 0 185 42" fill="none" xmlns="http://www.w3.org/2000/svg">
<path d="M15.15 41.45C11.6833 41.45 8.98333 40.6 7.05 38.9C5.11667 37.1667 4.15 34.5667 4.15 31.1V7.85H13.65V31C13.65 31.9667 13.9167 32.7333 14.45 33.3C14.9833 33.8333 15.6667 34.1 16.5 34.1C17.6333 34.1 18.6 33.8167 19.4 33.25L21.75 39.9C20.95 40.4333 19.9667 40.8167 18.8 41.05C17.6333 41.3167 16.4167 41.45 15.15 41.45ZM0.2 22V14.9H19.85V22H0.2ZM22.9133 41V13.9H31.9633V21.8L30.6133 19.55C31.4133 17.5167 32.7133 16 34.5133 15C36.3133 13.9667 38.4966 13.45 41.0633 13.45V22C40.6299 21.9333 40.2466 21.9 39.9133 21.9C39.6133 21.8667 39.2799 21.85 38.9133 21.85C36.9799 21.85 35.4133 22.3833 34.2133 23.45C33.0133 24.4833 32.4133 26.1833 32.4133 28.55V41H22.9133ZM42.4836 41V13.9H51.9836V41H42.4836ZM47.2336 10.9C45.5003 10.9 44.1003 10.4167 43.0336 9.45C41.9669 8.48333 41.4336 7.28333 41.4336 5.85C41.4336 4.41666 41.9669 3.21666 43.0336 2.25C44.1003 1.28333 45.5003 0.799999 47.2336 0.799999C48.9669 0.799999 50.3669 1.26667 51.4336 2.2C52.5003 3.1 53.0336 4.26667 53.0336 5.7C53.0336 7.2 52.5003 8.45 51.4336 9.45C50.4003 10.4167 49.0003 10.9 47.2336 10.9ZM90.9574 13.45C93.0574 13.45 94.9241 13.8833 96.5574 14.75C98.2241 15.5833 99.5241 16.8833 100.457 18.65C101.424 20.4167 101.907 22.7 101.907 25.5V41H92.4074V27.05C92.4074 25.1167 92.0408 23.7167 91.3074 22.85C90.5741 21.95 89.5741 21.5 88.3074 21.5C87.4074 21.5 86.5908 21.7167 85.8574 22.15C85.1241 22.5833 84.5574 23.25 84.1574 24.15C83.7574 25.0167 83.5574 26.15 83.5574 27.55V41H74.0574V27.05C74.0574 25.1167 73.6908 23.7167 72.9574 22.85C72.2574 21.95 71.2574 21.5 69.9574 21.5C69.0241 21.5 68.1908 21.7167 67.4574 22.15C66.7574 22.5833 66.1908 23.25 65.7574 24.15C65.3574 25.0167 65.1574 26.15 65.1574 27.55V41H55.6574V13.9H64.7074V21.45L62.9074 19.3C63.9074 17.3667 65.2741 15.9167 67.0074 14.95C68.7408 13.95 70.6741 13.45 72.8074 13.45C75.2408 13.45 77.3741 14.0833 79.2074 15.35C81.0741 16.5833 82.3241 18.5167 82.9574 21.15L79.8574 20.5C80.8241 18.3 82.2741 16.5833 84.2074 15.35C86.1741 14.0833 88.4241 13.45 90.9574 13.45ZM140.704 13.45C142.804 13.45 144.67 13.8833 146.304 14.75C147.97 15.5833 149.27 16.8833 150.204 18.65C151.17 20.4167 151.654 22.7 151.654 25.5V41H142.154V27.05C142.154 25.1167 141.787 23.7167 141.054 22.85C140.32 21.95 139.32 21.5 138.054 21.5C137.154 21.5 136.337 21.7167 135.604 22.15C134.87 22.5833 134.304 23.25 133.904 24.15C133.504 25.0167 133.304 26.15 133.304 27.55V41H123.804V27.05C123.804 25.1167 123.437 23.7167 122.704 22.85C122.004 21.95 121.004 21.5 119.704 21.5C118.77 21.5 117.937 21.7167 117.204 22.15C116.504 22.5833 115.937 23.25 115.504 24.15C115.104 25.0167 114.904 26.15 114.904 27.55V41H105.404V13.9H114.454V21.45L112.654 19.3C113.654 17.3667 115.02 15.9167 116.754 14.95C118.487 13.95 120.42 13.45 122.554 13.45C124.987 13.45 127.12 14.0833 128.954 15.35C130.82 16.5833 132.07 18.5167 132.704 21.15L129.604 20.5C130.57 18.3 132.02 16.5833 133.954 15.35C135.92 14.0833 138.17 13.45 140.704 13.45ZM169.091 41.45C166.125 41.45 163.491 40.85 161.191 39.65C158.891 38.45 157.075 36.8 155.741 34.7C154.441 32.5667 153.791 30.1333 153.791 27.4C153.791 24.6667 154.441 22.25 155.741 20.15C157.075 18.05 158.891 16.4167 161.191 15.25C163.491 14.05 166.125 13.45 169.091 13.45C172.058 13.45 174.691 14.05 176.991 15.25C179.325 16.4167 181.141 18.05 182.441 20.15C183.741 22.25 184.391 24.6667 184.391 27.4C184.391 30.1333 183.741 32.5667 182.441 34.7C181.141 36.8 179.325 38.45 176.991 39.65C174.691 40.85 172.058 41.45 169.091 41.45ZM169.091 33.9C170.191 33.9 171.158 33.65 171.991 33.15C172.858 32.65 173.541 31.9167 174.041 30.95C174.541 29.95 174.791 28.7667 174.791 27.4C174.791 26.0333 174.541 24.8833 174.041 23.95C173.541 22.9833 172.858 22.25 171.991 21.75C171.158 21.25 170.191 21 169.091 21C168.025 21 167.058 21.25 166.191 21.75C165.358 22.25 164.675 22.9833 164.141 23.95C163.641 24.8833 163.391 26.0333 163.391 27.4C163.391 28.7667 163.641 29.95 164.141 30.95C164.675 31.9167 165.358 32.65 166.191 33.15C167.058 33.65 168.025 33.9 169.091 33.9Z" fill="black"/>
</svg>
