<svg width="150" height="26" viewBox="0 0 150 26" fill="none" xmlns="http://www.w3.org/2000/svg">
<path d="M137 2.1665L137 8.94817V10.0423L137 15.3182V19.2507L130.305 22.7715L131.583 15.3182L126.167 10.0423L133.653 8.94817L137 2.1665Z" fill="black"/>
<path d="M106 2.1665L109.347 8.94817L116.833 10.0423L111.417 15.3182L112.695 22.7715L106 19.2507L99.305 22.7715L100.583 15.3182L95.1667 10.0423L102.652 8.94817L106 2.1665Z" fill="black"/>
<path d="M75 2.1665L78.3475 8.94817L85.8333 10.0423L80.4167 15.3182L81.695 22.7715L75 19.2507L68.305 22.7715L69.5833 15.3182L64.1667 10.0423L71.6525 8.94817L75 2.1665Z" fill="black"/>
<path d="M44 2.1665L47.3475 8.94817L54.8333 10.0423L49.4167 15.3182L50.695 22.7715L44 19.2507L37.305 22.7715L38.5833 15.3182L33.1667 10.0423L40.6525 8.94817L44 2.1665Z" fill="black"/>
<path d="M13 2.1665L16.3475 8.94817L23.8333 10.0423L18.4167 15.3182L19.695 22.7715L13 19.2507L6.30499 22.7715L7.58332 15.3182L2.16666 10.0423L9.65249 8.94817L13 2.1665Z" fill="black"/>
</svg>
