<svg width="170" height="30" viewBox="0 0 170 30" fill="none" xmlns="http://www.w3.org/2000/svg">
<path d="M155 2.5L155 10.325V11.5875L155 17.675V22.2125L147.275 26.275L148.75 17.675L142.5 11.5875L151.138 10.325L155 2.5Z" fill="white"/>
<path d="M120 2.5L123.863 10.325L132.5 11.5875L126.25 17.675L127.725 26.275L120 22.2125L112.275 26.275L113.75 17.675L107.5 11.5875L116.138 10.325L120 2.5Z" fill="white"/>
<path d="M85 2.5L88.8625 10.325L97.5 11.5875L91.25 17.675L92.725 26.275L85 22.2125L77.275 26.275L78.75 17.675L72.5 11.5875L81.1375 10.325L85 2.5Z" fill="white"/>
<path d="M50 2.5L53.8625 10.325L62.5 11.5875L56.25 17.675L57.725 26.275L50 22.2125L42.275 26.275L43.75 17.675L37.5 11.5875L46.1375 10.325L50 2.5Z" fill="white"/>
<path d="M15 2.5L18.8625 10.325L27.5 11.5875L21.25 17.675L22.725 26.275L15 22.2125L7.275 26.275L8.75 17.675L2.5 11.5875L11.1375 10.325L15 2.5Z" fill="white"/>
</svg>
