<svg width="55" height="54" viewBox="0 0 55 54" fill="none" xmlns="http://www.w3.org/2000/svg">
<path d="M4.58008 31.8171C0.40467 29.9631 0.404669 24.0364 4.58008 22.1824C7.63292 20.8267 9.08689 17.3162 7.88672 14.199C6.24547 9.93565 10.4359 5.74522 14.6992 7.38647C17.8165 8.58665 21.327 7.13267 22.6826 4.07983C24.5366 -0.0955759 30.4634 -0.0955767 32.3174 4.07983C33.673 7.13267 37.1835 8.58665 40.3008 7.38647C44.5641 5.74522 48.7545 9.93565 47.1133 14.199C45.9131 17.3162 47.3671 20.8267 50.4199 22.1824C54.5953 24.0364 54.5953 29.9631 50.4199 31.8171C47.3671 33.1728 45.9131 36.6833 47.1133 39.8005C48.7545 44.0639 44.5641 48.2543 40.3008 46.613C37.1835 45.4129 33.673 46.8668 32.3174 49.9197C30.4634 54.0951 24.5366 54.0951 22.6826 49.9197C21.327 46.8668 17.8165 45.4129 14.6992 46.613C10.4359 48.2543 6.24547 44.0639 7.88672 39.8005C9.08689 36.6833 7.63292 33.1728 4.58008 31.8171Z" fill="black" stroke="black"/>
</svg>
