<svg width="60" height="60" viewBox="0 0 60 60" fill="none" xmlns="http://www.w3.org/2000/svg">
<path d="M42.8636 59.9974C52.3192 59.9974 59.9845 52.2891 59.9845 42.7804C60.046 40.0652 58.9907 33.7091 54.2779 30.0065C56.3027 28.0318 60.2788 22.7124 59.9845 17.2326C59.9845 7.72391 52.3192 0.0155874 42.8636 0.0155874C40.1636 -0.107832 33.8432 0.867182 30.1613 5.75459C28.5656 3.71817 23.791 -0.280615 17.4583 0.0155874C13.6538 -0.16954 4.97694 1.75581 1.44229 10.9382C-0.337517 14.3322 -1.90883 22.8975 6.04437 30.0065C4.01932 31.7344 0.0428414 36.7082 0.337395 42.7804C0.337395 52.2891 8.0027 59.9974 17.4583 59.9974C19.9131 60.0591 25.8903 59.0348 30.1613 54.4436C31.9407 56.2948 36.9723 59.9974 42.8636 59.9974Z" fill="#1F8F5B"/>
<path d="M50.8057 34.8148L48.007 32.0007L44.0408 35.9892L46.8395 38.8033C49.0262 41.0027 49.0262 44.5816 46.8395 46.7807C44.6529 48.9796 41.0938 48.9796 38.9067 46.7807L24.2093 32.0007L20.2432 35.9892L34.9405 50.7691C39.3213 55.1744 46.4251 55.1744 50.8058 50.7691C55.1865 46.3637 55.1865 39.2201 50.8057 34.8148Z" fill="#C8F469"/>
<path d="M21.4114 46.7807C19.2243 48.9796 15.6653 48.9796 13.4785 46.7807C11.2919 44.5817 11.2919 41.0027 13.4785 38.8033L28.176 24.0234L24.2097 20.035L9.51238 34.8148C5.13161 39.2201 5.13161 46.3638 9.51238 50.7691C13.8932 55.1743 20.9969 55.1744 25.3777 50.7691L28.176 47.9547L24.2097 43.9662L21.4114 46.7807ZM38.9072 13.2319C41.0943 11.033 44.6533 11.033 46.8401 13.2319C49.0267 15.4308 49.0267 19.0099 46.8401 21.2093L32.1426 35.9891L36.1089 39.9776L50.8062 25.1977C55.187 20.7924 55.187 13.6487 50.8062 9.24343C46.4254 4.83817 39.3217 4.83808 34.9409 9.24343L32.1426 12.0578L36.1089 16.0463L38.9072 13.2319Z" fill="#C8F469"/>
<path d="M12.311 28.0119L16.2773 24.0234L13.4785 21.2093C11.2919 19.0099 11.2919 15.431 13.4785 13.2319C15.6651 11.033 19.2243 11.033 21.4114 13.2319L36.6895 28.5958L40.6556 24.6073L25.3776 9.24354C20.9969 4.83819 13.893 4.83819 9.51235 9.24354C5.13167 13.6489 5.13158 20.7925 9.51235 25.1978L12.311 28.0119Z" fill="#C8F469"/>
</svg>
