<svg width="70" height="70" viewBox="0 0 70 70" fill="none" xmlns="http://www.w3.org/2000/svg">
<path fill-rule="evenodd" clip-rule="evenodd" d="M67.3895 25.4506C66.8459 23.7102 65.8356 22.1464 64.4651 20.924C63.0946 19.7015 61.4146 18.8657 59.602 18.5045C59.9102 16.7265 59.7138 14.8993 59.0344 13.2242C58.3551 11.5492 57.2192 10.0913 55.752 9.01139C54.148 7.82263 52.2356 7.10419 50.235 6.93881C48.2345 6.77343 46.2272 7.16784 44.4443 8.07662C43.6181 6.36602 42.3323 4.91066 40.726 3.86825C39.1198 2.82583 37.2545 2.23612 35.3321 2.16301C33.4098 2.0899 31.5038 2.53618 29.8207 3.4535C28.1376 4.37081 26.7415 5.72417 25.7838 7.36693C24.0918 6.58576 22.2209 6.25635 20.3588 6.41172C18.4967 6.56709 16.7088 7.20179 15.1744 8.25216C13.6642 9.27522 12.4697 10.6885 11.7223 12.3366C10.9748 13.9847 10.7034 15.8038 10.9378 17.5939C9.11103 17.8873 7.39812 18.6594 5.97883 19.8292C4.55954 20.999 3.48619 22.5233 2.8714 24.2423C2.27895 25.9453 2.17799 27.7767 2.57973 29.5328C2.98147 31.2889 3.87017 32.9009 5.14695 34.1893C3.84435 35.4529 2.92302 37.0472 2.4853 38.7953C2.04759 40.5434 2.11062 42.3767 2.66741 44.0916C3.2468 45.8218 4.28902 47.3662 5.68444 48.5625C7.07986 49.7588 8.77692 50.5627 10.5971 50.8897C10.3258 52.6738 10.5598 54.497 11.2732 56.1587C11.9867 57.8203 13.1519 59.2559 14.6407 60.3074C16.1542 61.3866 17.9294 62.0549 19.7882 62.2451C21.6469 62.4354 23.5238 62.1409 25.2304 61.3913C26.1248 62.9923 27.4321 64.3327 29.0205 65.2776C30.6089 66.2224 32.4222 66.7382 34.2776 66.7729C36.1331 66.8076 37.965 66.3601 39.5887 65.4754C41.2124 64.5907 42.5705 63.3001 43.5261 61.7338C45.203 62.5462 47.0673 62.9105 48.9322 62.7901C50.7971 62.6697 52.5971 62.0689 54.1519 61.0478C55.6823 60.0531 56.905 58.6627 57.6859 57.029C58.4667 55.3952 58.7754 53.5813 58.5783 51.7862C60.4115 51.527 62.1402 50.7873 63.5834 49.6444C65.0266 48.5016 66.1312 46.9977 66.7814 45.2902C67.4087 43.5998 67.5471 41.7711 67.1814 40.0078C66.8156 38.2445 65.96 36.6157 64.7098 35.3028C66.0377 34.0646 66.9911 32.4883 67.4641 30.7488C67.9372 29.0094 67.9113 27.1749 67.3895 25.449" fill="#1F8F5B"/>
<path d="M67.3895 25.4506C66.8459 23.7102 65.8356 22.1464 64.4651 20.924C63.0946 19.7015 61.4146 18.8657 59.602 18.5045C59.9102 16.7265 59.7138 14.8993 59.0344 13.2242C58.3551 11.5492 57.2192 10.0913 55.752 9.01139C54.148 7.82263 52.2356 7.10419 50.235 6.93881C48.2345 6.77343 46.2272 7.16784 44.4443 8.07662C43.6181 6.36602 42.3323 4.91066 40.726 3.86825C39.1198 2.82583 37.2545 2.23612 35.3321 2.16301C33.4098 2.0899 31.5038 2.53618 29.8207 3.4535C28.1376 4.37081 26.7415 5.72417 25.7838 7.36693C24.0918 6.58576 22.2209 6.25635 20.3588 6.41172C18.4967 6.56709 16.7088 7.20179 15.1744 8.25216C13.6642 9.27522 12.4697 10.6885 11.7223 12.3366C10.9748 13.9847 10.7034 15.8038 10.9378 17.5939C9.11103 17.8873 7.39812 18.6594 5.97883 19.8292C4.55954 20.999 3.48619 22.5233 2.8714 24.2423C2.27895 25.9453 2.17799 27.7767 2.57973 29.5328C2.98147 31.2889 3.87017 32.9009 5.14695 34.1893C3.84435 35.4529 2.92302 37.0472 2.4853 38.7953C2.04759 40.5434 2.11062 42.3767 2.66741 44.0916C3.2468 45.8218 4.28902 47.3662 5.68444 48.5625C7.07986 49.7588 8.77692 50.5627 10.5971 50.8897C10.3258 52.6738 10.5598 54.497 11.2732 56.1587C11.9867 57.8203 13.1519 59.2559 14.6407 60.3074C16.1542 61.3866 17.9294 62.0549 19.7882 62.2451C21.6469 62.4354 23.5238 62.1409 25.2304 61.3913C26.1248 62.9923 27.4321 64.3327 29.0205 65.2776C30.6089 66.2224 32.4222 66.7382 34.2776 66.7729C36.1331 66.8076 37.965 66.3601 39.5887 65.4754C41.2124 64.5907 42.5705 63.3001 43.5261 61.7338C45.203 62.5462 47.0673 62.9105 48.9322 62.7901C50.7971 62.6697 52.5971 62.0689 54.1519 61.0478C55.6823 60.0531 56.905 58.6627 57.6859 57.029C58.4667 55.3952 58.7754 53.5813 58.5783 51.7862C60.4115 51.527 62.1402 50.7873 63.5834 49.6444C65.0266 48.5016 66.1312 46.9977 66.7814 45.2902C67.4087 43.5998 67.5471 41.7711 67.1814 40.0078C66.8156 38.2445 65.96 36.6157 64.7098 35.3028C66.0377 34.0646 66.9911 32.4883 67.4641 30.7488C67.9372 29.0094 67.9113 27.1749 67.3895 25.449" stroke="#CEFC6C" stroke-width="3" stroke-linejoin="round"/>
<mask id="mask0_301_412" style="mask-type:alpha" maskUnits="userSpaceOnUse" x="2" y="2" width="66" height="65">
<path fill-rule="evenodd" clip-rule="evenodd" d="M67.3893 25.4506C66.8457 23.7102 65.8354 22.1464 64.4649 20.924C63.0943 19.7015 61.4143 18.8657 59.6018 18.5045C59.9099 16.7265 59.7135 14.8993 59.0342 13.2242C58.3549 11.5492 57.219 10.0913 55.7518 9.01139C54.1478 7.82263 52.2354 7.10419 50.2348 6.93881C48.2342 6.77343 46.2269 7.16784 44.444 8.07662C43.6179 6.36602 42.332 4.91066 40.7258 3.86825C39.1196 2.82583 37.2542 2.23612 35.3319 2.16301C33.4096 2.0899 31.5036 2.53618 29.8205 3.4535C28.1373 4.37081 26.7413 5.72417 25.7836 7.36693C24.0916 6.58576 22.2207 6.25635 20.3586 6.41172C18.4965 6.56709 16.7086 7.20179 15.1742 8.25216C13.664 9.27522 12.4695 10.6885 11.722 12.3366C10.9746 13.9847 10.7031 15.8038 10.9376 17.5939C9.11079 17.8873 7.39788 18.6594 5.97859 19.8292C4.5593 20.999 3.48594 22.5233 2.87115 24.2423C2.27871 25.9453 2.17774 27.7767 2.57948 29.5328C2.98123 31.2889 3.86992 32.9009 5.1467 34.1893C3.84411 35.4529 2.92277 37.0472 2.48506 38.7953C2.04734 40.5434 2.11038 42.3767 2.66717 44.0916C3.24656 45.8218 4.28878 47.3662 5.6842 48.5625C7.07962 49.7588 8.77667 50.5627 10.5969 50.8897C10.3256 52.6738 10.5596 54.497 11.273 56.1587C11.9864 57.8203 13.1517 59.2559 14.6405 60.3074C16.154 61.3866 17.9292 62.0549 19.7879 62.2451C21.6467 62.4354 23.5235 62.1409 25.2301 61.3913C26.1246 62.9923 27.4319 64.3327 29.0203 65.2776C30.6087 66.2224 32.422 66.7382 34.2774 66.7729C36.1328 66.8076 37.9647 66.3601 39.5884 65.4754C41.2122 64.5907 42.5703 63.3001 43.5258 61.7338C45.2027 62.5462 47.067 62.9105 48.9319 62.7901C50.7968 62.6697 52.5968 62.0689 54.1516 61.0478C55.6821 60.0531 56.9048 58.6627 57.6856 57.029C58.4664 55.3952 58.7752 53.5813 58.578 51.7862C60.4113 51.527 62.14 50.7873 63.5832 49.6444C65.0264 48.5016 66.1309 46.9977 66.7812 45.2902C67.4084 43.5998 67.5469 41.7711 67.1811 40.0078C66.8154 38.2445 65.9598 36.6157 64.7096 35.3028C66.0375 34.0646 66.9909 32.4883 67.4639 30.7488C67.9369 29.0094 67.9111 27.1749 67.3893 25.449" fill="#E13F00"/>
</mask>
<g mask="url(#mask0_301_412)">
<path fill-rule="evenodd" clip-rule="evenodd" d="M56.5927 58.6079C56.2303 57.4477 55.5568 56.4052 54.6431 55.5903C53.7295 54.7753 52.6095 54.218 51.4012 53.9772C51.6067 52.7921 51.4759 51.5741 51.0232 50.4576C50.5706 49.341 49.8136 48.3692 48.8358 47.6492C47.7666 46.8565 46.4916 46.3774 45.1579 46.2669C43.8241 46.1565 42.4858 46.4193 41.2972 47.0251C40.7463 45.8848 39.889 44.9147 38.8181 44.2199C37.7473 43.525 36.5037 43.132 35.2223 43.0833C33.9408 43.0346 32.6702 43.3321 31.5481 43.9436C30.4261 44.5551 29.4954 45.4572 28.8568 46.5523C27.7286 46.0318 26.4812 45.8125 25.2397 45.9164C23.9982 46.0204 22.8063 46.4439 21.7836 47.1446C20.7768 47.8267 19.9806 48.7689 19.4823 49.8676C18.9841 50.9664 18.8032 52.1791 18.9595 53.3725C17.7416 53.5679 16.5996 54.0826 15.6533 54.8624C14.707 55.6423 13.9914 56.6585 13.5815 57.8045C13.1866 58.9398 13.1193 60.1608 13.3871 61.3315C13.6549 62.5022 14.2474 63.5768 15.0986 64.4357C14.2302 65.278 13.6159 66.341 13.3241 67.5063C13.0322 68.6717 13.0742 69.8939 13.4454 71.0372C13.8317 72.1906 14.5266 73.2202 15.4569 74.0176C16.3872 74.8151 17.5186 75.351 18.732 75.5689C18.5515 76.758 18.7075 77.973 19.1828 79.0804C19.6582 80.1878 20.4345 81.1447 21.4265 81.8458C22.4355 82.5651 23.619 83.0105 24.8581 83.1372C26.0972 83.2639 27.3484 83.0676 28.4861 82.5678C29.0823 83.635 29.9537 84.5284 31.0125 85.1582C32.0712 85.788 33.2799 86.1318 34.5167 86.1549C35.7534 86.1781 36.9745 85.8798 38.0568 85.2901C39.1391 84.7004 40.0444 83.8402 40.6814 82.7962C41.7993 83.3378 43.0421 83.5806 44.2853 83.5004C45.5285 83.4202 46.7285 83.0197 47.7651 82.339C48.7858 81.6763 49.6013 80.7495 50.1223 79.6604C50.6432 78.5713 50.8494 77.3619 50.7182 76.165C51.9404 75.9923 53.093 75.4992 54.0551 74.7372C55.0172 73.9753 55.7536 72.9726 56.1869 71.8342C56.6052 70.7073 56.6975 69.4882 56.4537 68.3126C56.2099 67.1371 55.6395 66.0513 54.8061 65.1761C55.6915 64.3507 56.3273 63.2999 56.6429 62.1402C56.9585 60.9806 56.9415 59.7575 56.5938 58.6068" fill="#CEFC6C"/>
</g>
<path d="M35 39.8465C40.4366 39.8465 44.8438 35.5071 44.8438 30.1542C44.8438 24.8013 40.4366 20.4619 35 20.4619C29.5634 20.4619 25.1562 24.8013 25.1562 30.1542C25.1562 35.5071 29.5634 39.8465 35 39.8465Z" fill="#CEFC6C"/>
</svg>
