<svg width="63" height="62" viewBox="0 0 63 62" fill="none" xmlns="http://www.w3.org/2000/svg">
<path d="M16.5586 3C22.5573 3.00008 27.6447 6.89636 29.4316 12.2959C29.9489 12.0138 30.4385 11.9241 30.7305 11.8887C31.1086 11.8427 31.522 11.8531 31.6797 11.8545L51.8164 12.0352L52.0137 12.0371L52.21 12.0645C53.8289 12.2934 57.1173 13.0009 58.5039 16.3486C59.8903 19.696 58.0658 22.5214 57.083 23.8281L57.082 23.8291C56.3138 24.8502 55.2585 25.9727 54.0986 27.1514C54.8594 27.455 55.3568 27.9079 55.5645 28.0752C55.7929 28.2593 56.0135 28.4569 56.2256 28.6689C57.9453 30.3887 58.5377 32.4585 58.7803 34.2627C59.0008 35.9025 58.9941 37.8915 58.9941 39.9238V42.5137C58.9941 44.5459 59.0008 46.5361 58.7803 48.1758C58.5377 49.9798 57.945 52.0481 56.2256 53.7676C54.5058 55.4878 52.4366 56.0798 50.6328 56.3223C48.9931 56.5428 47.0045 56.5371 44.9717 56.5371H42.3809C40.348 56.5371 38.3593 56.5428 36.7197 56.3223C34.9161 56.0798 32.8466 55.4884 31.127 53.7686V53.7676C30.9217 53.5625 30.7312 53.3515 30.5557 53.1357V53.1348C30.3857 52.9257 29.9195 52.4212 29.6123 51.6455L28.7607 52.498C27.0403 54.2187 25.391 55.8783 23.9463 56.9648C22.6393 57.948 19.8133 59.7732 16.4658 58.3867C13.1182 57 12.4115 53.7105 12.1826 52.0918L12.1543 51.8955L12.1523 51.6982L11.9727 31.6582C11.9712 31.5016 11.9621 31.0897 12.0078 30.7129C12.0422 30.4293 12.1269 29.9611 12.3887 29.4619C6.94104 27.7028 3.00008 22.5916 3 16.5586C3 9.07049 9.07049 3 16.5586 3Z" fill="#1F8F5B" stroke="#CEFC6C" stroke-width="6"/>
</svg>
