<svg width="60" height="60" viewBox="0 0 60 60" fill="none" xmlns="http://www.w3.org/2000/svg">
<path d="M29.9911 5.21346e-06C24.699 -0.00236883 19.5005 1.39665 14.9241 4.05491C10.3476 6.71316 6.55618 10.5359 3.9351 15.1347C1.31401 19.7334 -0.0433106 24.9443 0.00105366 30.2377C0.0454179 35.5312 1.48989 40.7186 4.18768 45.2727L0.166127 56.34C0.0162817 56.7518 -0.0321313 57.1937 0.0249889 57.6283C0.0821091 58.0628 0.24308 58.4772 0.494268 58.8363C0.745455 59.1954 1.07946 59.4886 1.46799 59.6912C1.85653 59.8938 2.28815 59.9997 2.72629 60C3.04418 59.9992 3.35957 59.9439 3.65875 59.8364L14.7228 55.8109C18.6936 58.1639 23.1537 59.5684 27.7559 59.9152C32.3581 60.262 36.9782 59.5417 41.2565 57.8103C45.5349 56.0789 49.3561 53.3832 52.4226 49.933C55.4891 46.4828 57.7183 42.3713 58.9364 37.9184C60.1546 33.4655 60.329 28.7915 59.446 24.2602C58.563 19.7289 56.6464 15.4626 53.8455 11.7934C51.0445 8.12421 47.4348 5.15111 43.2974 3.10558C39.1599 1.06006 34.6063 -0.00271624 29.9911 5.21346e-06Z" fill="#1F8F5B"/>
<path fill-rule="evenodd" clip-rule="evenodd" d="M30.0122 15.7246C30.475 15.7246 30.924 15.8819 31.2858 16.1706C31.6475 16.4594 31.9005 16.8624 32.0032 17.3138L33.1335 22.2846C33.3896 23.411 33.9588 24.442 34.7753 25.2587C35.5919 26.0755 36.6226 26.6448 37.7486 26.901L42.7181 28.0316C43.1692 28.1345 43.5721 28.3875 43.8607 28.7494C44.1492 29.1112 44.3064 29.5603 44.3064 30.0232C44.3064 30.4861 44.1492 30.9352 43.8607 31.297C43.5721 31.6589 43.1692 31.9119 42.7181 32.0148L37.7486 33.1454C36.6226 33.4016 35.5919 33.9709 34.7753 34.7877C33.9588 35.6044 33.3896 36.6355 33.1335 37.7618L32.0032 42.7316C31.9004 43.1829 31.6474 43.5859 31.2857 43.8745C30.9239 44.1632 30.4749 44.3204 30.0122 44.3204C29.5495 44.3204 29.1004 44.1632 28.7387 43.8745C28.377 43.5859 28.124 43.1829 28.0211 42.7316L26.8909 37.7618C26.6348 36.6355 26.0656 35.6044 25.2491 34.7877C24.4325 33.9709 23.4018 33.4016 22.2757 33.1454L17.3073 32.0148C16.8562 31.9119 16.4533 31.6589 16.1647 31.297C15.8762 30.9352 15.719 30.4861 15.719 30.0232C15.719 29.5603 15.8762 29.1112 16.1647 28.7494C16.4533 28.3875 16.8562 28.1345 17.3073 28.0316L22.2757 26.901C23.4018 26.6448 24.4325 26.0755 25.2491 25.2587C26.0656 24.442 26.6348 23.411 26.8909 22.2846L28.0211 17.3148C28.1237 16.8633 28.3766 16.46 28.7383 16.171C29.1001 15.8821 29.5493 15.7247 30.0122 15.7246Z" fill="#CEFC6C"/>
</svg>
