<svg width="44" height="44" viewBox="0 0 44 44" fill="none" xmlns="http://www.w3.org/2000/svg">
<path d="M4 38C3.99974 35.628 4.57478 33.2914 5.67581 31.1904C6.77684 29.0894 8.37101 27.2869 10.3216 25.9372C12.2722 24.5876 14.5211 23.7312 16.8753 23.4415C19.2295 23.1518 21.6189 23.4374 23.8385 24.2738M39.5263 29.981C40.2567 29.2507 40.6669 28.2602 40.6669 27.2273C40.6669 26.1945 40.2567 25.204 39.5263 24.4737C38.796 23.7433 37.8055 23.3331 36.7727 23.3331C35.7398 23.3331 34.7493 23.7433 34.019 24.4737L26.6673 31.829C26.2315 32.2646 25.9124 32.8031 25.7397 33.3947L24.2052 38.6563C24.1592 38.8141 24.1564 38.9813 24.1972 39.1405C24.238 39.2997 24.3208 39.445 24.437 39.5612C24.5532 39.6774 24.6985 39.7602 24.8577 39.801C25.0169 39.8418 25.1841 39.839 25.3418 39.793L30.6035 38.2585C31.1951 38.0858 31.7335 37.7667 32.1692 37.3308L39.5263 29.981ZM27.8333 14.1667C27.8333 19.2293 23.7293 23.3333 18.6667 23.3333C13.6041 23.3333 9.5 19.2293 9.5 14.1667C9.5 9.10406 13.6041 5 18.6667 5C23.7293 5 27.8333 9.10406 27.8333 14.1667Z" stroke="black" stroke-width="3" stroke-linecap="round" stroke-linejoin="round"/>
</svg>
