<svg width="150" height="37" viewBox="0 0 150 37" fill="none" xmlns="http://www.w3.org/2000/svg">
<g clip-path="url(#clip0_12_417)">
<path d="M14.68 34.32C12.1467 34.32 10.1733 33.68 8.76 32.4C7.34667 31.0933 6.64 29.16 6.64 26.6V7.72H12.88V26.52C12.88 27.4267 13.12 28.1333 13.6 28.64C14.08 29.12 14.7333 29.36 15.56 29.36C16.5467 29.36 17.3867 29.0933 18.08 28.56L19.76 32.96C19.12 33.4133 18.3467 33.76 17.44 34C16.56 34.2133 15.64 34.32 14.68 34.32ZM3.32 17.76V12.96H18.24V17.76H3.32ZM21.2628 34V12.48H27.2228V18.56L26.3828 16.8C27.0228 15.28 28.0495 14.1333 29.4628 13.36C30.8761 12.56 32.5961 12.16 34.6228 12.16V17.92C34.3561 17.8933 34.1161 17.88 33.9028 17.88C33.6895 17.8533 33.4628 17.84 33.2228 17.84C31.5161 17.84 30.1295 18.3333 29.0628 19.32C28.0228 20.28 27.5028 21.7867 27.5028 23.84V34H21.2628ZM36.3722 34V12.48H42.6122V34H36.3722ZM39.4922 9.48C38.3455 9.48 37.4122 9.14667 36.6922 8.48C35.9722 7.81333 35.6122 6.98666 35.6122 6C35.6122 5.01333 35.9722 4.18667 36.6922 3.52C37.4122 2.85333 38.3455 2.52 39.4922 2.52C40.6389 2.52 41.5722 2.84 42.2922 3.48C43.0122 4.09333 43.3722 4.89333 43.3722 5.88C43.3722 6.92 43.0122 7.78667 42.2922 8.48C41.5989 9.14667 40.6655 9.48 39.4922 9.48ZM73.9634 12.16C75.6701 12.16 77.1768 12.5067 78.4834 13.2C79.8168 13.8667 80.8568 14.9067 81.6034 16.32C82.3768 17.7067 82.7634 19.4933 82.7634 21.68V34H76.5234V22.64C76.5234 20.9067 76.1634 19.6267 75.4434 18.8C74.7234 17.9733 73.7101 17.56 72.4034 17.56C71.4968 17.56 70.6834 17.7733 69.9634 18.2C69.2434 18.6 68.6834 19.2133 68.2834 20.04C67.8834 20.8667 67.6834 21.92 67.6834 23.2V34H61.4434V22.64C61.4434 20.9067 61.0834 19.6267 60.3634 18.8C59.6701 17.9733 58.6701 17.56 57.3634 17.56C56.4568 17.56 55.6434 17.7733 54.9234 18.2C54.2034 18.6 53.6434 19.2133 53.2434 20.04C52.8434 20.8667 52.6434 21.92 52.6434 23.2V34H46.4034V12.48H52.3634V18.36L51.2434 16.64C51.9901 15.1733 53.0434 14.0667 54.4034 13.32C55.7901 12.5467 57.3634 12.16 59.1234 12.16C61.0968 12.16 62.8168 12.6667 64.2834 13.68C65.7768 14.6667 66.7634 16.1867 67.2434 18.24L65.0434 17.64C65.7634 15.96 66.9101 14.6267 68.4834 13.64C70.0834 12.6533 71.9101 12.16 73.9634 12.16ZM113.917 12.16C115.623 12.16 117.13 12.5067 118.437 13.2C119.77 13.8667 120.81 14.9067 121.557 16.32C122.33 17.7067 122.717 19.4933 122.717 21.68V34H116.477V22.64C116.477 20.9067 116.117 19.6267 115.397 18.8C114.677 17.9733 113.663 17.56 112.357 17.56C111.45 17.56 110.637 17.7733 109.917 18.2C109.197 18.6 108.637 19.2133 108.237 20.04C107.837 20.8667 107.637 21.92 107.637 23.2V34H101.397V22.64C101.397 20.9067 101.037 19.6267 100.317 18.8C99.6232 17.9733 98.6232 17.56 97.3166 17.56C96.4099 17.56 95.5966 17.7733 94.8766 18.2C94.1566 18.6 93.5966 19.2133 93.1966 20.04C92.7966 20.8667 92.5966 21.92 92.5966 23.2V34H86.3566V12.48H92.3166V18.36L91.1966 16.64C91.9432 15.1733 92.9966 14.0667 94.3566 13.32C95.7432 12.5467 97.3166 12.16 99.0766 12.16C101.05 12.16 102.77 12.6667 104.237 13.68C105.73 14.6667 106.717 16.1867 107.197 18.24L104.997 17.64C105.717 15.96 106.863 14.6267 108.437 13.64C110.037 12.6533 111.863 12.16 113.917 12.16ZM136.706 34.32C134.413 34.32 132.373 33.84 130.586 32.88C128.826 31.92 127.426 30.6133 126.386 28.96C125.373 27.28 124.866 25.3733 124.866 23.24C124.866 21.08 125.373 19.1733 126.386 17.52C127.426 15.84 128.826 14.5333 130.586 13.6C132.373 12.64 134.413 12.16 136.706 12.16C138.973 12.16 140.999 12.64 142.786 13.6C144.573 14.5333 145.973 15.8267 146.986 17.48C147.999 19.1333 148.506 21.0533 148.506 23.24C148.506 25.3733 147.999 27.28 146.986 28.96C145.973 30.6133 144.573 31.92 142.786 32.88C140.999 33.84 138.973 34.32 136.706 34.32ZM136.706 29.2C137.746 29.2 138.679 28.96 139.506 28.48C140.333 28 140.986 27.32 141.466 26.44C141.946 25.5333 142.186 24.4667 142.186 23.24C142.186 21.9867 141.946 20.92 141.466 20.04C140.986 19.16 140.333 18.48 139.506 18C138.679 17.52 137.746 17.28 136.706 17.28C135.666 17.28 134.733 17.52 133.906 18C133.079 18.48 132.413 19.16 131.906 20.04C131.426 20.92 131.186 21.9867 131.186 23.24C131.186 24.4667 131.426 25.5333 131.906 26.44C132.413 27.32 133.079 28 133.906 28.48C134.733 28.96 135.666 29.2 136.706 29.2Z" fill="white"/>
<path fill-rule="evenodd" clip-rule="evenodd" d="M87.9827 5L85.1384 22.333L90 19.418L82.8623 46.7007L84.1553 27.6444L78 29.9044L80.845 11.2091" fill="#1F905C"/>
<path fill-rule="evenodd" clip-rule="evenodd" d="M44.9349 4.60653C44.8521 4.33726 44.6983 4.09528 44.4896 3.90606C44.281 3.71683 44.0251 3.58736 43.7491 3.53128C43.796 3.25609 43.7661 2.97329 43.6626 2.71403C43.5591 2.45477 43.386 2.22912 43.1625 2.06193C42.918 1.8779 42.6266 1.76664 42.3217 1.74098C42.0168 1.71533 41.7108 1.7763 41.439 1.9169C41.3132 1.65204 41.1172 1.4267 40.8724 1.26528C40.6276 1.10386 40.3433 1.01254 40.0503 1.0012C39.7572 0.989866 39.4667 1.05895 39.2102 1.20097C38.9536 1.343 38.7408 1.55253 38.5949 1.80687C38.337 1.68587 38.0517 1.63483 37.7678 1.65889C37.484 1.68294 37.2114 1.78123 36.9775 1.9439C36.7474 2.10225 36.5653 2.32099 36.4514 2.57606C36.3375 2.83114 36.2962 3.11268 36.3319 3.38974C36.0534 3.43521 35.7924 3.55476 35.5761 3.73585C35.3598 3.91694 35.1963 4.15291 35.1026 4.41898C35.0123 4.68263 34.9969 4.96617 35.0582 5.23804C35.1194 5.5099 35.255 5.75943 35.4496 5.95884C35.2511 6.15442 35.1106 6.40121 35.0439 6.67181C34.9771 6.94242 34.9867 7.22622 35.0716 7.4917C35.1602 7.75915 35.3192 7.9978 35.5319 8.1826C35.7446 8.36739 36.0031 8.49152 36.2803 8.54195C36.2386 8.8186 36.2742 9.10139 36.3831 9.3591C36.492 9.6168 36.67 9.8394 36.8975 10.0023C37.1282 10.1693 37.3987 10.2727 37.682 10.3021C37.9653 10.3315 38.2513 10.2859 38.5114 10.1698C38.6476 10.4178 38.8468 10.6254 39.089 10.7717C39.3311 10.918 39.6075 10.9979 39.8903 11.0033C40.1732 11.0087 40.4525 10.9394 40.7 10.8023C40.9475 10.6653 41.1544 10.4654 41.3 10.2228C41.5555 10.3487 41.8397 10.4051 42.1239 10.3865C42.4081 10.3679 42.6824 10.2749 42.9194 10.1168C43.1527 9.96287 43.3391 9.74761 43.4581 9.49467C43.5772 9.24173 43.6242 8.96089 43.5941 8.68298C43.8735 8.64284 44.137 8.5283 44.3569 8.35135C44.5769 8.17441 44.7453 7.94158 44.8443 7.67725C44.9399 7.41561 44.961 7.13258 44.9053 6.85966C44.8496 6.58674 44.7192 6.33463 44.5288 6.13138C44.7312 5.93972 44.8765 5.69571 44.9486 5.42645C45.0208 5.15719 45.0169 4.87321 44.9374 4.60603" fill="white"/>
</g>
<defs>
<clipPath id="clip0_12_417">
<rect width="150" height="37" fill="white"/>
</clipPath>
</defs>
</svg>
